<?xml version="1.0" encoding="utf-8" standalone="no"?>
<!DOCTYPE svg PUBLIC "-//W3C//DTD SVG 1.1//EN"
  "http://www.w3.org/Graphics/SVG/1.1/DTD/svg11.dtd">
<svg xmlns:xlink="http://www.w3.org/1999/xlink" width="936pt" height="432pt" viewBox="0 0 936 432" xmlns="http://www.w3.org/2000/svg" version="1.1">
 <metadata>
  <rdf:RDF xmlns:dc="http://purl.org/dc/elements/1.1/" xmlns:cc="http://creativecommons.org/ns#" xmlns:rdf="http://www.w3.org/1999/02/22-rdf-syntax-ns#">
   <cc:Work>
    <dc:type rdf:resource="http://purl.org/dc/dcmitype/StillImage"/>
    <dc:date>2024-08-18T23:16:26.863988</dc:date>
    <dc:format>image/svg+xml</dc:format>
    <dc:creator>
     <cc:Agent>
      <dc:title>Matplotlib v3.5.1, https://matplotlib.org/</dc:title>
     </cc:Agent>
    </dc:creator>
   </cc:Work>
  </rdf:RDF>
 </metadata>
 <defs>
  <style type="text/css">*{stroke-linejoin: round; stroke-linecap: butt}</style>
 </defs>
 <g id="figure_1">
  <g id="patch_1">
   <path d="M 0 432 
L 936 432 
L 936 0 
L 0 0 
z
" style="fill: #ffffff"/>
  </g>
  <g id="axes_1">
   <g id="patch_2">
    <path d="M 117 384.48 
L 842.4 384.48 
L 842.4 51.84 
L 117 51.84 
z
" style="fill: #ffffff"/>
   </g>
   <g id="matplotlib.axis_1">
    <g id="xtick_1">
     <g id="text_1">
      <!-- 0 -->
      <g style="fill: #262626" transform="translate(145.93977 399.47375)scale(0.1 -0.1)">
       <defs>
        <path id="MicrosoftYaHei-30" d="M 284 2325 
Q 284 3606 709 4264 
Q 1134 4922 1941 4922 
Q 3478 4922 3478 2441 
Q 3478 1216 3045 567 
Q 2613 -81 1831 -81 
Q 1094 -81 689 534 
Q 284 1150 284 2325 
z
M 909 2353 
Q 909 425 1888 425 
Q 2850 425 2850 2384 
Q 2850 4413 1906 4413 
Q 909 4413 909 2353 
z
" transform="scale(0.015625)"/>
       </defs>
       <use xlink:href="#MicrosoftYaHei-30"/>
      </g>
     </g>
    </g>
    <g id="xtick_2">
     <g id="text_2">
      <!-- 100 -->
      <g style="fill: #262626" transform="translate(250.168286 399.47375)scale(0.1 -0.1)">
       <defs>
        <path id="MicrosoftYaHei-31" d="M 3366 0 
L 591 0 
L 591 528 
L 1675 528 
L 1675 4203 
L 563 3881 
L 563 4444 
L 2284 4944 
L 2284 528 
L 3366 528 
L 3366 0 
z
" transform="scale(0.015625)"/>
       </defs>
       <use xlink:href="#MicrosoftYaHei-31"/>
       <use xlink:href="#MicrosoftYaHei-30" x="58.642578"/>
       <use xlink:href="#MicrosoftYaHei-30" x="117.285156"/>
      </g>
     </g>
    </g>
    <g id="xtick_3">
     <g id="text_3">
      <!-- 200 -->
      <g style="fill: #262626" transform="translate(360.260865 399.47375)scale(0.1 -0.1)">
       <defs>
        <path id="MicrosoftYaHei-32" d="M 3275 0 
L 331 0 
L 331 531 
L 1738 1934 
Q 2319 2516 2516 2855 
Q 2713 3194 2713 3556 
Q 2713 3969 2481 4189 
Q 2250 4409 1813 4409 
Q 1166 4409 578 3859 
L 578 4481 
Q 1150 4922 1909 4922 
Q 2563 4922 2941 4569 
Q 3319 4216 3319 3619 
Q 3319 3169 3076 2736 
Q 2834 2303 2159 1634 
L 1056 556 
L 1056 544 
L 3275 544 
L 3275 0 
z
" transform="scale(0.015625)"/>
       </defs>
       <use xlink:href="#MicrosoftYaHei-32"/>
       <use xlink:href="#MicrosoftYaHei-30" x="58.642578"/>
       <use xlink:href="#MicrosoftYaHei-30" x="117.285156"/>
      </g>
     </g>
    </g>
    <g id="xtick_4">
     <g id="text_4">
      <!-- 300 -->
      <g style="fill: #262626" transform="translate(470.353443 399.47375)scale(0.1 -0.1)">
       <defs>
        <path id="MicrosoftYaHei-33" d="M 447 809 
Q 944 425 1569 425 
Q 2069 425 2361 670 
Q 2653 916 2653 1328 
Q 2653 2247 1338 2247 
L 934 2247 
L 934 2753 
L 1319 2753 
Q 2484 2753 2484 3616 
Q 2484 4413 1594 4413 
Q 1084 4413 634 4069 
L 634 4647 
Q 1109 4922 1744 4922 
Q 2363 4922 2738 4598 
Q 3113 4275 3113 3759 
Q 3113 2809 2144 2538 
L 2144 2525 
Q 2669 2469 2973 2155 
Q 3278 1841 3278 1372 
Q 3278 719 2808 319 
Q 2338 -81 1556 -81 
Q 869 -81 447 175 
L 447 809 
z
" transform="scale(0.015625)"/>
       </defs>
       <use xlink:href="#MicrosoftYaHei-33"/>
       <use xlink:href="#MicrosoftYaHei-30" x="58.642578"/>
       <use xlink:href="#MicrosoftYaHei-30" x="117.285156"/>
      </g>
     </g>
    </g>
    <g id="xtick_5">
     <g id="text_5">
      <!-- 400 -->
      <g style="fill: #262626" transform="translate(580.446022 399.47375)scale(0.1 -0.1)">
       <defs>
        <path id="MicrosoftYaHei-34" d="M 3525 1256 
L 2906 1256 
L 2906 0 
L 2313 0 
L 2313 1256 
L 56 1256 
L 56 1653 
L 2197 4841 
L 2906 4841 
L 2906 1741 
L 3525 1741 
L 3525 1256 
z
M 2313 1741 
L 2313 3769 
Q 2313 3984 2325 4266 
L 2313 4266 
Q 2269 4147 2128 3894 
L 688 1741 
L 2313 1741 
z
" transform="scale(0.015625)"/>
       </defs>
       <use xlink:href="#MicrosoftYaHei-34"/>
       <use xlink:href="#MicrosoftYaHei-30" x="58.642578"/>
       <use xlink:href="#MicrosoftYaHei-30" x="117.285156"/>
      </g>
     </g>
    </g>
    <g id="xtick_6">
     <g id="text_6">
      <!-- 500 -->
      <g style="fill: #262626" transform="translate(690.5386 399.47375)scale(0.1 -0.1)">
       <defs>
        <path id="MicrosoftYaHei-35" d="M 553 744 
Q 1041 425 1569 425 
Q 2069 425 2375 704 
Q 2681 984 2681 1447 
Q 2681 1913 2370 2169 
Q 2059 2425 1469 2425 
Q 1184 2425 703 2381 
L 703 4841 
L 3084 4841 
L 3084 4300 
L 1272 4300 
L 1272 2931 
Q 1544 2947 1681 2947 
Q 2447 2947 2875 2559 
Q 3303 2172 3303 1491 
Q 3303 788 2843 353 
Q 2384 -81 1575 -81 
Q 897 -81 553 119 
L 553 744 
z
" transform="scale(0.015625)"/>
       </defs>
       <use xlink:href="#MicrosoftYaHei-35"/>
       <use xlink:href="#MicrosoftYaHei-30" x="58.642578"/>
       <use xlink:href="#MicrosoftYaHei-30" x="117.285156"/>
      </g>
     </g>
    </g>
    <g id="xtick_7">
     <g id="text_7">
      <!-- 600 -->
      <g style="fill: #262626" transform="translate(800.631179 399.47375)scale(0.1 -0.1)">
       <defs>
        <path id="MicrosoftYaHei-36" d="M 3181 4219 
Q 2803 4413 2391 4413 
Q 1763 4413 1381 3866 
Q 1000 3319 994 2372 
L 1009 2372 
Q 1353 3038 2106 3038 
Q 2734 3038 3109 2628 
Q 3484 2219 3484 1541 
Q 3484 831 3051 375 
Q 2619 -81 1947 -81 
Q 1209 -81 789 495 
Q 369 1072 369 2131 
Q 369 3413 920 4167 
Q 1472 4922 2372 4922 
Q 2888 4922 3181 4781 
L 3181 4219 
z
M 1031 1584 
Q 1031 1106 1286 765 
Q 1541 425 1963 425 
Q 2363 425 2613 719 
Q 2863 1013 2863 1475 
Q 2863 1975 2627 2253 
Q 2391 2531 1956 2531 
Q 1544 2531 1287 2250 
Q 1031 1969 1031 1584 
z
" transform="scale(0.015625)"/>
       </defs>
       <use xlink:href="#MicrosoftYaHei-36"/>
       <use xlink:href="#MicrosoftYaHei-30" x="58.642578"/>
       <use xlink:href="#MicrosoftYaHei-30" x="117.285156"/>
      </g>
     </g>
    </g>
    <g id="text_8">
     <!-- id -->
     <g style="fill: #262626" transform="translate(475.171094 413.953438)scale(0.1 -0.1)">
      <defs>
       <path id="MicrosoftYaHei-69" d="M 472 4675 
Q 472 4838 583 4948 
Q 694 5059 856 5059 
Q 1022 5059 1136 4950 
Q 1250 4841 1250 4675 
Q 1250 4513 1136 4405 
Q 1022 4297 856 4297 
Q 691 4297 581 4405 
Q 472 4513 472 4675 
z
M 544 0 
L 544 3456 
L 1156 3456 
L 1156 0 
L 544 0 
z
" transform="scale(0.015625)"/>
       <path id="MicrosoftYaHei-64" d="M 3547 0 
L 2934 0 
L 2934 575 
L 2922 575 
Q 2544 -81 1747 -81 
Q 1091 -81 703 386 
Q 316 853 316 1647 
Q 316 2503 753 3020 
Q 1191 3538 1897 3538 
Q 2603 3538 2922 2988 
L 2934 2988 
L 2934 5116 
L 3547 5116 
L 3547 0 
z
M 2938 2056 
Q 2938 2472 2664 2751 
Q 2391 3031 1991 3031 
Q 1503 3031 1222 2667 
Q 941 2303 941 1675 
Q 941 1097 1211 761 
Q 1481 425 1931 425 
Q 2375 425 2656 754 
Q 2938 1084 2938 1575 
L 2938 2056 
z
" transform="scale(0.015625)"/>
      </defs>
      <use xlink:href="#MicrosoftYaHei-69"/>
      <use xlink:href="#MicrosoftYaHei-64" x="26.611328"/>
     </g>
    </g>
   </g>
   <g id="matplotlib.axis_2">
    <g id="ytick_1">
     <g id="text_9">
      <!-- 200 -->
      <g style="fill: #262626" transform="translate(92.407813 374.509426)scale(0.1 -0.1)">
       <use xlink:href="#MicrosoftYaHei-32"/>
       <use xlink:href="#MicrosoftYaHei-30" x="58.642578"/>
       <use xlink:href="#MicrosoftYaHei-30" x="117.285156"/>
      </g>
     </g>
    </g>
    <g id="ytick_2">
     <g id="text_10">
      <!-- 220 -->
      <g style="fill: #262626" transform="translate(92.407813 329.369778)scale(0.1 -0.1)">
       <use xlink:href="#MicrosoftYaHei-32"/>
       <use xlink:href="#MicrosoftYaHei-32" x="58.642578"/>
       <use xlink:href="#MicrosoftYaHei-30" x="117.285156"/>
      </g>
     </g>
    </g>
    <g id="ytick_3">
     <g id="text_11">
      <!-- 240 -->
      <g style="fill: #262626" transform="translate(92.407813 284.230131)scale(0.1 -0.1)">
       <use xlink:href="#MicrosoftYaHei-32"/>
       <use xlink:href="#MicrosoftYaHei-34" x="58.642578"/>
       <use xlink:href="#MicrosoftYaHei-30" x="117.285156"/>
      </g>
     </g>
    </g>
    <g id="ytick_4">
     <g id="text_12">
      <!-- 260 -->
      <g style="fill: #262626" transform="translate(92.407813 239.090483)scale(0.1 -0.1)">
       <use xlink:href="#MicrosoftYaHei-32"/>
       <use xlink:href="#MicrosoftYaHei-36" x="58.642578"/>
       <use xlink:href="#MicrosoftYaHei-30" x="117.285156"/>
      </g>
     </g>
    </g>
    <g id="ytick_5">
     <g id="text_13">
      <!-- 280 -->
      <g style="fill: #262626" transform="translate(92.407813 193.950836)scale(0.1 -0.1)">
       <defs>
        <path id="MicrosoftYaHei-38" d="M 1369 2547 
Q 503 2950 503 3716 
Q 503 4250 909 4586 
Q 1316 4922 1947 4922 
Q 2525 4922 2900 4606 
Q 3275 4291 3275 3791 
Q 3275 2984 2372 2550 
L 2372 2538 
Q 3431 2156 3431 1238 
Q 3431 634 2995 276 
Q 2559 -81 1778 -81 
Q 1138 -81 734 272 
Q 331 625 331 1188 
Q 331 2113 1369 2534 
L 1369 2547 
z
M 2656 3719 
Q 2656 4044 2453 4231 
Q 2250 4419 1903 4419 
Q 1578 4419 1350 4223 
Q 1122 4028 1122 3725 
Q 1122 3119 1881 2803 
Q 2656 3125 2656 3719 
z
M 1844 2256 
Q 947 1894 947 1219 
Q 947 869 1209 644 
Q 1472 419 1894 419 
Q 2303 419 2559 642 
Q 2816 866 2816 1200 
Q 2816 1903 1844 2256 
z
" transform="scale(0.015625)"/>
       </defs>
       <use xlink:href="#MicrosoftYaHei-32"/>
       <use xlink:href="#MicrosoftYaHei-38" x="58.642578"/>
       <use xlink:href="#MicrosoftYaHei-30" x="117.285156"/>
      </g>
     </g>
    </g>
    <g id="ytick_6">
     <g id="text_14">
      <!-- 300 -->
      <g style="fill: #262626" transform="translate(92.407813 148.811188)scale(0.1 -0.1)">
       <use xlink:href="#MicrosoftYaHei-33"/>
       <use xlink:href="#MicrosoftYaHei-30" x="58.642578"/>
       <use xlink:href="#MicrosoftYaHei-30" x="117.285156"/>
      </g>
     </g>
    </g>
    <g id="ytick_7">
     <g id="text_15">
      <!-- 320 -->
      <g style="fill: #262626" transform="translate(92.407813 103.671541)scale(0.1 -0.1)">
       <use xlink:href="#MicrosoftYaHei-33"/>
       <use xlink:href="#MicrosoftYaHei-32" x="58.642578"/>
       <use xlink:href="#MicrosoftYaHei-30" x="117.285156"/>
      </g>
     </g>
    </g>
    <g id="ytick_8">
     <g id="text_16">
      <!-- 340 -->
      <g style="fill: #262626" transform="translate(92.407813 58.531894)scale(0.1 -0.1)">
       <use xlink:href="#MicrosoftYaHei-33"/>
       <use xlink:href="#MicrosoftYaHei-34" x="58.642578"/>
       <use xlink:href="#MicrosoftYaHei-30" x="117.285156"/>
      </g>
     </g>
    </g>
   </g>
   <g id="line2d_1">
    <path d="M 149.972727 369.36 
L 151.073653 66.96 
L 152.174579 247.028328 
L 153.275505 91.590403 
L 154.37643 212.132875 
L 155.477356 105.174729 
L 156.578282 193.358393 
L 157.679208 110.580653 
L 158.780134 180.11916 
L 159.881059 116.102902 
L 160.981985 176.204898 
L 162.082911 117.930719 
L 163.183837 169.423569 
L 164.284762 123.153286 
L 165.385688 166.375469 
L 166.486614 124.651426 
L 167.58754 166.17848 
L 168.688466 127.684788 
L 169.789391 161.737732 
L 170.890317 130.925295 
L 171.991243 163.334231 
L 173.092169 132.174309 
L 174.193095 158.652482 
L 175.29402 131.758754 
L 176.394946 156.577096 
L 177.495872 132.180155 
L 178.596798 156.008088 
L 179.697723 133.484194 
L 180.798649 157.046616 
L 181.899575 130.903877 
L 183.000501 154.009034 
L 184.101427 135.522904 
L 185.202352 153.519314 
L 186.303278 134.256624 
L 187.404204 154.56046 
L 188.50513 135.013097 
L 189.606056 151.666354 
L 190.706981 134.223311 
L 191.807907 151.87262 
L 192.908833 136.30215 
L 194.009759 150.880744 
L 195.110684 139.783116 
L 196.21161 151.911327 
L 197.312536 135.838024 
L 198.413462 149.902093 
L 199.514388 137.235683 
L 200.615313 154.149576 
L 201.716239 135.009959 
L 202.817165 149.898415 
L 203.918091 137.508597 
L 205.019017 149.76189 
L 206.119942 135.053384 
L 207.220868 149.505745 
L 208.321794 139.462783 
L 209.42272 149.885008 
L 210.523645 141.152653 
L 211.624571 148.078339 
L 212.725497 135.714612 
L 213.826423 148.199539 
L 214.927349 136.714613 
L 216.028274 148.807367 
L 217.1292 138.068735 
L 218.230126 149.144989 
L 219.331052 138.839088 
L 220.431978 147.768749 
L 221.532903 140.87044 
L 222.633829 148.672444 
L 223.734755 141.242165 
L 224.835681 148.881057 
L 225.936606 138.094622 
L 227.037532 148.477102 
L 228.138458 136.700778 
L 229.239384 148.30433 
L 230.34031 138.534486 
L 231.441235 147.045927 
L 232.542161 138.782077 
L 233.643087 149.456678 
L 234.744013 138.796905 
L 235.844939 147.415147 
L 236.945864 139.868836 
L 238.04679 149.205273 
L 239.147716 140.098687 
L 240.248642 147.211996 
L 241.349567 138.063183 
L 242.450493 146.26219 
L 243.551419 141.58552 
L 244.652345 147.050464 
L 245.753271 139.111935 
L 246.854196 145.731732 
L 247.955122 139.73441 
L 249.056048 144.979525 
L 250.156974 141.680967 
L 251.2579 146.608434 
L 252.358825 139.871138 
L 253.459751 145.847515 
L 254.560677 139.588474 
L 255.661603 146.493915 
L 256.762528 139.559652 
L 257.863454 144.851621 
L 258.96438 140.344992 
L 260.065306 146.915722 
L 261.166232 139.713849 
L 262.267157 147.061726 
L 263.368083 139.158271 
L 264.469009 146.783192 
L 265.569935 137.802569 
L 266.670861 148.251291 
L 267.771786 140.549339 
L 268.872712 147.604982 
L 269.973638 140.476281 
L 271.074564 144.448231 
L 272.175489 141.742154 
L 273.276415 146.337212 
L 274.377341 137.111323 
L 275.478267 145.177101 
L 276.579193 140.386814 
L 277.680118 146.357931 
L 278.781044 140.883801 
L 279.88197 144.745521 
L 280.982896 141.778785 
L 282.083822 144.818421 
L 283.184747 138.925734 
L 284.285673 147.127382 
L 285.386599 140.966881 
L 286.487525 145.299745 
L 287.58845 141.130083 
L 288.689376 144.707491 
L 289.790302 140.084401 
L 290.891228 147.00142 
L 291.992154 139.537827 
L 293.093079 147.463447 
L 294.194005 138.970174 
L 295.294931 145.141779 
L 296.395857 140.543764 
L 297.496783 145.654453 
L 298.597708 142.536228 
L 299.698634 147.869907 
L 300.79956 139.182307 
L 301.900486 144.955352 
L 303.001411 139.953338 
L 304.102337 147.172612 
L 305.203263 141.531397 
L 306.304189 143.323509 
L 307.405115 140.10697 
L 308.50604 145.087386 
L 309.606966 143.020599 
L 310.707892 144.800546 
L 311.808818 138.97963 
L 312.909744 146.601505 
L 314.010669 139.970965 
L 315.111595 144.103815 
L 316.212521 141.056731 
L 317.313447 144.396772 
L 318.414372 141.960833 
L 319.515298 143.76599 
L 320.616224 140.627814 
L 321.71715 145.81524 
L 322.818076 141.396565 
L 323.919001 143.970292 
L 325.019927 142.75511 
L 326.120853 145.235534 
L 327.221779 141.267624 
L 328.322705 146.520998 
L 329.42363 140.854596 
L 330.524556 145.756965 
L 331.625482 141.336574 
L 332.726408 145.967135 
L 333.827333 139.207382 
L 334.928259 148.486266 
L 336.029185 140.572992 
L 337.130111 145.185858 
L 338.231037 142.072396 
L 339.331962 143.786303 
L 340.432888 139.335692 
L 341.533814 144.723425 
L 342.63474 142.008117 
L 343.735666 143.375961 
L 344.836591 142.222372 
L 345.937517 145.863359 
L 347.038443 140.111823 
L 348.139369 146.201274 
L 349.240294 141.575769 
L 350.34122 144.049467 
L 351.442146 141.755583 
L 352.543072 144.166808 
L 353.643998 141.833043 
L 354.744923 143.56223 
L 355.845849 141.199689 
L 356.946775 144.422389 
L 358.047701 140.729333 
L 359.148626 146.852549 
L 360.249552 139.825254 
L 361.350478 144.931022 
L 362.451404 139.909011 
L 363.55233 145.633621 
L 364.653255 140.337386 
L 365.754181 144.827675 
L 366.855107 142.256295 
L 367.956033 143.213413 
L 369.056959 141.392661 
L 370.157884 143.80797 
L 371.25881 142.329985 
L 372.359736 146.679506 
L 373.460662 140.162763 
L 374.561587 147.166405 
L 375.662513 143.576268 
L 376.763439 144.338068 
L 377.864365 143.366775 
L 378.965291 145.340822 
L 380.066216 143.643933 
L 381.167142 143.338834 
L 382.268068 140.732832 
L 383.368994 144.397178 
L 384.46992 141.109071 
L 385.570845 146.248355 
L 386.671771 143.177098 
L 387.772697 141.464229 
L 388.873623 142.344317 
L 389.974548 142.712973 
L 391.075474 139.964781 
L 392.1764 143.646235 
L 393.277326 139.458585 
L 394.378252 144.293018 
L 395.479177 142.798557 
L 396.580103 145.636622 
L 397.681029 142.399636 
L 398.781955 144.819798 
L 399.882881 139.86184 
L 400.983806 144.453354 
L 402.084732 141.671736 
L 403.185658 144.70424 
L 404.286584 141.16229 
L 405.387509 145.951833 
L 406.488435 141.677627 
L 407.589361 146.215019 
L 408.690287 139.662548 
L 409.791213 144.651585 
L 410.892138 143.411599 
L 411.993064 146.058385 
L 413.09399 140.813519 
L 414.194916 144.38797 
L 415.295842 143.450193 
L 416.396767 143.936347 
L 417.497693 142.468045 
L 418.598619 146.397113 
L 419.699545 143.046871 
L 420.80047 144.37673 
L 421.901396 140.68372 
L 423.002322 145.059061 
L 424.103248 140.356344 
L 425.204174 143.717352 
L 426.305099 140.952887 
L 427.406025 143.485086 
L 428.506951 141.632736 
L 429.607877 144.695438 
L 430.708803 142.533768 
L 431.809728 145.885455 
L 432.910654 141.869267 
L 434.01158 144.049535 
L 435.112506 142.265413 
L 436.213431 145.370411 
L 437.314357 141.828145 
L 438.415283 143.866291 
L 439.516209 141.803093 
L 440.617135 142.302405 
L 441.71806 141.593148 
L 442.818986 143.704284 
L 443.919912 143.00866 
L 445.020838 142.037909 
L 446.121764 144.491858 
L 447.222689 145.237746 
L 448.323615 140.630681 
L 449.424541 144.368921 
L 450.525467 142.527381 
L 451.626392 142.326329 
L 452.727318 144.528151 
L 453.828244 144.379732 
L 454.92917 141.47398 
L 456.030096 143.246004 
L 457.131021 142.379503 
L 458.231947 144.723041 
L 459.332873 143.106726 
L 460.433799 143.118169 
L 461.534725 144.286225 
L 462.63565 144.582228 
L 463.736576 144.120675 
L 464.837502 142.517292 
L 465.938428 143.188857 
L 467.039353 146.094993 
L 468.140279 142.023577 
L 469.241205 144.870964 
L 470.342131 140.736849 
L 471.443057 146.008505 
L 472.543982 141.029128 
L 473.644908 144.53517 
L 474.745834 142.098735 
L 475.84676 145.360774 
L 476.947686 142.321544 
L 478.048611 143.6981 
L 479.149537 142.400065 
L 480.250463 143.838778 
L 481.351389 141.051721 
L 482.452314 145.18561 
L 483.55324 141.769464 
L 484.654166 142.562048 
L 485.755092 141.984441 
L 486.856018 144.244087 
L 487.956943 140.330163 
L 489.057869 144.569973 
L 490.158795 143.541985 
L 491.259721 144.353212 
L 492.360647 141.680177 
L 493.461572 142.254963 
L 494.562498 141.972795 
L 495.663424 146.008889 
L 496.76435 140.433375 
L 497.865275 145.248986 
L 498.966201 141.647609 
L 500.067127 145.015794 
L 501.168053 142.298591 
L 502.268979 146.426137 
L 503.369904 141.75195 
L 504.47083 145.909446 
L 505.571756 139.406403 
L 506.672682 141.42225 
L 507.773608 141.879198 
L 508.874533 145.041569 
L 509.975459 140.646999 
L 511.076385 142.647227 
L 512.177311 141.580961 
L 513.278236 143.610281 
L 514.379162 141.901926 
L 516.581014 143.255032 
L 517.68194 145.436676 
L 518.782865 143.355287 
L 519.883791 143.689817 
L 522.085643 144.007849 
L 523.186569 142.725273 
L 524.287494 144.114604 
L 525.38842 140.547263 
L 526.489346 142.813047 
L 527.590272 142.016445 
L 528.691197 144.065988 
L 529.792123 143.527202 
L 530.893049 144.177393 
L 531.993975 140.061673 
L 533.094901 141.431819 
L 534.195826 143.292588 
L 535.296752 144.167507 
L 537.498604 142.557986 
L 538.59953 141.879875 
L 539.700455 142.499598 
L 540.801381 142.357317 
L 541.902307 138.908152 
L 543.003233 142.821646 
L 544.104158 142.222937 
L 545.205084 143.357973 
L 546.30601 142.214473 
L 547.406936 142.321296 
L 548.507862 144.898318 
L 549.608787 143.171366 
L 550.709713 144.250903 
L 551.810639 141.328201 
L 552.911565 143.934384 
L 554.012491 142.724438 
L 555.113416 144.846317 
L 556.214342 142.673566 
L 557.315268 144.381221 
L 558.416194 140.581546 
L 559.517119 145.201702 
L 560.618045 141.333686 
L 561.718971 145.180915 
L 562.819897 141.291999 
L 563.920823 144.786034 
L 565.021748 143.024594 
L 566.122674 143.855705 
L 567.2236 139.923026 
L 568.324526 145.223482 
L 569.425452 142.276043 
L 570.526377 143.534469 
L 571.627303 140.332059 
L 572.728229 144.168997 
L 573.829155 140.443103 
L 574.93008 144.842977 
L 576.031006 141.839882 
L 577.131932 145.74963 
L 578.232858 141.069822 
L 579.333784 145.809236 
L 580.434709 141.774226 
L 581.535635 143.344747 
L 582.636561 143.799642 
L 583.737487 142.988234 
L 584.838413 143.272569 
L 585.939338 144.508831 
L 587.040264 140.557758 
L 588.14119 145.655265 
L 589.242116 142.478382 
L 590.343041 142.819705 
L 591.443967 142.695729 
L 592.544893 143.154484 
L 593.645819 139.938148 
L 594.746745 144.864622 
L 595.84767 143.068492 
L 596.948596 142.994689 
L 598.049522 140.757907 
L 599.150448 144.099843 
L 600.251374 144.215942 
L 601.352299 145.150807 
L 602.453225 143.042199 
L 603.554151 143.436764 
L 604.655077 142.483212 
L 605.756002 143.125504 
L 606.856928 142.592156 
L 607.957854 144.024302 
L 609.05878 141.350951 
L 610.159706 141.37395 
L 611.260631 140.564009 
L 612.361557 143.172585 
L 613.462483 142.953319 
L 614.563409 145.11772 
L 615.664334 143.038542 
L 616.76526 145.040373 
L 617.866186 141.902874 
L 618.967112 144.045472 
L 620.068038 142.304572 
L 621.168963 144.010737 
L 622.269889 141.864031 
L 623.370815 142.524244 
L 624.471741 142.834985 
L 625.572667 144.642715 
L 626.673592 139.750638 
L 627.774518 144.154259 
L 628.875444 143.444009 
L 629.97637 146.446518 
L 631.077295 143.551216 
L 632.178221 142.848369 
L 633.279147 140.86649 
L 634.380073 142.805622 
L 635.480999 141.273988 
L 636.581924 144.800907 
L 637.68285 142.672415 
L 638.783776 143.728931 
L 639.884702 143.953929 
L 642.086553 141.492148 
L 643.187479 144.777118 
L 644.288405 141.64375 
L 645.389331 143.095351 
L 646.490256 142.18687 
L 647.591182 143.66815 
L 648.692108 142.274464 
L 649.793034 142.316601 
L 650.89396 141.014413 
L 651.994885 144.19265 
L 653.095811 142.219416 
L 654.196737 143.768292 
L 656.398589 143.520408 
L 657.499514 141.540041 
L 658.60044 143.90721 
L 659.701366 142.761317 
L 660.802292 143.54835 
L 661.903217 143.825281 
L 663.004143 145.542506 
L 664.105069 140.759758 
L 665.205995 143.728366 
L 666.306921 142.379278 
L 667.407846 143.537019 
L 668.508772 142.760324 
L 669.609698 146.006136 
L 670.710624 141.800249 
L 671.81155 145.967383 
L 674.013401 141.749309 
L 675.114327 142.201608 
L 676.215253 142.528622 
L 677.316178 142.509686 
L 679.51803 143.201158 
L 680.618956 144.907933 
L 681.719882 144.09806 
L 682.820807 143.855119 
L 683.921733 139.722629 
L 685.022659 142.057206 
L 686.123585 141.655847 
L 687.224511 143.233365 
L 688.325436 143.22032 
L 689.426362 143.875251 
L 690.527288 142.940431 
L 691.628214 145.350279 
L 692.729139 144.803728 
L 693.830065 142.744751 
L 694.930991 143.143853 
L 696.031917 143.750688 
L 697.132843 142.892651 
L 698.233768 145.438279 
L 699.334694 143.372485 
L 700.43562 144.956616 
L 701.536546 142.221357 
L 702.637472 143.255687 
L 703.738397 143.586944 
L 704.839323 144.36944 
L 705.940249 142.359777 
L 707.041175 143.069012 
L 708.1421 144.465023 
L 709.243026 143.544129 
L 710.343952 142.469873 
L 711.444878 144.191025 
L 712.545804 142.664921 
L 713.646729 142.352126 
L 714.747655 142.173306 
L 715.848581 142.969772 
L 716.949507 144.32272 
L 718.050433 143.734618 
L 719.151358 143.332605 
L 720.252284 143.412231 
L 721.35321 143.948332 
L 722.454136 145.442838 
L 723.555061 143.291979 
L 724.655987 143.382394 
L 725.756913 144.348946 
L 726.857839 143.865862 
L 727.958765 143.823904 
L 729.05969 142.59886 
L 730.160616 141.685211 
L 731.261542 144.779443 
L 732.362468 142.047185 
L 733.463394 143.239797 
L 734.564319 141.424574 
L 735.665245 144.640255 
L 736.766171 142.90353 
L 737.867097 144.726381 
L 738.968022 141.904612 
L 740.068948 145.477528 
L 741.169874 142.590057 
L 742.2708 142.992342 
L 743.371726 142.465901 
L 744.472651 143.431979 
L 745.573577 143.856495 
L 746.674503 143.62538 
L 747.775429 145.084677 
L 748.876355 144.363933 
L 749.97728 141.065827 
L 751.078206 142.430444 
L 752.179132 140.243044 
L 753.280058 145.175318 
L 754.380983 142.13593 
L 755.481909 144.003041 
L 756.582835 142.876017 
L 757.683761 144.161775 
L 758.784687 141.455382 
L 759.885612 143.646077 
L 760.986538 142.54169 
L 762.087464 145.220096 
L 763.18839 143.057117 
L 764.289316 141.970967 
L 765.390241 142.217497 
L 766.491167 143.139068 
L 767.592093 139.717054 
L 768.693019 142.916665 
L 769.793944 142.616329 
L 770.89487 141.29561 
L 771.995796 144.459132 
L 773.096722 142.079347 
L 774.197648 140.706741 
L 775.298573 142.765786 
L 776.399499 143.40871 
L 777.500425 142.594729 
L 778.601351 141.433467 
L 779.702277 144.206418 
L 780.803202 142.180934 
L 781.904128 143.05407 
L 783.005054 141.053549 
L 784.10598 144.167011 
L 785.206905 139.66248 
L 786.307831 142.617751 
L 787.408757 140.685954 
L 788.509683 143.585861 
L 789.610609 142.043281 
L 790.711534 143.914883 
L 791.81246 141.683563 
L 792.913386 142.493594 
L 794.014312 143.99469 
L 795.115238 146.03261 
L 796.216163 142.480797 
L 797.317089 144.075061 
L 799.518941 143.009382 
L 800.619866 143.417986 
L 801.720792 142.680901 
L 802.821718 144.19739 
L 803.922644 142.353322 
L 805.02357 142.966364 
L 806.124495 144.805714 
L 807.225421 142.180438 
L 808.326347 141.408617 
L 809.427273 143.72541 
L 809.427273 143.72541 
" clip-path="url(#p37b1ae5f15)" style="fill: none; stroke: #1f77b4; stroke-width: 1.5; stroke-linecap: round"/>
   </g>
   <g id="patch_3">
    <path d="M 117 384.48 
L 117 51.84 
" style="fill: none; stroke: #262626; stroke-width: 0.8; stroke-linejoin: miter; stroke-linecap: square"/>
   </g>
   <g id="patch_4">
    <path d="M 842.4 384.48 
L 842.4 51.84 
" style="fill: none; stroke: #262626; stroke-width: 0.8; stroke-linejoin: miter; stroke-linecap: square"/>
   </g>
   <g id="patch_5">
    <path d="M 117 384.48 
L 842.4 384.48 
" style="fill: none; stroke: #262626; stroke-width: 0.8; stroke-linejoin: miter; stroke-linecap: square"/>
   </g>
   <g id="patch_6">
    <path d="M 117 51.84 
L 842.4 51.84 
" style="fill: none; stroke: #262626; stroke-width: 0.8; stroke-linejoin: miter; stroke-linecap: square"/>
   </g>
   <g id="text_17">
    <!-- Each id average survival turns: 100000 turns for 600 people kill simulation -->
    <g style="fill: #262626" transform="translate(268.457812 45.84)scale(0.12 -0.12)">
     <defs>
      <path id="MicrosoftYaHei-45" d="M 3228 0 
L 625 0 
L 625 4841 
L 3119 4841 
L 3119 4284 
L 1250 4284 
L 1250 2734 
L 2981 2734 
L 2981 2181 
L 1250 2181 
L 1250 553 
L 3228 553 
L 3228 0 
z
" transform="scale(0.015625)"/>
      <path id="MicrosoftYaHei-61" d="M 628 3216 
Q 1144 3538 1819 3538 
Q 3069 3538 3069 2225 
L 3069 0 
L 2463 0 
L 2463 534 
L 2447 534 
Q 2088 -81 1388 -81 
Q 884 -81 587 191 
Q 291 463 291 925 
Q 291 1894 1438 2053 
L 2463 2197 
Q 2463 3044 1763 3044 
Q 1141 3044 628 2625 
L 628 3216 
z
M 1653 1625 
Q 1228 1569 1067 1412 
Q 906 1256 906 975 
Q 906 728 1081 572 
Q 1256 416 1544 416 
Q 1944 416 2203 697 
Q 2463 978 2463 1403 
L 2463 1734 
L 1653 1625 
z
" transform="scale(0.015625)"/>
      <path id="MicrosoftYaHei-63" d="M 2934 156 
Q 2538 -81 1978 -81 
Q 1228 -81 772 400 
Q 316 881 316 1647 
Q 316 2497 808 3017 
Q 1300 3538 2125 3538 
Q 2600 3538 2938 3369 
L 2938 2763 
Q 2572 3031 2125 3031 
Q 1600 3031 1270 2667 
Q 941 2303 941 1697 
Q 941 1100 1252 762 
Q 1563 425 2091 425 
Q 2538 425 2934 719 
L 2934 156 
z
" transform="scale(0.015625)"/>
      <path id="MicrosoftYaHei-68" d="M 3466 0 
L 2856 0 
L 2856 1988 
Q 2856 3031 2081 3031 
Q 1684 3031 1421 2726 
Q 1159 2422 1159 1959 
L 1159 0 
L 547 0 
L 547 5116 
L 1159 5116 
L 1159 2888 
L 1172 2888 
Q 1569 3538 2300 3538 
Q 3466 3538 3466 2128 
L 3466 0 
z
" transform="scale(0.015625)"/>
      <path id="MicrosoftYaHei-20" transform="scale(0.015625)"/>
      <path id="MicrosoftYaHei-76" d="M 3331 3456 
L 1963 0 
L 1344 0 
L 44 3456 
L 713 3456 
L 1556 988 
Q 1659 691 1678 491 
L 1694 491 
Q 1725 753 1803 975 
L 2688 3456 
L 3331 3456 
z
" transform="scale(0.015625)"/>
      <path id="MicrosoftYaHei-65" d="M 3363 1572 
L 944 1572 
Q 959 1019 1246 717 
Q 1534 416 2050 416 
Q 2631 416 3116 788 
L 3116 241 
Q 2659 -81 1906 -81 
Q 1156 -81 736 394 
Q 316 869 316 1713 
Q 316 2506 777 3022 
Q 1238 3538 1922 3538 
Q 2600 3538 2981 3102 
Q 3363 2666 3363 1881 
L 3363 1572 
z
M 2750 2063 
Q 2747 2531 2528 2787 
Q 2309 3044 1913 3044 
Q 1547 3044 1280 2772 
Q 1013 2500 944 2063 
L 2750 2063 
z
" transform="scale(0.015625)"/>
      <path id="MicrosoftYaHei-72" d="M 2400 2850 
Q 2247 2959 1978 2959 
Q 1622 2959 1390 2626 
Q 1159 2294 1159 1750 
L 1159 0 
L 547 0 
L 547 3456 
L 1159 3456 
L 1159 2753 
L 1172 2753 
Q 1434 3516 2078 3516 
Q 2288 3516 2400 3469 
L 2400 2850 
z
" transform="scale(0.015625)"/>
      <path id="MicrosoftYaHei-67" d="M 3547 291 
Q 3547 -1628 1684 -1628 
Q 1041 -1628 566 -1388 
L 566 -797 
Q 1144 -1119 1675 -1119 
Q 2934 -1119 2934 206 
L 2934 572 
L 2922 572 
Q 2528 -81 1747 -81 
Q 1097 -81 706 384 
Q 316 850 316 1619 
Q 316 2503 747 3020 
Q 1178 3538 1897 3538 
Q 2588 3538 2922 2988 
L 2934 2988 
L 2934 3456 
L 3547 3456 
L 3547 291 
z
M 2934 2056 
Q 2938 2456 2666 2743 
Q 2394 3031 1997 3031 
Q 1497 3031 1219 2664 
Q 941 2297 941 1656 
Q 941 1106 1209 765 
Q 1478 425 1922 425 
Q 2369 425 2653 750 
Q 2938 1075 2934 1575 
L 2934 2056 
z
" transform="scale(0.015625)"/>
      <path id="MicrosoftYaHei-73" d="M 353 747 
Q 816 413 1350 413 
Q 2066 413 2066 881 
Q 2066 1081 1909 1211 
Q 1753 1341 1275 1519 
Q 700 1750 528 1976 
Q 356 2203 356 2525 
Q 356 2984 745 3261 
Q 1134 3538 1703 3538 
Q 2144 3538 2522 3384 
L 2522 2794 
Q 2134 3044 1644 3044 
Q 1350 3044 1165 2916 
Q 981 2788 981 2578 
Q 981 2372 1114 2256 
Q 1247 2141 1703 1959 
Q 2281 1744 2484 1512 
Q 2688 1281 2688 941 
Q 2688 466 2298 192 
Q 1909 -81 1291 -81 
Q 753 -81 353 122 
L 353 747 
z
" transform="scale(0.015625)"/>
      <path id="MicrosoftYaHei-75" d="M 3400 0 
L 2784 0 
L 2784 544 
L 2772 544 
Q 2425 -81 1706 -81 
Q 478 -81 478 1388 
L 478 3456 
L 1084 3456 
L 1084 1478 
Q 1084 425 1891 425 
Q 2291 425 2537 720 
Q 2784 1016 2784 1466 
L 2784 3456 
L 3400 3456 
L 3400 0 
z
" transform="scale(0.015625)"/>
      <path id="MicrosoftYaHei-6c" d="M 544 0 
L 544 5116 
L 1156 5116 
L 1156 0 
L 544 0 
z
" transform="scale(0.015625)"/>
      <path id="MicrosoftYaHei-74" d="M 2206 34 
Q 2006 -75 1666 -75 
Q 738 -75 738 953 
L 738 2950 
L 144 2950 
L 144 3456 
L 738 3456 
L 738 4288 
L 1347 4481 
L 1347 3456 
L 2206 3456 
L 2206 2950 
L 1347 2950 
L 1347 1063 
Q 1347 722 1462 575 
Q 1578 428 1847 428 
Q 2053 428 2206 544 
L 2206 34 
z
" transform="scale(0.015625)"/>
      <path id="MicrosoftYaHei-6e" d="M 3469 0 
L 2859 0 
L 2859 1966 
Q 2859 3031 2081 3031 
Q 1678 3031 1418 2731 
Q 1159 2431 1159 1972 
L 1159 0 
L 547 0 
L 547 3456 
L 1159 3456 
L 1159 2884 
L 1172 2884 
Q 1563 3538 2306 3538 
Q 2875 3538 3172 3173 
Q 3469 2809 3469 2113 
L 3469 0 
z
" transform="scale(0.015625)"/>
      <path id="MicrosoftYaHei-3a" d="M 372 3134 
Q 372 3303 490 3415 
Q 609 3528 775 3528 
Q 944 3528 1062 3414 
Q 1181 3300 1181 3134 
Q 1181 2969 1065 2853 
Q 950 2738 772 2738 
Q 603 2738 487 2853 
Q 372 2969 372 3134 
z
M 372 322 
Q 372 491 487 606 
Q 603 722 775 722 
Q 950 722 1065 605 
Q 1181 488 1181 322 
Q 1181 159 1065 42 
Q 950 -75 772 -75 
Q 600 -75 486 42 
Q 372 159 372 322 
z
" transform="scale(0.015625)"/>
      <path id="MicrosoftYaHei-66" d="M 2319 4594 
Q 2147 4684 1947 4684 
Q 1372 4684 1372 3972 
L 1372 3456 
L 2181 3456 
L 2181 2950 
L 1372 2950 
L 1372 0 
L 766 0 
L 766 2950 
L 175 2950 
L 175 3456 
L 766 3456 
L 766 4000 
Q 766 4556 1086 4873 
Q 1406 5191 1900 5191 
Q 2163 5191 2319 5131 
L 2319 4594 
z
" transform="scale(0.015625)"/>
      <path id="MicrosoftYaHei-6f" d="M 316 1691 
Q 316 2547 794 3042 
Q 1272 3538 2091 3538 
Q 2869 3538 3311 3061 
Q 3753 2584 3753 1744 
Q 3753 925 3281 422 
Q 2809 -81 2016 -81 
Q 1241 -81 778 406 
Q 316 894 316 1691 
z
M 941 1709 
Q 941 1113 1242 769 
Q 1544 425 2053 425 
Q 2578 425 2853 761 
Q 3128 1097 3128 1725 
Q 3128 2356 2853 2693 
Q 2578 3031 2053 3031 
Q 1538 3031 1239 2678 
Q 941 2325 941 1709 
z
" transform="scale(0.015625)"/>
      <path id="MicrosoftYaHei-70" d="M 1159 488 
L 1159 -1591 
L 547 -1591 
L 547 3456 
L 1159 3456 
L 1159 2859 
L 1172 2859 
Q 1578 3538 2359 3538 
Q 3022 3538 3398 3073 
Q 3775 2609 3775 1828 
Q 3775 966 3348 442 
Q 2922 -81 2200 -81 
Q 1534 -81 1172 488 
L 1159 488 
z
M 1156 1425 
Q 1156 1003 1428 714 
Q 1700 425 2109 425 
Q 2597 425 2872 800 
Q 3147 1175 3147 1838 
Q 3147 2397 2890 2714 
Q 2634 3031 2191 3031 
Q 1738 3031 1447 2709 
Q 1156 2388 1156 1884 
L 1156 1425 
z
" transform="scale(0.015625)"/>
      <path id="MicrosoftYaHei-6b" d="M 3484 0 
L 2650 0 
L 1172 1666 
L 1159 1666 
L 1159 0 
L 547 0 
L 547 5116 
L 1159 5116 
L 1159 1872 
L 1172 1872 
L 2575 3456 
L 3363 3456 
L 1800 1794 
L 3484 0 
z
" transform="scale(0.015625)"/>
      <path id="MicrosoftYaHei-6d" d="M 5522 0 
L 4909 0 
L 4909 1984 
Q 4909 2547 4734 2789 
Q 4559 3031 4159 3031 
Q 3822 3031 3581 2715 
Q 3341 2400 3341 1969 
L 3341 0 
L 2728 0 
L 2728 2047 
Q 2728 3031 1969 3031 
Q 1619 3031 1389 2731 
Q 1159 2431 1159 1966 
L 1159 0 
L 547 0 
L 547 3456 
L 1159 3456 
L 1159 2909 
L 1172 2909 
Q 1541 3538 2250 3538 
Q 2597 3538 2862 3347 
Q 3128 3156 3231 2831 
Q 3616 3538 4381 3538 
Q 5522 3538 5522 2131 
L 5522 0 
z
" transform="scale(0.015625)"/>
     </defs>
     <use xlink:href="#MicrosoftYaHei-45"/>
     <use xlink:href="#MicrosoftYaHei-61" x="54.980469"/>
     <use xlink:href="#MicrosoftYaHei-63" x="110.253906"/>
     <use xlink:href="#MicrosoftYaHei-68" x="160.400391"/>
     <use xlink:href="#MicrosoftYaHei-20" x="221.972656"/>
     <use xlink:href="#MicrosoftYaHei-69" x="251.5625"/>
     <use xlink:href="#MicrosoftYaHei-64" x="278.173828"/>
     <use xlink:href="#MicrosoftYaHei-20" x="342.138672"/>
     <use xlink:href="#MicrosoftYaHei-61" x="371.728516"/>
     <use xlink:href="#MicrosoftYaHei-76" x="427.001953"/>
     <use xlink:href="#MicrosoftYaHei-65" x="478.867188"/>
     <use xlink:href="#MicrosoftYaHei-72" x="535.605469"/>
     <use xlink:href="#MicrosoftYaHei-61" x="573.789062"/>
     <use xlink:href="#MicrosoftYaHei-67" x="629.0625"/>
     <use xlink:href="#MicrosoftYaHei-65" x="693.027344"/>
     <use xlink:href="#MicrosoftYaHei-20" x="749.765625"/>
     <use xlink:href="#MicrosoftYaHei-73" x="779.355469"/>
     <use xlink:href="#MicrosoftYaHei-75" x="825.644531"/>
     <use xlink:href="#MicrosoftYaHei-72" x="887.265625"/>
     <use xlink:href="#MicrosoftYaHei-76" x="929.824219"/>
     <use xlink:href="#MicrosoftYaHei-69" x="982.314453"/>
     <use xlink:href="#MicrosoftYaHei-76" x="1008.925781"/>
     <use xlink:href="#MicrosoftYaHei-61" x="1059.416016"/>
     <use xlink:href="#MicrosoftYaHei-6c" x="1114.689453"/>
     <use xlink:href="#MicrosoftYaHei-20" x="1141.300781"/>
     <use xlink:href="#MicrosoftYaHei-74" x="1170.890625"/>
     <use xlink:href="#MicrosoftYaHei-75" x="1208.146484"/>
     <use xlink:href="#MicrosoftYaHei-72" x="1269.767578"/>
     <use xlink:href="#MicrosoftYaHei-6e" x="1307.701172"/>
     <use xlink:href="#MicrosoftYaHei-73" x="1369.322266"/>
     <use xlink:href="#MicrosoftYaHei-3a" x="1415.611328"/>
     <use xlink:href="#MicrosoftYaHei-20" x="1439.683594"/>
     <use xlink:href="#MicrosoftYaHei-31" x="1469.273438"/>
     <use xlink:href="#MicrosoftYaHei-30" x="1527.916016"/>
     <use xlink:href="#MicrosoftYaHei-30" x="1586.558594"/>
     <use xlink:href="#MicrosoftYaHei-30" x="1645.201172"/>
     <use xlink:href="#MicrosoftYaHei-30" x="1703.84375"/>
     <use xlink:href="#MicrosoftYaHei-30" x="1762.486328"/>
     <use xlink:href="#MicrosoftYaHei-20" x="1821.128906"/>
     <use xlink:href="#MicrosoftYaHei-74" x="1850.71875"/>
     <use xlink:href="#MicrosoftYaHei-75" x="1887.974609"/>
     <use xlink:href="#MicrosoftYaHei-72" x="1949.595703"/>
     <use xlink:href="#MicrosoftYaHei-6e" x="1987.529297"/>
     <use xlink:href="#MicrosoftYaHei-73" x="2049.150391"/>
     <use xlink:href="#MicrosoftYaHei-20" x="2095.439453"/>
     <use xlink:href="#MicrosoftYaHei-66" x="2125.029297"/>
     <use xlink:href="#MicrosoftYaHei-6f" x="2159.697266"/>
     <use xlink:href="#MicrosoftYaHei-72" x="2223.271484"/>
     <use xlink:href="#MicrosoftYaHei-20" x="2261.455078"/>
     <use xlink:href="#MicrosoftYaHei-36" x="2291.044922"/>
     <use xlink:href="#MicrosoftYaHei-30" x="2349.6875"/>
     <use xlink:href="#MicrosoftYaHei-30" x="2408.330078"/>
     <use xlink:href="#MicrosoftYaHei-20" x="2466.972656"/>
     <use xlink:href="#MicrosoftYaHei-70" x="2496.5625"/>
     <use xlink:href="#MicrosoftYaHei-65" x="2560.429688"/>
     <use xlink:href="#MicrosoftYaHei-6f" x="2617.167969"/>
     <use xlink:href="#MicrosoftYaHei-70" x="2680.742188"/>
     <use xlink:href="#MicrosoftYaHei-6c" x="2744.609375"/>
     <use xlink:href="#MicrosoftYaHei-65" x="2771.220703"/>
     <use xlink:href="#MicrosoftYaHei-20" x="2827.958984"/>
     <use xlink:href="#MicrosoftYaHei-6b" x="2857.548828"/>
     <use xlink:href="#MicrosoftYaHei-69" x="2911.992188"/>
     <use xlink:href="#MicrosoftYaHei-6c" x="2938.603516"/>
     <use xlink:href="#MicrosoftYaHei-6c" x="2965.214844"/>
     <use xlink:href="#MicrosoftYaHei-20" x="2991.826172"/>
     <use xlink:href="#MicrosoftYaHei-73" x="3021.416016"/>
     <use xlink:href="#MicrosoftYaHei-69" x="3067.705078"/>
     <use xlink:href="#MicrosoftYaHei-6d" x="3094.316406"/>
     <use xlink:href="#MicrosoftYaHei-75" x="3188.017578"/>
     <use xlink:href="#MicrosoftYaHei-6c" x="3249.638672"/>
     <use xlink:href="#MicrosoftYaHei-61" x="3276.25"/>
     <use xlink:href="#MicrosoftYaHei-74" x="3331.523438"/>
     <use xlink:href="#MicrosoftYaHei-69" x="3368.779297"/>
     <use xlink:href="#MicrosoftYaHei-6f" x="3395.390625"/>
     <use xlink:href="#MicrosoftYaHei-6e" x="3458.964844"/>
    </g>
   </g>
   <g id="legend_1">
    <g id="patch_7">
     <path d="M 710.446875 75.3775 
L 835.4 75.3775 
Q 837.4 75.3775 837.4 73.3775 
L 837.4 58.84 
Q 837.4 56.84 835.4 56.84 
L 710.446875 56.84 
Q 708.446875 56.84 708.446875 58.84 
L 708.446875 73.3775 
Q 708.446875 75.3775 710.446875 75.3775 
z
" style="fill: #ffffff; opacity: 0.8; stroke: #cccccc; stroke-linejoin: miter"/>
    </g>
    <g id="line2d_2">
     <path d="M 712.446875 65.33375 
L 722.446875 65.33375 
L 732.446875 65.33375 
" style="fill: none; stroke: #1f77b4; stroke-width: 1.5; stroke-linecap: round"/>
    </g>
    <g id="text_18">
     <!-- average_alive_turns -->
     <g style="fill: #262626" transform="translate(740.446875 68.83375)scale(0.1 -0.1)">
      <defs>
       <path id="MicrosoftYaHei-5f" d="M 2869 -1003 
L 0 -1003 
L 0 -600 
L 2869 -600 
L 2869 -1003 
z
" transform="scale(0.015625)"/>
      </defs>
      <use xlink:href="#MicrosoftYaHei-61"/>
      <use xlink:href="#MicrosoftYaHei-76" x="55.273438"/>
      <use xlink:href="#MicrosoftYaHei-65" x="107.138672"/>
      <use xlink:href="#MicrosoftYaHei-72" x="163.876953"/>
      <use xlink:href="#MicrosoftYaHei-61" x="202.060547"/>
      <use xlink:href="#MicrosoftYaHei-67" x="257.333984"/>
      <use xlink:href="#MicrosoftYaHei-65" x="321.298828"/>
      <use xlink:href="#MicrosoftYaHei-5f" x="378.037109"/>
      <use xlink:href="#MicrosoftYaHei-61" x="422.861328"/>
      <use xlink:href="#MicrosoftYaHei-6c" x="478.134766"/>
      <use xlink:href="#MicrosoftYaHei-69" x="504.746094"/>
      <use xlink:href="#MicrosoftYaHei-76" x="531.357422"/>
      <use xlink:href="#MicrosoftYaHei-65" x="583.222656"/>
      <use xlink:href="#MicrosoftYaHei-5f" x="639.960938"/>
      <use xlink:href="#MicrosoftYaHei-74" x="684.785156"/>
      <use xlink:href="#MicrosoftYaHei-75" x="722.041016"/>
      <use xlink:href="#MicrosoftYaHei-72" x="783.662109"/>
      <use xlink:href="#MicrosoftYaHei-6e" x="821.595703"/>
      <use xlink:href="#MicrosoftYaHei-73" x="883.216797"/>
     </g>
    </g>
   </g>
  </g>
 </g>
 <defs>
  <clipPath id="p37b1ae5f15">
   <rect x="117" y="51.84" width="725.4" height="332.64"/>
  </clipPath>
 </defs>
</svg>
