<?xml version="1.0" encoding="utf-8" standalone="no"?>
<!DOCTYPE svg PUBLIC "-//W3C//DTD SVG 1.1//EN"
  "http://www.w3.org/Graphics/SVG/1.1/DTD/svg11.dtd">
<svg xmlns:xlink="http://www.w3.org/1999/xlink" width="936pt" height="432pt" viewBox="0 0 936 432" xmlns="http://www.w3.org/2000/svg" version="1.1">
 <metadata>
  <rdf:RDF xmlns:dc="http://purl.org/dc/elements/1.1/" xmlns:cc="http://creativecommons.org/ns#" xmlns:rdf="http://www.w3.org/1999/02/22-rdf-syntax-ns#">
   <cc:Work>
    <dc:type rdf:resource="http://purl.org/dc/dcmitype/StillImage"/>
    <dc:date>2024-08-18T23:16:24.787195</dc:date>
    <dc:format>image/svg+xml</dc:format>
    <dc:creator>
     <cc:Agent>
      <dc:title>Matplotlib v3.5.1, https://matplotlib.org/</dc:title>
     </cc:Agent>
    </dc:creator>
   </cc:Work>
  </rdf:RDF>
 </metadata>
 <defs>
  <style type="text/css">*{stroke-linejoin: round; stroke-linecap: butt}</style>
 </defs>
 <g id="figure_1">
  <g id="patch_1">
   <path d="M 0 432 
L 936 432 
L 936 0 
L 0 0 
z
" style="fill: #ffffff"/>
  </g>
  <g id="axes_1">
   <g id="patch_2">
    <path d="M 117 384.48 
L 842.4 384.48 
L 842.4 51.84 
L 117 51.84 
z
" style="fill: #ffffff"/>
   </g>
   <g id="matplotlib.axis_1">
    <g id="xtick_1">
     <g id="text_1">
      <!-- 0 -->
      <g style="fill: #262626" transform="translate(145.93977 399.47375)scale(0.1 -0.1)">
       <defs>
        <path id="MicrosoftYaHei-30" d="M 284 2325 
Q 284 3606 709 4264 
Q 1134 4922 1941 4922 
Q 3478 4922 3478 2441 
Q 3478 1216 3045 567 
Q 2613 -81 1831 -81 
Q 1094 -81 689 534 
Q 284 1150 284 2325 
z
M 909 2353 
Q 909 425 1888 425 
Q 2850 425 2850 2384 
Q 2850 4413 1906 4413 
Q 909 4413 909 2353 
z
" transform="scale(0.015625)"/>
       </defs>
       <use xlink:href="#MicrosoftYaHei-30"/>
      </g>
     </g>
    </g>
    <g id="xtick_2">
     <g id="text_2">
      <!-- 100 -->
      <g style="fill: #262626" transform="translate(250.168286 399.47375)scale(0.1 -0.1)">
       <defs>
        <path id="MicrosoftYaHei-31" d="M 3366 0 
L 591 0 
L 591 528 
L 1675 528 
L 1675 4203 
L 563 3881 
L 563 4444 
L 2284 4944 
L 2284 528 
L 3366 528 
L 3366 0 
z
" transform="scale(0.015625)"/>
       </defs>
       <use xlink:href="#MicrosoftYaHei-31"/>
       <use xlink:href="#MicrosoftYaHei-30" x="58.642578"/>
       <use xlink:href="#MicrosoftYaHei-30" x="117.285156"/>
      </g>
     </g>
    </g>
    <g id="xtick_3">
     <g id="text_3">
      <!-- 200 -->
      <g style="fill: #262626" transform="translate(360.260865 399.47375)scale(0.1 -0.1)">
       <defs>
        <path id="MicrosoftYaHei-32" d="M 3275 0 
L 331 0 
L 331 531 
L 1738 1934 
Q 2319 2516 2516 2855 
Q 2713 3194 2713 3556 
Q 2713 3969 2481 4189 
Q 2250 4409 1813 4409 
Q 1166 4409 578 3859 
L 578 4481 
Q 1150 4922 1909 4922 
Q 2563 4922 2941 4569 
Q 3319 4216 3319 3619 
Q 3319 3169 3076 2736 
Q 2834 2303 2159 1634 
L 1056 556 
L 1056 544 
L 3275 544 
L 3275 0 
z
" transform="scale(0.015625)"/>
       </defs>
       <use xlink:href="#MicrosoftYaHei-32"/>
       <use xlink:href="#MicrosoftYaHei-30" x="58.642578"/>
       <use xlink:href="#MicrosoftYaHei-30" x="117.285156"/>
      </g>
     </g>
    </g>
    <g id="xtick_4">
     <g id="text_4">
      <!-- 300 -->
      <g style="fill: #262626" transform="translate(470.353443 399.47375)scale(0.1 -0.1)">
       <defs>
        <path id="MicrosoftYaHei-33" d="M 447 809 
Q 944 425 1569 425 
Q 2069 425 2361 670 
Q 2653 916 2653 1328 
Q 2653 2247 1338 2247 
L 934 2247 
L 934 2753 
L 1319 2753 
Q 2484 2753 2484 3616 
Q 2484 4413 1594 4413 
Q 1084 4413 634 4069 
L 634 4647 
Q 1109 4922 1744 4922 
Q 2363 4922 2738 4598 
Q 3113 4275 3113 3759 
Q 3113 2809 2144 2538 
L 2144 2525 
Q 2669 2469 2973 2155 
Q 3278 1841 3278 1372 
Q 3278 719 2808 319 
Q 2338 -81 1556 -81 
Q 869 -81 447 175 
L 447 809 
z
" transform="scale(0.015625)"/>
       </defs>
       <use xlink:href="#MicrosoftYaHei-33"/>
       <use xlink:href="#MicrosoftYaHei-30" x="58.642578"/>
       <use xlink:href="#MicrosoftYaHei-30" x="117.285156"/>
      </g>
     </g>
    </g>
    <g id="xtick_5">
     <g id="text_5">
      <!-- 400 -->
      <g style="fill: #262626" transform="translate(580.446022 399.47375)scale(0.1 -0.1)">
       <defs>
        <path id="MicrosoftYaHei-34" d="M 3525 1256 
L 2906 1256 
L 2906 0 
L 2313 0 
L 2313 1256 
L 56 1256 
L 56 1653 
L 2197 4841 
L 2906 4841 
L 2906 1741 
L 3525 1741 
L 3525 1256 
z
M 2313 1741 
L 2313 3769 
Q 2313 3984 2325 4266 
L 2313 4266 
Q 2269 4147 2128 3894 
L 688 1741 
L 2313 1741 
z
" transform="scale(0.015625)"/>
       </defs>
       <use xlink:href="#MicrosoftYaHei-34"/>
       <use xlink:href="#MicrosoftYaHei-30" x="58.642578"/>
       <use xlink:href="#MicrosoftYaHei-30" x="117.285156"/>
      </g>
     </g>
    </g>
    <g id="xtick_6">
     <g id="text_6">
      <!-- 500 -->
      <g style="fill: #262626" transform="translate(690.5386 399.47375)scale(0.1 -0.1)">
       <defs>
        <path id="MicrosoftYaHei-35" d="M 553 744 
Q 1041 425 1569 425 
Q 2069 425 2375 704 
Q 2681 984 2681 1447 
Q 2681 1913 2370 2169 
Q 2059 2425 1469 2425 
Q 1184 2425 703 2381 
L 703 4841 
L 3084 4841 
L 3084 4300 
L 1272 4300 
L 1272 2931 
Q 1544 2947 1681 2947 
Q 2447 2947 2875 2559 
Q 3303 2172 3303 1491 
Q 3303 788 2843 353 
Q 2384 -81 1575 -81 
Q 897 -81 553 119 
L 553 744 
z
" transform="scale(0.015625)"/>
       </defs>
       <use xlink:href="#MicrosoftYaHei-35"/>
       <use xlink:href="#MicrosoftYaHei-30" x="58.642578"/>
       <use xlink:href="#MicrosoftYaHei-30" x="117.285156"/>
      </g>
     </g>
    </g>
    <g id="xtick_7">
     <g id="text_7">
      <!-- 600 -->
      <g style="fill: #262626" transform="translate(800.631179 399.47375)scale(0.1 -0.1)">
       <defs>
        <path id="MicrosoftYaHei-36" d="M 3181 4219 
Q 2803 4413 2391 4413 
Q 1763 4413 1381 3866 
Q 1000 3319 994 2372 
L 1009 2372 
Q 1353 3038 2106 3038 
Q 2734 3038 3109 2628 
Q 3484 2219 3484 1541 
Q 3484 831 3051 375 
Q 2619 -81 1947 -81 
Q 1209 -81 789 495 
Q 369 1072 369 2131 
Q 369 3413 920 4167 
Q 1472 4922 2372 4922 
Q 2888 4922 3181 4781 
L 3181 4219 
z
M 1031 1584 
Q 1031 1106 1286 765 
Q 1541 425 1963 425 
Q 2363 425 2613 719 
Q 2863 1013 2863 1475 
Q 2863 1975 2627 2253 
Q 2391 2531 1956 2531 
Q 1544 2531 1287 2250 
Q 1031 1969 1031 1584 
z
" transform="scale(0.015625)"/>
       </defs>
       <use xlink:href="#MicrosoftYaHei-36"/>
       <use xlink:href="#MicrosoftYaHei-30" x="58.642578"/>
       <use xlink:href="#MicrosoftYaHei-30" x="117.285156"/>
      </g>
     </g>
    </g>
    <g id="text_8">
     <!-- id -->
     <g style="fill: #262626" transform="translate(475.171094 413.953438)scale(0.1 -0.1)">
      <defs>
       <path id="MicrosoftYaHei-69" d="M 472 4675 
Q 472 4838 583 4948 
Q 694 5059 856 5059 
Q 1022 5059 1136 4950 
Q 1250 4841 1250 4675 
Q 1250 4513 1136 4405 
Q 1022 4297 856 4297 
Q 691 4297 581 4405 
Q 472 4513 472 4675 
z
M 544 0 
L 544 3456 
L 1156 3456 
L 1156 0 
L 544 0 
z
" transform="scale(0.015625)"/>
       <path id="MicrosoftYaHei-64" d="M 3547 0 
L 2934 0 
L 2934 575 
L 2922 575 
Q 2544 -81 1747 -81 
Q 1091 -81 703 386 
Q 316 853 316 1647 
Q 316 2503 753 3020 
Q 1191 3538 1897 3538 
Q 2603 3538 2922 2988 
L 2934 2988 
L 2934 5116 
L 3547 5116 
L 3547 0 
z
M 2938 2056 
Q 2938 2472 2664 2751 
Q 2391 3031 1991 3031 
Q 1503 3031 1222 2667 
Q 941 2303 941 1675 
Q 941 1097 1211 761 
Q 1481 425 1931 425 
Q 2375 425 2656 754 
Q 2938 1084 2938 1575 
L 2938 2056 
z
" transform="scale(0.015625)"/>
      </defs>
      <use xlink:href="#MicrosoftYaHei-69"/>
      <use xlink:href="#MicrosoftYaHei-64" x="26.611328"/>
     </g>
    </g>
   </g>
   <g id="matplotlib.axis_2">
    <g id="ytick_1">
     <g id="text_9">
      <!-- 0 -->
      <g style="fill: #262626" transform="translate(104.135937 373.356875)scale(0.1 -0.1)">
       <use xlink:href="#MicrosoftYaHei-30"/>
      </g>
     </g>
    </g>
    <g id="ytick_2">
     <g id="text_10">
      <!-- 50 -->
      <g style="fill: #262626" transform="translate(98.271875 334.98124)scale(0.1 -0.1)">
       <use xlink:href="#MicrosoftYaHei-35"/>
       <use xlink:href="#MicrosoftYaHei-30" x="58.642578"/>
      </g>
     </g>
    </g>
    <g id="ytick_3">
     <g id="text_11">
      <!-- 100 -->
      <g style="fill: #262626" transform="translate(92.407813 296.605606)scale(0.1 -0.1)">
       <use xlink:href="#MicrosoftYaHei-31"/>
       <use xlink:href="#MicrosoftYaHei-30" x="58.642578"/>
       <use xlink:href="#MicrosoftYaHei-30" x="117.285156"/>
      </g>
     </g>
    </g>
    <g id="ytick_4">
     <g id="text_12">
      <!-- 150 -->
      <g style="fill: #262626" transform="translate(92.407813 258.229971)scale(0.1 -0.1)">
       <use xlink:href="#MicrosoftYaHei-31"/>
       <use xlink:href="#MicrosoftYaHei-35" x="58.642578"/>
       <use xlink:href="#MicrosoftYaHei-30" x="117.285156"/>
      </g>
     </g>
    </g>
    <g id="ytick_5">
     <g id="text_13">
      <!-- 200 -->
      <g style="fill: #262626" transform="translate(92.407813 219.854337)scale(0.1 -0.1)">
       <use xlink:href="#MicrosoftYaHei-32"/>
       <use xlink:href="#MicrosoftYaHei-30" x="58.642578"/>
       <use xlink:href="#MicrosoftYaHei-30" x="117.285156"/>
      </g>
     </g>
    </g>
    <g id="ytick_6">
     <g id="text_14">
      <!-- 250 -->
      <g style="fill: #262626" transform="translate(92.407813 181.478702)scale(0.1 -0.1)">
       <use xlink:href="#MicrosoftYaHei-32"/>
       <use xlink:href="#MicrosoftYaHei-35" x="58.642578"/>
       <use xlink:href="#MicrosoftYaHei-30" x="117.285156"/>
      </g>
     </g>
    </g>
    <g id="ytick_7">
     <g id="text_15">
      <!-- 300 -->
      <g style="fill: #262626" transform="translate(92.407813 143.103068)scale(0.1 -0.1)">
       <use xlink:href="#MicrosoftYaHei-33"/>
       <use xlink:href="#MicrosoftYaHei-30" x="58.642578"/>
       <use xlink:href="#MicrosoftYaHei-30" x="117.285156"/>
      </g>
     </g>
    </g>
    <g id="ytick_8">
     <g id="text_16">
      <!-- 350 -->
      <g style="fill: #262626" transform="translate(92.407813 104.727433)scale(0.1 -0.1)">
       <use xlink:href="#MicrosoftYaHei-33"/>
       <use xlink:href="#MicrosoftYaHei-35" x="58.642578"/>
       <use xlink:href="#MicrosoftYaHei-30" x="117.285156"/>
      </g>
     </g>
    </g>
    <g id="ytick_9">
     <g id="text_17">
      <!-- 400 -->
      <g style="fill: #262626" transform="translate(92.407813 66.351799)scale(0.1 -0.1)">
       <use xlink:href="#MicrosoftYaHei-34"/>
       <use xlink:href="#MicrosoftYaHei-30" x="58.642578"/>
       <use xlink:href="#MicrosoftYaHei-30" x="117.285156"/>
      </g>
     </g>
    </g>
   </g>
   <g id="line2d_1">
    <path d="M 149.972727 369.36 
L 151.073653 368.592487 
L 152.174579 369.36 
L 153.275505 368.592487 
L 154.37643 366.289949 
L 155.477356 367.824975 
L 156.578282 367.057462 
L 157.679208 362.452386 
L 158.780134 365.522437 
L 159.881059 365.522437 
L 160.981985 369.36 
L 162.082911 367.057462 
L 163.183837 361.684873 
L 164.284762 366.289949 
L 165.385688 363.219898 
L 166.486614 363.219898 
L 167.58754 355.544772 
L 168.688466 363.987411 
L 169.789391 364.754924 
L 170.890317 367.057462 
L 171.991243 357.84731 
L 173.092169 350.939695 
L 174.193095 357.079797 
L 175.29402 357.84731 
L 176.394946 354.777259 
L 177.495872 358.614822 
L 179.697723 360.149848 
L 180.798649 357.079797 
L 181.899575 359.382335 
L 183.000501 356.312284 
L 184.101427 347.869645 
L 185.202352 355.544772 
L 186.303278 354.009746 
L 187.404204 359.382335 
L 188.50513 357.079797 
L 189.606056 356.312284 
L 190.706981 354.009746 
L 191.807907 353.242234 
L 192.908833 348.637157 
L 194.009759 354.009746 
L 195.110684 355.544772 
L 196.21161 353.242234 
L 199.514388 348.637157 
L 200.615313 354.777259 
L 201.716239 350.939695 
L 202.817165 350.172183 
L 203.918091 351.707208 
L 205.019017 349.40467 
L 206.119942 346.334619 
L 207.220868 347.102132 
L 208.321794 344.032081 
L 209.42272 344.032081 
L 210.523645 347.869645 
L 211.624571 350.172183 
L 212.725497 344.032081 
L 213.826423 333.286904 
L 214.927349 340.194518 
L 216.028274 345.567107 
L 217.1292 340.194518 
L 218.230126 344.799594 
L 219.331052 333.286904 
L 220.431978 338.659492 
L 221.532903 340.96203 
L 222.633829 338.659492 
L 223.734755 340.194518 
L 224.835681 338.659492 
L 225.936606 338.659492 
L 227.037532 340.96203 
L 228.138458 341.729543 
L 229.239384 344.032081 
L 230.34031 339.427005 
L 231.441235 341.729543 
L 232.542161 331.751878 
L 233.643087 341.729543 
L 234.744013 336.356954 
L 235.844939 334.821929 
L 236.945864 331.751878 
L 238.04679 326.379289 
L 239.147716 330.216853 
L 240.248642 335.589442 
L 241.349567 338.659492 
L 242.450493 330.984365 
L 243.551419 325.611777 
L 244.652345 347.102132 
L 245.753271 332.519391 
L 246.854196 335.589442 
L 247.955122 327.914315 
L 249.056048 328.681827 
L 250.156974 324.844264 
L 251.2579 322.541726 
L 252.358825 319.471675 
L 253.459751 334.821929 
L 254.560677 334.054416 
L 255.661603 324.844264 
L 257.863454 327.914315 
L 258.96438 331.751878 
L 260.065306 330.984365 
L 261.166232 325.611777 
L 262.267157 323.309239 
L 263.368083 323.309239 
L 264.469009 330.216853 
L 265.569935 327.914315 
L 266.670861 324.844264 
L 267.771786 324.844264 
L 268.872712 331.751878 
L 269.973638 324.844264 
L 271.074564 321.774213 
L 272.175489 329.44934 
L 273.276415 330.216853 
L 274.377341 323.309239 
L 275.478267 335.589442 
L 276.579193 315.634112 
L 277.680118 320.239188 
L 278.781044 321.774213 
L 279.88197 318.704162 
L 280.982896 323.309239 
L 282.083822 314.099086 
L 283.184747 313.331574 
L 285.386599 316.401624 
L 286.487525 323.309239 
L 287.58845 310.261523 
L 288.689376 310.261523 
L 289.790302 320.239188 
L 290.891228 317.93665 
L 291.992154 314.099086 
L 293.093079 324.076751 
L 294.194005 306.423959 
L 295.294931 304.121421 
L 296.395857 324.076751 
L 297.496783 314.866599 
L 298.597708 311.029036 
L 299.698634 309.49401 
L 300.79956 293.376244 
L 301.900486 315.634112 
L 303.001411 291.841218 
L 304.102337 306.423959 
L 305.203263 298.748832 
L 306.304189 314.099086 
L 307.405115 310.261523 
L 308.50604 297.213807 
L 309.606966 317.93665 
L 310.707892 314.099086 
L 311.808818 298.748832 
L 312.909744 319.471675 
L 314.010669 308.726497 
L 315.111595 307.191472 
L 316.212521 300.283858 
L 317.313447 314.866599 
L 318.414372 300.283858 
L 319.515298 308.726497 
L 320.616224 290.306193 
L 321.71715 295.678782 
L 322.818076 298.748832 
L 323.919001 314.866599 
L 325.019927 290.306193 
L 326.120853 293.376244 
L 327.221779 291.073706 
L 328.322705 293.376244 
L 329.42363 297.98132 
L 330.524556 301.818883 
L 331.625482 307.191472 
L 332.726408 299.516345 
L 333.827333 300.283858 
L 334.928259 301.818883 
L 336.029185 301.818883 
L 337.130111 293.376244 
L 338.231037 313.331574 
L 339.331962 294.911269 
L 340.432888 301.051371 
L 341.533814 304.888934 
L 342.63474 294.911269 
L 343.735666 300.283858 
L 344.836591 308.726497 
L 345.937517 282.631066 
L 347.038443 292.608731 
L 348.139369 299.516345 
L 349.240294 298.748832 
L 350.34122 278.02599 
L 351.442146 294.911269 
L 352.543072 288.003655 
L 353.643998 294.911269 
L 354.744923 285.701117 
L 355.845849 274.955939 
L 356.946775 301.051371 
L 358.047701 286.468629 
L 359.148626 288.771168 
L 360.249552 271.885888 
L 361.350478 297.213807 
L 362.451404 294.143756 
L 363.55233 291.841218 
L 364.653255 286.468629 
L 365.754181 278.02599 
L 366.855107 281.096041 
L 367.956033 285.701117 
L 369.056959 280.328528 
L 370.157884 290.306193 
L 371.25881 296.446294 
L 372.359736 286.468629 
L 373.460662 292.608731 
L 374.561587 283.398579 
L 375.662513 294.143756 
L 376.763439 281.096041 
L 377.864365 287.236142 
L 378.965291 282.631066 
L 380.066216 280.328528 
L 381.167142 280.328528 
L 382.268068 275.723452 
L 383.368994 272.653401 
L 384.46992 258.838173 
L 385.570845 281.863553 
L 386.671771 275.723452 
L 387.772697 282.631066 
L 388.873623 266.513299 
L 389.974548 282.631066 
L 391.075474 261.140711 
L 392.1764 271.118376 
L 393.277326 282.631066 
L 394.378252 274.188426 
L 395.479177 287.236142 
L 396.580103 268.048325 
L 397.681029 263.443249 
L 398.781955 270.350863 
L 399.882881 261.140711 
L 400.983806 282.631066 
L 402.084732 272.653401 
L 403.185658 281.096041 
L 405.387509 260.373198 
L 406.488435 273.420914 
L 407.589361 277.258477 
L 408.690287 278.02599 
L 409.791213 262.675736 
L 410.892138 258.07066 
L 411.993064 274.188426 
L 413.09399 265.745787 
L 414.194916 279.561015 
L 415.295842 268.815838 
L 416.396767 272.653401 
L 417.497693 259.605685 
L 418.598619 261.140711 
L 419.699545 238.882843 
L 420.80047 268.048325 
L 421.901396 258.07066 
L 423.002322 273.420914 
L 424.103248 248.860508 
L 425.204174 254.233096 
L 426.305099 255.000609 
L 427.406025 257.303147 
L 428.506951 256.535635 
L 429.607877 268.048325 
L 430.708803 273.420914 
L 431.809728 264.978274 
L 432.910654 266.513299 
L 434.01158 261.140711 
L 435.112506 269.58335 
L 436.213431 246.55797 
L 437.314357 253.465584 
L 438.415283 257.303147 
L 439.516209 255.768122 
L 440.617135 255.768122 
L 441.71806 252.698071 
L 442.818986 233.510254 
L 443.919912 255.768122 
L 445.020838 271.118376 
L 446.121764 260.373198 
L 447.222689 261.140711 
L 448.323615 251.930558 
L 449.424541 253.465584 
L 450.525467 245.022944 
L 451.626392 248.860508 
L 452.727318 255.768122 
L 453.828244 252.698071 
L 454.92917 232.742741 
L 456.030096 252.698071 
L 457.131021 251.163046 
L 458.231947 258.838173 
L 459.332873 272.653401 
L 460.433799 237.347817 
L 461.534725 252.698071 
L 462.63565 254.233096 
L 463.736576 261.908223 
L 464.837502 225.067614 
L 465.938428 251.930558 
L 467.039353 239.650355 
L 468.140279 251.930558 
L 469.241205 260.373198 
L 470.342131 247.325482 
L 471.443057 248.092995 
L 472.543982 230.440203 
L 473.644908 242.720406 
L 474.745834 253.465584 
L 475.84676 240.417868 
L 476.947686 240.417868 
L 478.048611 245.790457 
L 479.149537 245.790457 
L 480.250463 231.975228 
L 481.351389 239.650355 
L 482.452314 237.347817 
L 483.55324 247.325482 
L 484.654166 245.022944 
L 485.755092 238.882843 
L 486.856018 248.092995 
L 487.956943 225.067614 
L 489.057869 215.857462 
L 490.158795 228.137665 
L 491.259721 232.742741 
L 492.360647 215.857462 
L 493.461572 238.11533 
L 494.562498 231.975228 
L 495.663424 244.255431 
L 496.76435 248.860508 
L 497.865275 235.045279 
L 498.966201 247.325482 
L 500.067127 220.462538 
L 501.168053 227.370152 
L 502.268979 208.949848 
L 503.369904 238.882843 
L 504.47083 208.949848 
L 505.571756 238.882843 
L 506.672682 220.462538 
L 507.773608 230.440203 
L 508.874533 231.975228 
L 509.975459 240.417868 
L 511.076385 240.417868 
L 512.177311 230.440203 
L 513.278236 215.089949 
L 514.379162 213.554924 
L 515.480088 232.742741 
L 516.581014 224.300102 
L 517.68194 228.137665 
L 518.782865 216.624975 
L 519.883791 221.997563 
L 520.984717 232.742741 
L 522.085643 208.182335 
L 523.186569 224.300102 
L 524.287494 226.60264 
L 525.38842 205.112284 
L 526.489346 232.742741 
L 527.590272 228.137665 
L 528.691197 195.902132 
L 529.792123 232.742741 
L 530.893049 219.695025 
L 531.993975 233.510254 
L 533.094901 219.695025 
L 534.195826 254.233096 
L 535.296752 219.695025 
L 536.397678 219.695025 
L 537.498604 228.905178 
L 538.59953 222.765076 
L 539.700455 190.529543 
L 540.801381 217.392487 
L 541.902307 235.812792 
L 543.003233 213.554924 
L 544.104158 202.042234 
L 545.205084 227.370152 
L 546.30601 207.414822 
L 547.406936 211.252386 
L 548.507862 195.134619 
L 549.608787 201.274721 
L 550.709713 219.695025 
L 551.810639 212.787411 
L 552.911565 219.695025 
L 554.012491 216.624975 
L 555.113416 211.252386 
L 556.214342 207.414822 
L 557.315268 218.16 
L 558.416194 201.274721 
L 559.517119 208.949848 
L 560.618045 206.64731 
L 561.718971 198.20467 
L 562.819897 197.437157 
L 563.920823 193.599594 
L 565.021748 218.927513 
L 566.122674 221.230051 
L 567.2236 205.879797 
L 568.324526 198.20467 
L 569.425452 207.414822 
L 570.526377 212.787411 
L 571.627303 202.042234 
L 572.728229 195.902132 
L 573.829155 188.227005 
L 574.93008 198.20467 
L 576.031006 201.274721 
L 577.131932 218.16 
L 578.232858 200.507208 
L 579.333784 220.462538 
L 580.434709 195.134619 
L 581.535635 176.714315 
L 582.636561 211.252386 
L 583.737487 188.227005 
L 584.838413 206.64731 
L 585.939338 203.577259 
L 587.040264 185.924467 
L 588.14119 204.344772 
L 589.242116 188.227005 
L 590.343041 184.389442 
L 591.443967 184.389442 
L 592.544893 210.484873 
L 593.645819 193.599594 
L 594.746745 203.577259 
L 595.84767 188.994518 
L 596.948596 235.812792 
L 598.049522 194.367107 
L 599.150448 212.787411 
L 600.251374 183.621929 
L 601.352299 192.064569 
L 602.453225 183.621929 
L 603.554151 192.064569 
L 604.655077 198.972183 
L 605.756002 181.319391 
L 606.856928 205.879797 
L 607.957854 215.089949 
L 609.05878 180.551878 
L 610.159706 208.182335 
L 611.260631 180.551878 
L 612.361557 188.227005 
L 613.462483 198.20467 
L 614.563409 198.20467 
L 615.664334 172.109239 
L 616.76526 188.994518 
L 617.866186 209.71736 
L 618.967112 173.644264 
L 620.068038 195.134619 
L 621.168963 203.577259 
L 622.269889 186.69198 
L 623.370815 186.69198 
L 624.471741 202.042234 
L 625.572667 198.20467 
L 627.774518 179.016853 
L 628.875444 182.086904 
L 629.97637 159.829036 
L 631.077295 192.064569 
L 632.178221 170.574213 
L 633.279147 133.733604 
L 634.380073 160.596548 
L 635.480999 162.131574 
L 636.581924 176.714315 
L 637.68285 181.319391 
L 638.783776 185.156954 
L 639.884702 192.832081 
L 640.985628 179.016853 
L 642.086553 170.574213 
L 643.187479 169.039188 
L 644.288405 187.459492 
L 645.389331 198.972183 
L 646.490256 189.76203 
L 647.591182 179.016853 
L 648.692108 171.341726 
L 649.793034 188.227005 
L 650.89396 170.574213 
L 651.994885 174.411777 
L 653.095811 182.086904 
L 654.196737 182.086904 
L 655.297663 193.599594 
L 656.398589 157.526497 
L 657.499514 174.411777 
L 658.60044 188.227005 
L 659.701366 172.109239 
L 660.802292 185.156954 
L 661.903217 163.666599 
L 663.004143 182.086904 
L 664.105069 182.854416 
L 665.205995 163.666599 
L 666.306921 184.389442 
L 667.407846 156.758985 
L 668.508772 160.596548 
L 669.609698 169.039188 
L 670.710624 143.711269 
L 672.912475 189.76203 
L 674.013401 159.829036 
L 675.114327 152.153909 
L 676.215253 152.921421 
L 677.316178 174.411777 
L 678.417104 152.921421 
L 679.51803 162.899086 
L 680.618956 153.688934 
L 681.719882 153.688934 
L 682.820807 144.478782 
L 683.921733 139.106193 
L 685.022659 153.688934 
L 686.123585 166.73665 
L 687.224511 159.061523 
L 688.325436 176.714315 
L 689.426362 143.711269 
L 690.527288 173.644264 
L 691.628214 155.223959 
L 692.729139 165.969137 
L 693.830065 136.036142 
L 694.930991 157.526497 
L 696.031917 159.061523 
L 697.132843 180.551878 
L 698.233768 150.618883 
L 699.334694 156.758985 
L 700.43562 185.156954 
L 701.536546 167.504162 
L 702.637472 155.991472 
L 703.738397 184.389442 
L 704.839323 155.223959 
L 705.940249 151.386396 
L 707.041175 169.806701 
L 708.1421 165.201624 
L 709.243026 182.086904 
L 710.343952 136.803655 
L 711.444878 155.223959 
L 712.545804 152.921421 
L 713.646729 159.061523 
L 714.747655 131.431066 
L 715.848581 127.593503 
L 716.949507 148.316345 
L 718.050433 157.526497 
L 719.151358 138.33868 
L 720.252284 146.78132 
L 721.35321 131.431066 
L 722.454136 166.73665 
L 723.555061 153.688934 
L 724.655987 137.571168 
L 725.756913 166.73665 
L 726.857839 151.386396 
L 727.958765 140.641218 
L 729.05969 165.201624 
L 730.160616 136.036142 
L 731.261542 140.641218 
L 732.362468 154.456447 
L 733.463394 139.873706 
L 734.564319 141.408731 
L 735.665245 142.176244 
L 736.766171 149.851371 
L 737.867097 149.851371 
L 738.968022 138.33868 
L 740.068948 152.153909 
L 741.169874 146.78132 
L 742.2708 152.153909 
L 743.371726 153.688934 
L 744.472651 126.82599 
L 745.573577 136.803655 
L 746.674503 141.408731 
L 747.775429 119.918376 
L 748.876355 134.501117 
L 749.97728 132.966091 
L 751.078206 139.873706 
L 752.179132 129.128528 
L 753.280058 136.803655 
L 754.380983 126.82599 
L 755.481909 155.991472 
L 756.582835 119.918376 
L 757.683761 122.220914 
L 758.784687 142.176244 
L 759.885612 145.246294 
L 760.986538 141.408731 
L 762.087464 150.618883 
L 763.18839 114.545787 
L 764.289316 122.220914 
L 765.390241 98.42802 
L 767.592093 121.453401 
L 768.693019 109.173198 
L 769.793944 104.568122 
L 770.89487 127.593503 
L 771.995796 141.408731 
L 773.096722 129.896041 
L 774.197648 136.803655 
L 775.298573 141.408731 
L 776.399499 112.243249 
L 778.601351 127.593503 
L 779.702277 125.290964 
L 780.803202 106.103147 
L 781.904128 125.290964 
L 783.005054 116.848325 
L 784.10598 132.966091 
L 785.206905 119.918376 
L 786.307831 104.568122 
L 787.408757 134.501117 
L 788.509683 120.685888 
L 789.610609 141.408731 
L 790.711534 132.966091 
L 791.81246 126.82599 
L 792.913386 123.755939 
L 794.014312 132.198579 
L 795.115238 112.243249 
L 796.216163 106.87066 
L 797.317089 128.361015 
L 798.418015 129.128528 
L 799.518941 124.523452 
L 800.619866 128.361015 
L 801.720792 131.431066 
L 802.821718 136.036142 
L 803.922644 66.96 
L 805.02357 122.220914 
L 806.124495 144.478782 
L 807.225421 118.38335 
L 808.326347 100.730558 
L 809.427273 110.708223 
L 809.427273 110.708223 
" clip-path="url(#pb370589c46)" style="fill: none; stroke: #1f77b4; stroke-width: 1.5; stroke-linecap: round"/>
   </g>
   <g id="patch_3">
    <path d="M 117 384.48 
L 117 51.84 
" style="fill: none; stroke: #262626; stroke-width: 0.8; stroke-linejoin: miter; stroke-linecap: square"/>
   </g>
   <g id="patch_4">
    <path d="M 842.4 384.48 
L 842.4 51.84 
" style="fill: none; stroke: #262626; stroke-width: 0.8; stroke-linejoin: miter; stroke-linecap: square"/>
   </g>
   <g id="patch_5">
    <path d="M 117 384.48 
L 842.4 384.48 
" style="fill: none; stroke: #262626; stroke-width: 0.8; stroke-linejoin: miter; stroke-linecap: square"/>
   </g>
   <g id="patch_6">
    <path d="M 117 51.84 
L 842.4 51.84 
" style="fill: none; stroke: #262626; stroke-width: 0.8; stroke-linejoin: miter; stroke-linecap: square"/>
   </g>
   <g id="text_18">
    <!-- Each id win counts: 100000 turns for 600 people kill simulation -->
    <g style="fill: #262626" transform="translate(300.055313 45.84)scale(0.12 -0.12)">
     <defs>
      <path id="MicrosoftYaHei-45" d="M 3228 0 
L 625 0 
L 625 4841 
L 3119 4841 
L 3119 4284 
L 1250 4284 
L 1250 2734 
L 2981 2734 
L 2981 2181 
L 1250 2181 
L 1250 553 
L 3228 553 
L 3228 0 
z
" transform="scale(0.015625)"/>
      <path id="MicrosoftYaHei-61" d="M 628 3216 
Q 1144 3538 1819 3538 
Q 3069 3538 3069 2225 
L 3069 0 
L 2463 0 
L 2463 534 
L 2447 534 
Q 2088 -81 1388 -81 
Q 884 -81 587 191 
Q 291 463 291 925 
Q 291 1894 1438 2053 
L 2463 2197 
Q 2463 3044 1763 3044 
Q 1141 3044 628 2625 
L 628 3216 
z
M 1653 1625 
Q 1228 1569 1067 1412 
Q 906 1256 906 975 
Q 906 728 1081 572 
Q 1256 416 1544 416 
Q 1944 416 2203 697 
Q 2463 978 2463 1403 
L 2463 1734 
L 1653 1625 
z
" transform="scale(0.015625)"/>
      <path id="MicrosoftYaHei-63" d="M 2934 156 
Q 2538 -81 1978 -81 
Q 1228 -81 772 400 
Q 316 881 316 1647 
Q 316 2497 808 3017 
Q 1300 3538 2125 3538 
Q 2600 3538 2938 3369 
L 2938 2763 
Q 2572 3031 2125 3031 
Q 1600 3031 1270 2667 
Q 941 2303 941 1697 
Q 941 1100 1252 762 
Q 1563 425 2091 425 
Q 2538 425 2934 719 
L 2934 156 
z
" transform="scale(0.015625)"/>
      <path id="MicrosoftYaHei-68" d="M 3466 0 
L 2856 0 
L 2856 1988 
Q 2856 3031 2081 3031 
Q 1684 3031 1421 2726 
Q 1159 2422 1159 1959 
L 1159 0 
L 547 0 
L 547 5116 
L 1159 5116 
L 1159 2888 
L 1172 2888 
Q 1569 3538 2300 3538 
Q 3466 3538 3466 2128 
L 3466 0 
z
" transform="scale(0.015625)"/>
      <path id="MicrosoftYaHei-20" transform="scale(0.015625)"/>
      <path id="MicrosoftYaHei-77" d="M 4975 3456 
L 3944 0 
L 3306 0 
L 2619 2425 
Q 2575 2581 2563 2756 
L 2550 2756 
Q 2541 2625 2478 2431 
L 1734 0 
L 1116 0 
L 78 3456 
L 716 3456 
L 1406 894 
Q 1438 778 1453 578 
L 1478 578 
Q 1491 750 1538 903 
L 2281 3456 
L 2847 3456 
L 3572 891 
Q 3603 778 3622 572 
L 3650 572 
Q 3656 709 3706 891 
L 4381 3456 
L 4975 3456 
z
" transform="scale(0.015625)"/>
      <path id="MicrosoftYaHei-6e" d="M 3469 0 
L 2859 0 
L 2859 1966 
Q 2859 3031 2081 3031 
Q 1678 3031 1418 2731 
Q 1159 2431 1159 1972 
L 1159 0 
L 547 0 
L 547 3456 
L 1159 3456 
L 1159 2884 
L 1172 2884 
Q 1563 3538 2306 3538 
Q 2875 3538 3172 3173 
Q 3469 2809 3469 2113 
L 3469 0 
z
" transform="scale(0.015625)"/>
      <path id="MicrosoftYaHei-6f" d="M 316 1691 
Q 316 2547 794 3042 
Q 1272 3538 2091 3538 
Q 2869 3538 3311 3061 
Q 3753 2584 3753 1744 
Q 3753 925 3281 422 
Q 2809 -81 2016 -81 
Q 1241 -81 778 406 
Q 316 894 316 1691 
z
M 941 1709 
Q 941 1113 1242 769 
Q 1544 425 2053 425 
Q 2578 425 2853 761 
Q 3128 1097 3128 1725 
Q 3128 2356 2853 2693 
Q 2578 3031 2053 3031 
Q 1538 3031 1239 2678 
Q 941 2325 941 1709 
z
" transform="scale(0.015625)"/>
      <path id="MicrosoftYaHei-75" d="M 3400 0 
L 2784 0 
L 2784 544 
L 2772 544 
Q 2425 -81 1706 -81 
Q 478 -81 478 1388 
L 478 3456 
L 1084 3456 
L 1084 1478 
Q 1084 425 1891 425 
Q 2291 425 2537 720 
Q 2784 1016 2784 1466 
L 2784 3456 
L 3400 3456 
L 3400 0 
z
" transform="scale(0.015625)"/>
      <path id="MicrosoftYaHei-74" d="M 2206 34 
Q 2006 -75 1666 -75 
Q 738 -75 738 953 
L 738 2950 
L 144 2950 
L 144 3456 
L 738 3456 
L 738 4288 
L 1347 4481 
L 1347 3456 
L 2206 3456 
L 2206 2950 
L 1347 2950 
L 1347 1063 
Q 1347 722 1462 575 
Q 1578 428 1847 428 
Q 2053 428 2206 544 
L 2206 34 
z
" transform="scale(0.015625)"/>
      <path id="MicrosoftYaHei-73" d="M 353 747 
Q 816 413 1350 413 
Q 2066 413 2066 881 
Q 2066 1081 1909 1211 
Q 1753 1341 1275 1519 
Q 700 1750 528 1976 
Q 356 2203 356 2525 
Q 356 2984 745 3261 
Q 1134 3538 1703 3538 
Q 2144 3538 2522 3384 
L 2522 2794 
Q 2134 3044 1644 3044 
Q 1350 3044 1165 2916 
Q 981 2788 981 2578 
Q 981 2372 1114 2256 
Q 1247 2141 1703 1959 
Q 2281 1744 2484 1512 
Q 2688 1281 2688 941 
Q 2688 466 2298 192 
Q 1909 -81 1291 -81 
Q 753 -81 353 122 
L 353 747 
z
" transform="scale(0.015625)"/>
      <path id="MicrosoftYaHei-3a" d="M 372 3134 
Q 372 3303 490 3415 
Q 609 3528 775 3528 
Q 944 3528 1062 3414 
Q 1181 3300 1181 3134 
Q 1181 2969 1065 2853 
Q 950 2738 772 2738 
Q 603 2738 487 2853 
Q 372 2969 372 3134 
z
M 372 322 
Q 372 491 487 606 
Q 603 722 775 722 
Q 950 722 1065 605 
Q 1181 488 1181 322 
Q 1181 159 1065 42 
Q 950 -75 772 -75 
Q 600 -75 486 42 
Q 372 159 372 322 
z
" transform="scale(0.015625)"/>
      <path id="MicrosoftYaHei-72" d="M 2400 2850 
Q 2247 2959 1978 2959 
Q 1622 2959 1390 2626 
Q 1159 2294 1159 1750 
L 1159 0 
L 547 0 
L 547 3456 
L 1159 3456 
L 1159 2753 
L 1172 2753 
Q 1434 3516 2078 3516 
Q 2288 3516 2400 3469 
L 2400 2850 
z
" transform="scale(0.015625)"/>
      <path id="MicrosoftYaHei-66" d="M 2319 4594 
Q 2147 4684 1947 4684 
Q 1372 4684 1372 3972 
L 1372 3456 
L 2181 3456 
L 2181 2950 
L 1372 2950 
L 1372 0 
L 766 0 
L 766 2950 
L 175 2950 
L 175 3456 
L 766 3456 
L 766 4000 
Q 766 4556 1086 4873 
Q 1406 5191 1900 5191 
Q 2163 5191 2319 5131 
L 2319 4594 
z
" transform="scale(0.015625)"/>
      <path id="MicrosoftYaHei-70" d="M 1159 488 
L 1159 -1591 
L 547 -1591 
L 547 3456 
L 1159 3456 
L 1159 2859 
L 1172 2859 
Q 1578 3538 2359 3538 
Q 3022 3538 3398 3073 
Q 3775 2609 3775 1828 
Q 3775 966 3348 442 
Q 2922 -81 2200 -81 
Q 1534 -81 1172 488 
L 1159 488 
z
M 1156 1425 
Q 1156 1003 1428 714 
Q 1700 425 2109 425 
Q 2597 425 2872 800 
Q 3147 1175 3147 1838 
Q 3147 2397 2890 2714 
Q 2634 3031 2191 3031 
Q 1738 3031 1447 2709 
Q 1156 2388 1156 1884 
L 1156 1425 
z
" transform="scale(0.015625)"/>
      <path id="MicrosoftYaHei-65" d="M 3363 1572 
L 944 1572 
Q 959 1019 1246 717 
Q 1534 416 2050 416 
Q 2631 416 3116 788 
L 3116 241 
Q 2659 -81 1906 -81 
Q 1156 -81 736 394 
Q 316 869 316 1713 
Q 316 2506 777 3022 
Q 1238 3538 1922 3538 
Q 2600 3538 2981 3102 
Q 3363 2666 3363 1881 
L 3363 1572 
z
M 2750 2063 
Q 2747 2531 2528 2787 
Q 2309 3044 1913 3044 
Q 1547 3044 1280 2772 
Q 1013 2500 944 2063 
L 2750 2063 
z
" transform="scale(0.015625)"/>
      <path id="MicrosoftYaHei-6c" d="M 544 0 
L 544 5116 
L 1156 5116 
L 1156 0 
L 544 0 
z
" transform="scale(0.015625)"/>
      <path id="MicrosoftYaHei-6b" d="M 3484 0 
L 2650 0 
L 1172 1666 
L 1159 1666 
L 1159 0 
L 547 0 
L 547 5116 
L 1159 5116 
L 1159 1872 
L 1172 1872 
L 2575 3456 
L 3363 3456 
L 1800 1794 
L 3484 0 
z
" transform="scale(0.015625)"/>
      <path id="MicrosoftYaHei-6d" d="M 5522 0 
L 4909 0 
L 4909 1984 
Q 4909 2547 4734 2789 
Q 4559 3031 4159 3031 
Q 3822 3031 3581 2715 
Q 3341 2400 3341 1969 
L 3341 0 
L 2728 0 
L 2728 2047 
Q 2728 3031 1969 3031 
Q 1619 3031 1389 2731 
Q 1159 2431 1159 1966 
L 1159 0 
L 547 0 
L 547 3456 
L 1159 3456 
L 1159 2909 
L 1172 2909 
Q 1541 3538 2250 3538 
Q 2597 3538 2862 3347 
Q 3128 3156 3231 2831 
Q 3616 3538 4381 3538 
Q 5522 3538 5522 2131 
L 5522 0 
z
" transform="scale(0.015625)"/>
     </defs>
     <use xlink:href="#MicrosoftYaHei-45"/>
     <use xlink:href="#MicrosoftYaHei-61" x="54.980469"/>
     <use xlink:href="#MicrosoftYaHei-63" x="110.253906"/>
     <use xlink:href="#MicrosoftYaHei-68" x="160.400391"/>
     <use xlink:href="#MicrosoftYaHei-20" x="221.972656"/>
     <use xlink:href="#MicrosoftYaHei-69" x="251.5625"/>
     <use xlink:href="#MicrosoftYaHei-64" x="278.173828"/>
     <use xlink:href="#MicrosoftYaHei-20" x="342.138672"/>
     <use xlink:href="#MicrosoftYaHei-77" x="371.728516"/>
     <use xlink:href="#MicrosoftYaHei-69" x="450.683594"/>
     <use xlink:href="#MicrosoftYaHei-6e" x="477.294922"/>
     <use xlink:href="#MicrosoftYaHei-20" x="538.916016"/>
     <use xlink:href="#MicrosoftYaHei-63" x="568.505859"/>
     <use xlink:href="#MicrosoftYaHei-6f" x="618.652344"/>
     <use xlink:href="#MicrosoftYaHei-75" x="682.226562"/>
     <use xlink:href="#MicrosoftYaHei-6e" x="743.847656"/>
     <use xlink:href="#MicrosoftYaHei-74" x="805.46875"/>
     <use xlink:href="#MicrosoftYaHei-73" x="842.724609"/>
     <use xlink:href="#MicrosoftYaHei-3a" x="889.013672"/>
     <use xlink:href="#MicrosoftYaHei-20" x="913.085938"/>
     <use xlink:href="#MicrosoftYaHei-31" x="942.675781"/>
     <use xlink:href="#MicrosoftYaHei-30" x="1001.318359"/>
     <use xlink:href="#MicrosoftYaHei-30" x="1059.960938"/>
     <use xlink:href="#MicrosoftYaHei-30" x="1118.603516"/>
     <use xlink:href="#MicrosoftYaHei-30" x="1177.246094"/>
     <use xlink:href="#MicrosoftYaHei-30" x="1235.888672"/>
     <use xlink:href="#MicrosoftYaHei-20" x="1294.53125"/>
     <use xlink:href="#MicrosoftYaHei-74" x="1324.121094"/>
     <use xlink:href="#MicrosoftYaHei-75" x="1361.376953"/>
     <use xlink:href="#MicrosoftYaHei-72" x="1422.998047"/>
     <use xlink:href="#MicrosoftYaHei-6e" x="1460.931641"/>
     <use xlink:href="#MicrosoftYaHei-73" x="1522.552734"/>
     <use xlink:href="#MicrosoftYaHei-20" x="1568.841797"/>
     <use xlink:href="#MicrosoftYaHei-66" x="1598.431641"/>
     <use xlink:href="#MicrosoftYaHei-6f" x="1633.099609"/>
     <use xlink:href="#MicrosoftYaHei-72" x="1696.673828"/>
     <use xlink:href="#MicrosoftYaHei-20" x="1734.857422"/>
     <use xlink:href="#MicrosoftYaHei-36" x="1764.447266"/>
     <use xlink:href="#MicrosoftYaHei-30" x="1823.089844"/>
     <use xlink:href="#MicrosoftYaHei-30" x="1881.732422"/>
     <use xlink:href="#MicrosoftYaHei-20" x="1940.375"/>
     <use xlink:href="#MicrosoftYaHei-70" x="1969.964844"/>
     <use xlink:href="#MicrosoftYaHei-65" x="2033.832031"/>
     <use xlink:href="#MicrosoftYaHei-6f" x="2090.570312"/>
     <use xlink:href="#MicrosoftYaHei-70" x="2154.144531"/>
     <use xlink:href="#MicrosoftYaHei-6c" x="2218.011719"/>
     <use xlink:href="#MicrosoftYaHei-65" x="2244.623047"/>
     <use xlink:href="#MicrosoftYaHei-20" x="2301.361328"/>
     <use xlink:href="#MicrosoftYaHei-6b" x="2330.951172"/>
     <use xlink:href="#MicrosoftYaHei-69" x="2385.394531"/>
     <use xlink:href="#MicrosoftYaHei-6c" x="2412.005859"/>
     <use xlink:href="#MicrosoftYaHei-6c" x="2438.617188"/>
     <use xlink:href="#MicrosoftYaHei-20" x="2465.228516"/>
     <use xlink:href="#MicrosoftYaHei-73" x="2494.818359"/>
     <use xlink:href="#MicrosoftYaHei-69" x="2541.107422"/>
     <use xlink:href="#MicrosoftYaHei-6d" x="2567.71875"/>
     <use xlink:href="#MicrosoftYaHei-75" x="2661.419922"/>
     <use xlink:href="#MicrosoftYaHei-6c" x="2723.041016"/>
     <use xlink:href="#MicrosoftYaHei-61" x="2749.652344"/>
     <use xlink:href="#MicrosoftYaHei-74" x="2804.925781"/>
     <use xlink:href="#MicrosoftYaHei-69" x="2842.181641"/>
     <use xlink:href="#MicrosoftYaHei-6f" x="2868.792969"/>
     <use xlink:href="#MicrosoftYaHei-6e" x="2932.367188"/>
    </g>
   </g>
   <g id="legend_1">
    <g id="patch_7">
     <path d="M 124 75.319687 
L 204.623437 75.319687 
Q 206.623437 75.319687 206.623437 73.319687 
L 206.623437 58.84 
Q 206.623437 56.84 204.623437 56.84 
L 124 56.84 
Q 122 56.84 122 58.84 
L 122 73.319687 
Q 122 75.319687 124 75.319687 
z
" style="fill: #ffffff; opacity: 0.8; stroke: #cccccc; stroke-linejoin: miter"/>
    </g>
    <g id="line2d_2">
     <path d="M 126 65.33375 
L 136 65.33375 
L 146 65.33375 
" style="fill: none; stroke: #1f77b4; stroke-width: 1.5; stroke-linecap: round"/>
    </g>
    <g id="text_19">
     <!-- win_count -->
     <g style="fill: #262626" transform="translate(154 68.83375)scale(0.1 -0.1)">
      <defs>
       <path id="MicrosoftYaHei-5f" d="M 2869 -1003 
L 0 -1003 
L 0 -600 
L 2869 -600 
L 2869 -1003 
z
" transform="scale(0.015625)"/>
      </defs>
      <use xlink:href="#MicrosoftYaHei-77"/>
      <use xlink:href="#MicrosoftYaHei-69" x="78.955078"/>
      <use xlink:href="#MicrosoftYaHei-6e" x="105.566406"/>
      <use xlink:href="#MicrosoftYaHei-5f" x="167.1875"/>
      <use xlink:href="#MicrosoftYaHei-63" x="212.011719"/>
      <use xlink:href="#MicrosoftYaHei-6f" x="262.158203"/>
      <use xlink:href="#MicrosoftYaHei-75" x="325.732422"/>
      <use xlink:href="#MicrosoftYaHei-6e" x="387.353516"/>
      <use xlink:href="#MicrosoftYaHei-74" x="448.974609"/>
     </g>
    </g>
   </g>
  </g>
 </g>
 <defs>
  <clipPath id="pb370589c46">
   <rect x="117" y="51.84" width="725.4" height="332.64"/>
  </clipPath>
 </defs>
</svg>
