<?xml version="1.0" encoding="utf-8" standalone="no"?>
<!DOCTYPE svg PUBLIC "-//W3C//DTD SVG 1.1//EN"
  "http://www.w3.org/Graphics/SVG/1.1/DTD/svg11.dtd">
<svg xmlns:xlink="http://www.w3.org/1999/xlink" width="936pt" height="432pt" viewBox="0 0 936 432" xmlns="http://www.w3.org/2000/svg" version="1.1">
 <metadata>
  <rdf:RDF xmlns:dc="http://purl.org/dc/elements/1.1/" xmlns:cc="http://creativecommons.org/ns#" xmlns:rdf="http://www.w3.org/1999/02/22-rdf-syntax-ns#">
   <cc:Work>
    <dc:type rdf:resource="http://purl.org/dc/dcmitype/StillImage"/>
    <dc:date>2024-08-18T23:01:33.899241</dc:date>
    <dc:format>image/svg+xml</dc:format>
    <dc:creator>
     <cc:Agent>
      <dc:title>Matplotlib v3.5.1, https://matplotlib.org/</dc:title>
     </cc:Agent>
    </dc:creator>
   </cc:Work>
  </rdf:RDF>
 </metadata>
 <defs>
  <style type="text/css">*{stroke-linejoin: round; stroke-linecap: butt}</style>
 </defs>
 <g id="figure_1">
  <g id="patch_1">
   <path d="M 0 432 
L 936 432 
L 936 0 
L 0 0 
z
" style="fill: #ffffff"/>
  </g>
  <g id="axes_1">
   <g id="patch_2">
    <path d="M 117 384.48 
L 842.4 384.48 
L 842.4 51.84 
L 117 51.84 
z
" style="fill: #ffffff"/>
   </g>
   <g id="matplotlib.axis_1">
    <g id="xtick_1">
     <g id="text_1">
      <!-- 0 -->
      <g style="fill: #262626" transform="translate(145.93977 399.47375)scale(0.1 -0.1)">
       <defs>
        <path id="MicrosoftYaHei-30" d="M 284 2325 
Q 284 3606 709 4264 
Q 1134 4922 1941 4922 
Q 3478 4922 3478 2441 
Q 3478 1216 3045 567 
Q 2613 -81 1831 -81 
Q 1094 -81 689 534 
Q 284 1150 284 2325 
z
M 909 2353 
Q 909 425 1888 425 
Q 2850 425 2850 2384 
Q 2850 4413 1906 4413 
Q 909 4413 909 2353 
z
" transform="scale(0.015625)"/>
       </defs>
       <use xlink:href="#MicrosoftYaHei-30"/>
      </g>
     </g>
    </g>
    <g id="xtick_2">
     <g id="text_2">
      <!-- 100 -->
      <g style="fill: #262626" transform="translate(250.168286 399.47375)scale(0.1 -0.1)">
       <defs>
        <path id="MicrosoftYaHei-31" d="M 3366 0 
L 591 0 
L 591 528 
L 1675 528 
L 1675 4203 
L 563 3881 
L 563 4444 
L 2284 4944 
L 2284 528 
L 3366 528 
L 3366 0 
z
" transform="scale(0.015625)"/>
       </defs>
       <use xlink:href="#MicrosoftYaHei-31"/>
       <use xlink:href="#MicrosoftYaHei-30" x="58.642578"/>
       <use xlink:href="#MicrosoftYaHei-30" x="117.285156"/>
      </g>
     </g>
    </g>
    <g id="xtick_3">
     <g id="text_3">
      <!-- 200 -->
      <g style="fill: #262626" transform="translate(360.260865 399.47375)scale(0.1 -0.1)">
       <defs>
        <path id="MicrosoftYaHei-32" d="M 3275 0 
L 331 0 
L 331 531 
L 1738 1934 
Q 2319 2516 2516 2855 
Q 2713 3194 2713 3556 
Q 2713 3969 2481 4189 
Q 2250 4409 1813 4409 
Q 1166 4409 578 3859 
L 578 4481 
Q 1150 4922 1909 4922 
Q 2563 4922 2941 4569 
Q 3319 4216 3319 3619 
Q 3319 3169 3076 2736 
Q 2834 2303 2159 1634 
L 1056 556 
L 1056 544 
L 3275 544 
L 3275 0 
z
" transform="scale(0.015625)"/>
       </defs>
       <use xlink:href="#MicrosoftYaHei-32"/>
       <use xlink:href="#MicrosoftYaHei-30" x="58.642578"/>
       <use xlink:href="#MicrosoftYaHei-30" x="117.285156"/>
      </g>
     </g>
    </g>
    <g id="xtick_4">
     <g id="text_4">
      <!-- 300 -->
      <g style="fill: #262626" transform="translate(470.353443 399.47375)scale(0.1 -0.1)">
       <defs>
        <path id="MicrosoftYaHei-33" d="M 447 809 
Q 944 425 1569 425 
Q 2069 425 2361 670 
Q 2653 916 2653 1328 
Q 2653 2247 1338 2247 
L 934 2247 
L 934 2753 
L 1319 2753 
Q 2484 2753 2484 3616 
Q 2484 4413 1594 4413 
Q 1084 4413 634 4069 
L 634 4647 
Q 1109 4922 1744 4922 
Q 2363 4922 2738 4598 
Q 3113 4275 3113 3759 
Q 3113 2809 2144 2538 
L 2144 2525 
Q 2669 2469 2973 2155 
Q 3278 1841 3278 1372 
Q 3278 719 2808 319 
Q 2338 -81 1556 -81 
Q 869 -81 447 175 
L 447 809 
z
" transform="scale(0.015625)"/>
       </defs>
       <use xlink:href="#MicrosoftYaHei-33"/>
       <use xlink:href="#MicrosoftYaHei-30" x="58.642578"/>
       <use xlink:href="#MicrosoftYaHei-30" x="117.285156"/>
      </g>
     </g>
    </g>
    <g id="xtick_5">
     <g id="text_5">
      <!-- 400 -->
      <g style="fill: #262626" transform="translate(580.446022 399.47375)scale(0.1 -0.1)">
       <defs>
        <path id="MicrosoftYaHei-34" d="M 3525 1256 
L 2906 1256 
L 2906 0 
L 2313 0 
L 2313 1256 
L 56 1256 
L 56 1653 
L 2197 4841 
L 2906 4841 
L 2906 1741 
L 3525 1741 
L 3525 1256 
z
M 2313 1741 
L 2313 3769 
Q 2313 3984 2325 4266 
L 2313 4266 
Q 2269 4147 2128 3894 
L 688 1741 
L 2313 1741 
z
" transform="scale(0.015625)"/>
       </defs>
       <use xlink:href="#MicrosoftYaHei-34"/>
       <use xlink:href="#MicrosoftYaHei-30" x="58.642578"/>
       <use xlink:href="#MicrosoftYaHei-30" x="117.285156"/>
      </g>
     </g>
    </g>
    <g id="xtick_6">
     <g id="text_6">
      <!-- 500 -->
      <g style="fill: #262626" transform="translate(690.5386 399.47375)scale(0.1 -0.1)">
       <defs>
        <path id="MicrosoftYaHei-35" d="M 553 744 
Q 1041 425 1569 425 
Q 2069 425 2375 704 
Q 2681 984 2681 1447 
Q 2681 1913 2370 2169 
Q 2059 2425 1469 2425 
Q 1184 2425 703 2381 
L 703 4841 
L 3084 4841 
L 3084 4300 
L 1272 4300 
L 1272 2931 
Q 1544 2947 1681 2947 
Q 2447 2947 2875 2559 
Q 3303 2172 3303 1491 
Q 3303 788 2843 353 
Q 2384 -81 1575 -81 
Q 897 -81 553 119 
L 553 744 
z
" transform="scale(0.015625)"/>
       </defs>
       <use xlink:href="#MicrosoftYaHei-35"/>
       <use xlink:href="#MicrosoftYaHei-30" x="58.642578"/>
       <use xlink:href="#MicrosoftYaHei-30" x="117.285156"/>
      </g>
     </g>
    </g>
    <g id="xtick_7">
     <g id="text_7">
      <!-- 600 -->
      <g style="fill: #262626" transform="translate(800.631179 399.47375)scale(0.1 -0.1)">
       <defs>
        <path id="MicrosoftYaHei-36" d="M 3181 4219 
Q 2803 4413 2391 4413 
Q 1763 4413 1381 3866 
Q 1000 3319 994 2372 
L 1009 2372 
Q 1353 3038 2106 3038 
Q 2734 3038 3109 2628 
Q 3484 2219 3484 1541 
Q 3484 831 3051 375 
Q 2619 -81 1947 -81 
Q 1209 -81 789 495 
Q 369 1072 369 2131 
Q 369 3413 920 4167 
Q 1472 4922 2372 4922 
Q 2888 4922 3181 4781 
L 3181 4219 
z
M 1031 1584 
Q 1031 1106 1286 765 
Q 1541 425 1963 425 
Q 2363 425 2613 719 
Q 2863 1013 2863 1475 
Q 2863 1975 2627 2253 
Q 2391 2531 1956 2531 
Q 1544 2531 1287 2250 
Q 1031 1969 1031 1584 
z
" transform="scale(0.015625)"/>
       </defs>
       <use xlink:href="#MicrosoftYaHei-36"/>
       <use xlink:href="#MicrosoftYaHei-30" x="58.642578"/>
       <use xlink:href="#MicrosoftYaHei-30" x="117.285156"/>
      </g>
     </g>
    </g>
    <g id="text_8">
     <!-- id -->
     <g style="fill: #262626" transform="translate(475.171094 413.953438)scale(0.1 -0.1)">
      <defs>
       <path id="MicrosoftYaHei-69" d="M 472 4675 
Q 472 4838 583 4948 
Q 694 5059 856 5059 
Q 1022 5059 1136 4950 
Q 1250 4841 1250 4675 
Q 1250 4513 1136 4405 
Q 1022 4297 856 4297 
Q 691 4297 581 4405 
Q 472 4513 472 4675 
z
M 544 0 
L 544 3456 
L 1156 3456 
L 1156 0 
L 544 0 
z
" transform="scale(0.015625)"/>
       <path id="MicrosoftYaHei-64" d="M 3547 0 
L 2934 0 
L 2934 575 
L 2922 575 
Q 2544 -81 1747 -81 
Q 1091 -81 703 386 
Q 316 853 316 1647 
Q 316 2503 753 3020 
Q 1191 3538 1897 3538 
Q 2603 3538 2922 2988 
L 2934 2988 
L 2934 5116 
L 3547 5116 
L 3547 0 
z
M 2938 2056 
Q 2938 2472 2664 2751 
Q 2391 3031 1991 3031 
Q 1503 3031 1222 2667 
Q 941 2303 941 1675 
Q 941 1097 1211 761 
Q 1481 425 1931 425 
Q 2375 425 2656 754 
Q 2938 1084 2938 1575 
L 2938 2056 
z
" transform="scale(0.015625)"/>
      </defs>
      <use xlink:href="#MicrosoftYaHei-69"/>
      <use xlink:href="#MicrosoftYaHei-64" x="26.611328"/>
     </g>
    </g>
   </g>
   <g id="matplotlib.axis_2">
    <g id="ytick_1">
     <g id="text_9">
      <!-- 200 -->
      <g style="fill: #262626" transform="translate(92.407813 378.480553)scale(0.1 -0.1)">
       <use xlink:href="#MicrosoftYaHei-32"/>
       <use xlink:href="#MicrosoftYaHei-30" x="58.642578"/>
       <use xlink:href="#MicrosoftYaHei-30" x="117.285156"/>
      </g>
     </g>
    </g>
    <g id="ytick_2">
     <g id="text_10">
      <!-- 220 -->
      <g style="fill: #262626" transform="translate(92.407813 333.69316)scale(0.1 -0.1)">
       <use xlink:href="#MicrosoftYaHei-32"/>
       <use xlink:href="#MicrosoftYaHei-32" x="58.642578"/>
       <use xlink:href="#MicrosoftYaHei-30" x="117.285156"/>
      </g>
     </g>
    </g>
    <g id="ytick_3">
     <g id="text_11">
      <!-- 240 -->
      <g style="fill: #262626" transform="translate(92.407813 288.905766)scale(0.1 -0.1)">
       <use xlink:href="#MicrosoftYaHei-32"/>
       <use xlink:href="#MicrosoftYaHei-34" x="58.642578"/>
       <use xlink:href="#MicrosoftYaHei-30" x="117.285156"/>
      </g>
     </g>
    </g>
    <g id="ytick_4">
     <g id="text_12">
      <!-- 260 -->
      <g style="fill: #262626" transform="translate(92.407813 244.118373)scale(0.1 -0.1)">
       <use xlink:href="#MicrosoftYaHei-32"/>
       <use xlink:href="#MicrosoftYaHei-36" x="58.642578"/>
       <use xlink:href="#MicrosoftYaHei-30" x="117.285156"/>
      </g>
     </g>
    </g>
    <g id="ytick_5">
     <g id="text_13">
      <!-- 280 -->
      <g style="fill: #262626" transform="translate(92.407813 199.33098)scale(0.1 -0.1)">
       <defs>
        <path id="MicrosoftYaHei-38" d="M 1369 2547 
Q 503 2950 503 3716 
Q 503 4250 909 4586 
Q 1316 4922 1947 4922 
Q 2525 4922 2900 4606 
Q 3275 4291 3275 3791 
Q 3275 2984 2372 2550 
L 2372 2538 
Q 3431 2156 3431 1238 
Q 3431 634 2995 276 
Q 2559 -81 1778 -81 
Q 1138 -81 734 272 
Q 331 625 331 1188 
Q 331 2113 1369 2534 
L 1369 2547 
z
M 2656 3719 
Q 2656 4044 2453 4231 
Q 2250 4419 1903 4419 
Q 1578 4419 1350 4223 
Q 1122 4028 1122 3725 
Q 1122 3119 1881 2803 
Q 2656 3125 2656 3719 
z
M 1844 2256 
Q 947 1894 947 1219 
Q 947 869 1209 644 
Q 1472 419 1894 419 
Q 2303 419 2559 642 
Q 2816 866 2816 1200 
Q 2816 1903 1844 2256 
z
" transform="scale(0.015625)"/>
       </defs>
       <use xlink:href="#MicrosoftYaHei-32"/>
       <use xlink:href="#MicrosoftYaHei-38" x="58.642578"/>
       <use xlink:href="#MicrosoftYaHei-30" x="117.285156"/>
      </g>
     </g>
    </g>
    <g id="ytick_6">
     <g id="text_14">
      <!-- 300 -->
      <g style="fill: #262626" transform="translate(92.407813 154.543587)scale(0.1 -0.1)">
       <use xlink:href="#MicrosoftYaHei-33"/>
       <use xlink:href="#MicrosoftYaHei-30" x="58.642578"/>
       <use xlink:href="#MicrosoftYaHei-30" x="117.285156"/>
      </g>
     </g>
    </g>
    <g id="ytick_7">
     <g id="text_15">
      <!-- 320 -->
      <g style="fill: #262626" transform="translate(92.407813 109.756194)scale(0.1 -0.1)">
       <use xlink:href="#MicrosoftYaHei-33"/>
       <use xlink:href="#MicrosoftYaHei-32" x="58.642578"/>
       <use xlink:href="#MicrosoftYaHei-30" x="117.285156"/>
      </g>
     </g>
    </g>
    <g id="ytick_8">
     <g id="text_16">
      <!-- 340 -->
      <g style="fill: #262626" transform="translate(92.407813 64.968801)scale(0.1 -0.1)">
       <use xlink:href="#MicrosoftYaHei-33"/>
       <use xlink:href="#MicrosoftYaHei-34" x="58.642578"/>
       <use xlink:href="#MicrosoftYaHei-30" x="117.285156"/>
      </g>
     </g>
    </g>
   </g>
   <g id="line2d_1">
    <path d="M 149.972727 369.36 
L 151.073653 66.96 
L 152.174579 289.208481 
L 153.275505 117.937011 
L 154.37643 203.033058 
L 155.477356 124.372959 
L 156.578282 197.394325 
L 157.679208 126.303296 
L 158.780134 192.539372 
L 159.881059 142.341661 
L 160.981985 203.028579 
L 162.082911 98.638123 
L 163.183837 136.411811 
L 164.284762 154.102831 
L 165.385688 154.729854 
L 166.486614 131.659868 
L 167.58754 179.067324 
L 168.688466 132.224189 
L 169.789391 189.883479 
L 171.991243 137.988327 
L 173.092169 142.184906 
L 174.193095 160.753759 
L 175.29402 131.677783 
L 176.394946 189.887958 
L 177.495872 124.372959 
L 178.596798 180.419903 
L 179.697723 124.274427 
L 180.798649 125.479208 
L 181.899575 169.06182 
L 183.000501 143.206058 
L 184.101427 134.741241 
L 185.202352 184.114863 
L 186.303278 144.137636 
L 187.404204 167.964529 
L 188.50513 116.208218 
L 189.606056 155.352399 
L 190.706981 153.229477 
L 191.807907 181.378353 
L 192.908833 140.868156 
L 194.009759 168.591553 
L 195.110684 139.524534 
L 196.21161 172.089448 
L 197.312536 148.92093 
L 198.413462 152.871178 
L 199.514388 103.645354 
L 200.615313 190.264172 
L 201.716239 132.891521 
L 202.817165 141.781819 
L 203.918091 161.026962 
L 205.019017 158.72489 
L 207.220868 188.239782 
L 208.321794 118.998472 
L 209.42272 175.49329 
L 210.523645 168.837883 
L 211.624571 147.586265 
L 212.725497 160.632833 
L 213.826423 129.317488 
L 214.927349 131.131377 
L 217.1292 149.006026 
L 218.230126 119.970359 
L 219.331052 173.625656 
L 220.431978 149.050813 
L 221.532903 150.542233 
L 222.633829 155.500198 
L 223.734755 121.175139 
L 224.835681 161.24642 
L 225.936606 149.126952 
L 227.037532 151.343927 
L 228.138458 153.981905 
L 229.239384 166.4328 
L 230.34031 165.290722 
L 231.441235 126.603371 
L 232.542161 140.984603 
L 233.643087 124.731258 
L 234.744013 133.07515 
L 235.844939 154.259587 
L 236.945864 151.258831 
L 238.04679 156.055561 
L 239.147716 128.7039 
L 240.248642 156.391467 
L 241.349567 128.694943 
L 242.450493 139.555886 
L 243.551419 145.149831 
L 244.652345 176.120313 
L 245.753271 122.147026 
L 246.854196 166.817972 
L 247.955122 184.94343 
L 249.056048 144.280956 
L 250.156974 142.229693 
L 251.2579 165.187711 
L 252.358825 168.721436 
L 253.459751 126.415264 
L 254.560677 138.073423 
L 255.661603 163.3783 
L 256.762528 134.087345 
L 257.863454 163.320076 
L 258.96438 143.41208 
L 260.065306 131.534463 
L 261.166232 166.831408 
L 262.267157 123.934043 
L 263.368083 190.286566 
L 264.469009 174.275073 
L 265.569935 112.405768 
L 266.670861 145.122959 
L 267.771786 148.078927 
L 268.872712 161.600241 
L 269.973638 178.76277 
L 271.074564 160.247661 
L 272.175489 145.902259 
L 273.276415 168.219817 
L 274.377341 153.184689 
L 275.478267 162.509425 
L 276.579193 158.980178 
L 277.680118 178.758291 
L 278.781044 130.643194 
L 279.88197 168.618425 
L 280.982896 171.426595 
L 282.083822 139.546928 
L 283.184747 129.218955 
L 284.285673 120.588425 
L 285.386599 136.976132 
L 286.487525 123.754893 
L 287.58845 163.826174 
L 288.689376 177.746096 
L 289.790302 133.693216 
L 290.891228 141.629542 
L 291.992154 125.067164 
L 293.093079 207.337126 
L 294.194005 135.59668 
L 295.294931 157.51563 
L 296.395857 167.023994 
L 297.496783 125.11643 
L 298.597708 149.409112 
L 299.698634 143.62706 
L 300.79956 164.148643 
L 301.900486 150.336211 
L 303.001411 125.161217 
L 304.102337 121.596141 
L 305.203263 134.597921 
L 306.304189 154.658195 
L 307.405115 141.383211 
L 308.50604 142.001277 
L 309.606966 138.534733 
L 310.707892 148.737301 
L 311.808818 147.348892 
L 312.909744 187.3933 
L 315.111595 138.024157 
L 316.212521 164.386016 
L 317.313447 134.562091 
L 318.414372 173.621177 
L 319.515298 114.963128 
L 320.616224 144.845277 
L 321.71715 162.961777 
L 322.818076 140.859199 
L 323.919001 125.067164 
L 325.019927 126.455573 
L 326.120853 161.895837 
L 327.221779 177.804319 
L 328.322705 163.275289 
L 329.42363 162.27653 
L 330.524556 136.711886 
L 331.625482 175.063331 
L 332.726408 154.608928 
L 333.827333 157.690301 
L 334.928259 152.745773 
L 336.029185 145.248363 
L 337.130111 135.139849 
L 338.231037 167.969008 
L 339.331962 138.427243 
L 340.432888 148.889578 
L 341.533814 148.392438 
L 342.63474 153.471329 
L 343.735666 148.450662 
L 344.836591 119.755379 
L 345.937517 140.335186 
L 347.038443 172.120799 
L 348.139369 139.43496 
L 349.240294 148.262555 
L 350.34122 127.911163 
L 351.442146 164.529336 
L 352.543072 131.458325 
L 353.643998 171.766979 
L 354.744923 184.974781 
L 355.845849 159.710213 
L 356.946775 173.558475 
L 358.047701 126.764606 
L 359.148626 133.097544 
L 360.249552 148.593982 
L 361.350478 139.573801 
L 362.451404 116.978561 
L 363.55233 150.255594 
L 364.653255 156.579574 
L 365.754181 147.371286 
L 366.855107 181.718738 
L 367.956033 141.943054 
L 369.056959 194.648858 
L 370.157884 155.5629 
L 371.25881 129.541424 
L 372.359736 189.001168 
L 373.460662 169.935174 
L 374.561587 144.280956 
L 375.662513 145.691758 
L 376.763439 155.459889 
L 377.864365 133.617077 
L 378.965291 141.786298 
L 380.066216 135.162242 
L 381.167142 153.04137 
L 382.268068 137.352346 
L 383.368994 136.044554 
L 384.46992 159.190679 
L 385.570845 161.304644 
L 386.671771 143.595708 
L 387.772697 114.609308 
L 388.873623 142.305832 
L 389.974548 160.789589 
L 391.075474 152.378516 
L 392.1764 142.386449 
L 393.277326 169.688844 
L 394.378252 144.733308 
L 395.479177 141.226455 
L 396.580103 174.051136 
L 397.681029 137.750954 
L 398.781955 168.667691 
L 399.882881 140.957731 
L 400.983806 136.514822 
L 402.084732 132.972139 
L 403.185658 135.843011 
L 404.286584 175.009586 
L 405.387509 147.774372 
L 406.488435 124.758131 
L 407.589361 134.508346 
L 408.690287 157.367832 
L 409.791213 160.740323 
L 410.892138 158.317325 
L 411.993064 138.682531 
L 413.09399 153.632563 
L 415.295842 177.213126 
L 416.396767 136.73428 
L 417.497693 176.357687 
L 418.598619 150.828872 
L 419.699545 155.63456 
L 420.80047 146.175462 
L 421.901396 161.761475 
L 423.002322 163.602237 
L 424.103248 116.481421 
L 425.204174 124.610332 
L 426.305099 117.937011 
L 427.406025 163.906791 
L 428.506951 158.008292 
L 429.607877 146.981635 
L 430.708803 144.581031 
L 431.809728 144.616861 
L 432.910654 134.414293 
L 434.01158 157.112544 
L 435.112506 160.368587 
L 436.213431 170.423357 
L 437.314357 176.281548 
L 438.415283 124.673035 
L 439.516209 115.899185 
L 440.617135 153.995341 
L 441.71806 160.346194 
L 442.818986 157.264821 
L 443.919912 163.181236 
L 445.020838 120.261477 
L 446.121764 137.446399 
L 447.222689 139.197586 
L 448.323615 154.743291 
L 449.424541 152.615889 
L 450.525467 142.955249 
L 451.626392 126.173413 
L 452.727318 146.703954 
L 453.828244 149.082164 
L 454.92917 155.836103 
L 456.030096 130.48196 
L 457.131021 142.104288 
L 458.231947 168.094413 
L 459.332873 121.206491 
L 460.433799 133.876844 
L 461.534725 138.75867 
L 462.63565 130.674546 
L 463.736576 127.929078 
L 464.837502 169.308151 
L 465.938428 160.78511 
L 467.039353 162.227264 
L 469.241205 142.691003 
L 470.342131 171.90582 
L 471.443057 126.271945 
L 472.543982 136.367023 
L 473.644908 171.296711 
L 474.745834 122.447101 
L 475.84676 161.70773 
L 476.947686 164.560687 
L 478.048611 158.729369 
L 479.149537 137.925624 
L 480.250463 167.288239 
L 481.351389 124.97311 
L 482.452314 159.410137 
L 483.55324 145.311066 
L 484.654166 149.955518 
L 485.755092 116.405282 
L 486.856018 159.929671 
L 487.956943 172.573152 
L 489.057869 139.999281 
L 490.158795 121.475215 
L 491.259721 162.446722 
L 492.360647 160.18048 
L 493.461572 141.616106 
L 494.562498 151.379757 
L 495.663424 146.009749 
L 496.76435 133.590205 
L 497.865275 184.105906 
L 498.966201 161.868965 
L 500.067127 153.775883 
L 501.168053 151.872419 
L 502.268979 144.415318 
L 503.369904 92.605261 
L 504.47083 158.151611 
L 505.571756 130.593928 
L 506.672682 153.668393 
L 507.773608 143.246367 
L 508.874533 144.285434 
L 511.076385 131.79423 
L 512.177311 150.784085 
L 513.278236 143.810688 
L 514.379162 137.939061 
L 515.480088 150.094359 
L 516.581014 140.039589 
L 517.68194 163.467875 
L 518.782865 144.872149 
L 519.883791 163.266332 
L 520.984717 157.340959 
L 522.085643 146.327739 
L 523.186569 165.980448 
L 525.38842 138.109253 
L 526.489346 128.121664 
L 527.590272 138.292881 
L 528.691197 144.397403 
L 529.792123 159.454924 
L 530.893049 153.408626 
L 531.993975 175.354449 
L 533.094901 132.864649 
L 534.195826 159.387743 
L 535.296752 164.211346 
L 536.397678 116.329144 
L 537.498604 155.307612 
L 538.59953 144.522808 
L 539.700455 163.212587 
L 540.801381 168.873713 
L 541.902307 129.093551 
L 543.003233 139.757429 
L 544.104158 135.184636 
L 545.205084 168.622904 
L 546.30601 148.177459 
L 547.406936 157.05432 
L 548.507862 159.795309 
L 549.608787 160.932908 
L 550.709713 167.310633 
L 551.810639 131.892763 
L 552.911565 150.116753 
L 554.012491 147.210051 
L 555.113416 147.429509 
L 557.315268 169.872472 
L 558.416194 149.265792 
L 559.517119 151.805238 
L 560.618045 139.367779 
L 561.718971 158.630836 
L 562.819897 144.9035 
L 563.920823 139.985845 
L 565.021748 161.201633 
L 566.122674 154.931398 
L 567.2236 131.435931 
L 568.324526 189.234062 
L 569.425452 133.196076 
L 570.526377 174.301945 
L 571.627303 147.890819 
L 572.728229 166.791099 
L 573.829155 169.290236 
L 574.93008 189.834213 
L 576.031006 133.661865 
L 577.131932 99.936958 
L 578.232858 137.37474 
L 579.333784 168.864756 
L 580.434709 145.660407 
L 581.535635 156.673627 
L 582.636561 152.248633 
L 583.737487 162.473595 
L 584.838413 129.407062 
L 585.939338 165.398211 
L 587.040264 170.37857 
L 588.14119 164.999604 
L 589.242116 140.684528 
L 590.343041 175.963558 
L 591.443967 134.92039 
L 592.544893 123.76833 
L 593.645819 159.468361 
L 594.746745 131.570293 
L 595.84767 137.670336 
L 596.948596 145.602184 
L 598.049522 145.799248 
L 599.150448 189.484872 
L 600.251374 138.525776 
L 601.352299 161.385261 
L 602.453225 124.15798 
L 603.554151 153.834107 
L 604.655077 119.679241 
L 605.756002 171.417637 
L 606.856928 127.10499 
L 607.957854 151.648482 
L 609.05878 157.452928 
L 610.159706 139.125927 
L 611.260631 168.255647 
L 612.361557 136.69845 
L 613.462483 140.559123 
L 614.563409 147.295147 
L 615.664334 160.3238 
L 616.76526 137.253814 
L 617.866186 163.185714 
L 618.967112 142.780578 
L 620.068038 125.779283 
L 621.168963 126.845223 
L 622.269889 134.750198 
L 624.471741 182.229314 
L 625.572667 171.05038 
L 626.673592 119.132834 
L 627.774518 120.987032 
L 628.875444 112.786461 
L 629.97637 179.707784 
L 631.077295 155.576336 
L 632.178221 167.319591 
L 633.279147 164.735358 
L 634.380073 147.577308 
L 635.480999 144.258562 
L 636.581924 136.935823 
L 637.68285 135.457839 
L 638.783776 125.819592 
L 639.884702 147.402637 
L 640.985628 139.197586 
L 642.086553 146.672602 
L 643.187479 159.844575 
L 644.288405 147.64001 
L 645.389331 108.280849 
L 646.490256 132.282413 
L 647.591182 139.125927 
L 648.692108 131.736007 
L 649.793034 161.613677 
L 650.89396 136.774588 
L 651.994885 144.630297 
L 653.095811 150.936362 
L 654.196737 131.847975 
L 655.297663 142.959727 
L 656.398589 126.455573 
L 657.499514 132.492914 
L 658.60044 155.213558 
L 659.701366 161.985412 
L 660.802292 151.290183 
L 661.903217 141.70568 
L 663.004143 177.768489 
L 664.105069 132.094306 
L 665.205995 161.998848 
L 666.306921 181.499279 
L 667.407846 157.73061 
L 668.508772 140.218739 
L 669.609698 157.278257 
L 670.710624 141.132402 
L 671.81155 160.399938 
L 672.912475 147.138391 
L 674.013401 149.082164 
L 675.114327 147.796766 
L 676.215253 139.833567 
L 677.316178 145.279714 
L 678.417104 173.706273 
L 679.51803 184.437332 
L 680.618956 140.330708 
L 681.719882 152.665156 
L 682.820807 157.394704 
L 683.921733 144.16003 
L 685.022659 142.38197 
L 686.123585 147.299626 
L 687.224511 122.657602 
L 688.325436 130.204278 
L 689.426362 123.042774 
L 690.527288 179.067324 
L 691.628214 94.781929 
L 692.729139 128.515793 
L 693.830065 138.93782 
L 694.930991 135.771351 
L 696.031917 136.367023 
L 697.132843 158.339718 
L 698.233768 156.615404 
L 699.334694 133.245342 
L 700.43562 131.310527 
L 701.536546 164.592038 
L 702.637472 149.135909 
L 703.738397 135.784787 
L 704.839323 139.963451 
L 705.940249 119.437389 
L 707.041175 144.715393 
L 708.1421 167.212101 
L 709.243026 139.694727 
L 710.343952 170.37857 
L 711.444878 122.971114 
L 712.545804 142.140118 
L 713.646729 154.940355 
L 714.747655 128.659113 
L 715.848581 157.994855 
L 716.949507 131.977859 
L 718.050433 167.261367 
L 719.151358 161.940625 
L 720.252284 185.028526 
L 721.35321 130.065437 
L 722.454136 133.858929 
L 723.555061 159.387743 
L 724.655987 145.575311 
L 725.756913 150.788564 
L 726.857839 141.329466 
L 727.958765 146.211292 
L 729.05969 146.497932 
L 730.160616 141.871394 
L 731.261542 147.586265 
L 732.362468 127.754408 
L 733.463394 167.023994 
L 734.564319 144.330222 
L 735.665245 133.263257 
L 736.766171 136.864163 
L 737.867097 155.415102 
L 738.968022 147.389201 
L 740.068948 165.801298 
L 741.169874 210.046764 
L 742.2708 135.829574 
L 743.371726 116.41424 
L 744.472651 163.037916 
L 745.573577 144.410839 
L 746.674503 109.754354 
L 747.775429 161.891359 
L 748.876355 157.251385 
L 749.97728 178.97327 
L 751.078206 150.134668 
L 752.179132 163.015522 
L 753.280058 136.358066 
L 754.380983 135.713127 
L 755.481909 143.37625 
L 756.582835 159.768436 
L 757.683761 128.529229 
L 758.784687 152.100834 
L 759.885612 128.153015 
L 760.986538 148.414832 
L 762.087464 150.90949 
L 763.18839 174.35569 
L 764.289316 124.578981 
L 765.390241 140.106771 
L 766.491167 144.3347 
L 767.592093 151.567864 
L 768.693019 171.79833 
L 769.793944 131.579251 
L 770.89487 135.77583 
L 771.995796 156.570616 
L 773.096722 153.189168 
L 774.197648 123.620531 
L 775.298573 142.829844 
L 776.399499 156.472084 
L 777.500425 165.116051 
L 778.601351 172.25964 
L 779.702277 137.106015 
L 780.803202 132.39886 
L 781.904128 130.867131 
L 783.005054 157.202119 
L 784.10598 167.333027 
L 785.206905 144.182423 
L 786.307831 130.576013 
L 787.408757 133.505109 
L 788.509683 149.73606 
L 789.610609 159.996852 
L 790.711534 148.047575 
L 791.81246 155.809231 
L 792.913386 133.325959 
L 794.014312 139.847004 
L 795.115238 142.56112 
L 796.216163 141.808691 
L 797.317089 160.3238 
L 798.418015 154.864217 
L 799.518941 151.115512 
L 800.619866 162.581084 
L 801.720792 131.149292 
L 802.821718 148.164023 
L 803.922644 126.890011 
L 805.02357 169.608226 
L 806.124495 171.516169 
L 807.225421 162.392977 
L 808.326347 160.131214 
L 809.427273 149.212048 
L 809.427273 149.212048 
" clip-path="url(#pee206b2516)" style="fill: none; stroke: #1f77b4; stroke-width: 1.5; stroke-linecap: round"/>
   </g>
   <g id="patch_3">
    <path d="M 117 384.48 
L 117 51.84 
" style="fill: none; stroke: #262626; stroke-width: 0.8; stroke-linejoin: miter; stroke-linecap: square"/>
   </g>
   <g id="patch_4">
    <path d="M 842.4 384.48 
L 842.4 51.84 
" style="fill: none; stroke: #262626; stroke-width: 0.8; stroke-linejoin: miter; stroke-linecap: square"/>
   </g>
   <g id="patch_5">
    <path d="M 117 384.48 
L 842.4 384.48 
" style="fill: none; stroke: #262626; stroke-width: 0.8; stroke-linejoin: miter; stroke-linecap: square"/>
   </g>
   <g id="patch_6">
    <path d="M 117 51.84 
L 842.4 51.84 
" style="fill: none; stroke: #262626; stroke-width: 0.8; stroke-linejoin: miter; stroke-linecap: square"/>
   </g>
   <g id="text_17">
    <!-- Each id average survival turns: 500 turns for 600 people kill simulation -->
    <g style="fill: #262626" transform="translate(279.013125 45.84)scale(0.12 -0.12)">
     <defs>
      <path id="MicrosoftYaHei-45" d="M 3228 0 
L 625 0 
L 625 4841 
L 3119 4841 
L 3119 4284 
L 1250 4284 
L 1250 2734 
L 2981 2734 
L 2981 2181 
L 1250 2181 
L 1250 553 
L 3228 553 
L 3228 0 
z
" transform="scale(0.015625)"/>
      <path id="MicrosoftYaHei-61" d="M 628 3216 
Q 1144 3538 1819 3538 
Q 3069 3538 3069 2225 
L 3069 0 
L 2463 0 
L 2463 534 
L 2447 534 
Q 2088 -81 1388 -81 
Q 884 -81 587 191 
Q 291 463 291 925 
Q 291 1894 1438 2053 
L 2463 2197 
Q 2463 3044 1763 3044 
Q 1141 3044 628 2625 
L 628 3216 
z
M 1653 1625 
Q 1228 1569 1067 1412 
Q 906 1256 906 975 
Q 906 728 1081 572 
Q 1256 416 1544 416 
Q 1944 416 2203 697 
Q 2463 978 2463 1403 
L 2463 1734 
L 1653 1625 
z
" transform="scale(0.015625)"/>
      <path id="MicrosoftYaHei-63" d="M 2934 156 
Q 2538 -81 1978 -81 
Q 1228 -81 772 400 
Q 316 881 316 1647 
Q 316 2497 808 3017 
Q 1300 3538 2125 3538 
Q 2600 3538 2938 3369 
L 2938 2763 
Q 2572 3031 2125 3031 
Q 1600 3031 1270 2667 
Q 941 2303 941 1697 
Q 941 1100 1252 762 
Q 1563 425 2091 425 
Q 2538 425 2934 719 
L 2934 156 
z
" transform="scale(0.015625)"/>
      <path id="MicrosoftYaHei-68" d="M 3466 0 
L 2856 0 
L 2856 1988 
Q 2856 3031 2081 3031 
Q 1684 3031 1421 2726 
Q 1159 2422 1159 1959 
L 1159 0 
L 547 0 
L 547 5116 
L 1159 5116 
L 1159 2888 
L 1172 2888 
Q 1569 3538 2300 3538 
Q 3466 3538 3466 2128 
L 3466 0 
z
" transform="scale(0.015625)"/>
      <path id="MicrosoftYaHei-20" transform="scale(0.015625)"/>
      <path id="MicrosoftYaHei-76" d="M 3331 3456 
L 1963 0 
L 1344 0 
L 44 3456 
L 713 3456 
L 1556 988 
Q 1659 691 1678 491 
L 1694 491 
Q 1725 753 1803 975 
L 2688 3456 
L 3331 3456 
z
" transform="scale(0.015625)"/>
      <path id="MicrosoftYaHei-65" d="M 3363 1572 
L 944 1572 
Q 959 1019 1246 717 
Q 1534 416 2050 416 
Q 2631 416 3116 788 
L 3116 241 
Q 2659 -81 1906 -81 
Q 1156 -81 736 394 
Q 316 869 316 1713 
Q 316 2506 777 3022 
Q 1238 3538 1922 3538 
Q 2600 3538 2981 3102 
Q 3363 2666 3363 1881 
L 3363 1572 
z
M 2750 2063 
Q 2747 2531 2528 2787 
Q 2309 3044 1913 3044 
Q 1547 3044 1280 2772 
Q 1013 2500 944 2063 
L 2750 2063 
z
" transform="scale(0.015625)"/>
      <path id="MicrosoftYaHei-72" d="M 2400 2850 
Q 2247 2959 1978 2959 
Q 1622 2959 1390 2626 
Q 1159 2294 1159 1750 
L 1159 0 
L 547 0 
L 547 3456 
L 1159 3456 
L 1159 2753 
L 1172 2753 
Q 1434 3516 2078 3516 
Q 2288 3516 2400 3469 
L 2400 2850 
z
" transform="scale(0.015625)"/>
      <path id="MicrosoftYaHei-67" d="M 3547 291 
Q 3547 -1628 1684 -1628 
Q 1041 -1628 566 -1388 
L 566 -797 
Q 1144 -1119 1675 -1119 
Q 2934 -1119 2934 206 
L 2934 572 
L 2922 572 
Q 2528 -81 1747 -81 
Q 1097 -81 706 384 
Q 316 850 316 1619 
Q 316 2503 747 3020 
Q 1178 3538 1897 3538 
Q 2588 3538 2922 2988 
L 2934 2988 
L 2934 3456 
L 3547 3456 
L 3547 291 
z
M 2934 2056 
Q 2938 2456 2666 2743 
Q 2394 3031 1997 3031 
Q 1497 3031 1219 2664 
Q 941 2297 941 1656 
Q 941 1106 1209 765 
Q 1478 425 1922 425 
Q 2369 425 2653 750 
Q 2938 1075 2934 1575 
L 2934 2056 
z
" transform="scale(0.015625)"/>
      <path id="MicrosoftYaHei-73" d="M 353 747 
Q 816 413 1350 413 
Q 2066 413 2066 881 
Q 2066 1081 1909 1211 
Q 1753 1341 1275 1519 
Q 700 1750 528 1976 
Q 356 2203 356 2525 
Q 356 2984 745 3261 
Q 1134 3538 1703 3538 
Q 2144 3538 2522 3384 
L 2522 2794 
Q 2134 3044 1644 3044 
Q 1350 3044 1165 2916 
Q 981 2788 981 2578 
Q 981 2372 1114 2256 
Q 1247 2141 1703 1959 
Q 2281 1744 2484 1512 
Q 2688 1281 2688 941 
Q 2688 466 2298 192 
Q 1909 -81 1291 -81 
Q 753 -81 353 122 
L 353 747 
z
" transform="scale(0.015625)"/>
      <path id="MicrosoftYaHei-75" d="M 3400 0 
L 2784 0 
L 2784 544 
L 2772 544 
Q 2425 -81 1706 -81 
Q 478 -81 478 1388 
L 478 3456 
L 1084 3456 
L 1084 1478 
Q 1084 425 1891 425 
Q 2291 425 2537 720 
Q 2784 1016 2784 1466 
L 2784 3456 
L 3400 3456 
L 3400 0 
z
" transform="scale(0.015625)"/>
      <path id="MicrosoftYaHei-6c" d="M 544 0 
L 544 5116 
L 1156 5116 
L 1156 0 
L 544 0 
z
" transform="scale(0.015625)"/>
      <path id="MicrosoftYaHei-74" d="M 2206 34 
Q 2006 -75 1666 -75 
Q 738 -75 738 953 
L 738 2950 
L 144 2950 
L 144 3456 
L 738 3456 
L 738 4288 
L 1347 4481 
L 1347 3456 
L 2206 3456 
L 2206 2950 
L 1347 2950 
L 1347 1063 
Q 1347 722 1462 575 
Q 1578 428 1847 428 
Q 2053 428 2206 544 
L 2206 34 
z
" transform="scale(0.015625)"/>
      <path id="MicrosoftYaHei-6e" d="M 3469 0 
L 2859 0 
L 2859 1966 
Q 2859 3031 2081 3031 
Q 1678 3031 1418 2731 
Q 1159 2431 1159 1972 
L 1159 0 
L 547 0 
L 547 3456 
L 1159 3456 
L 1159 2884 
L 1172 2884 
Q 1563 3538 2306 3538 
Q 2875 3538 3172 3173 
Q 3469 2809 3469 2113 
L 3469 0 
z
" transform="scale(0.015625)"/>
      <path id="MicrosoftYaHei-3a" d="M 372 3134 
Q 372 3303 490 3415 
Q 609 3528 775 3528 
Q 944 3528 1062 3414 
Q 1181 3300 1181 3134 
Q 1181 2969 1065 2853 
Q 950 2738 772 2738 
Q 603 2738 487 2853 
Q 372 2969 372 3134 
z
M 372 322 
Q 372 491 487 606 
Q 603 722 775 722 
Q 950 722 1065 605 
Q 1181 488 1181 322 
Q 1181 159 1065 42 
Q 950 -75 772 -75 
Q 600 -75 486 42 
Q 372 159 372 322 
z
" transform="scale(0.015625)"/>
      <path id="MicrosoftYaHei-66" d="M 2319 4594 
Q 2147 4684 1947 4684 
Q 1372 4684 1372 3972 
L 1372 3456 
L 2181 3456 
L 2181 2950 
L 1372 2950 
L 1372 0 
L 766 0 
L 766 2950 
L 175 2950 
L 175 3456 
L 766 3456 
L 766 4000 
Q 766 4556 1086 4873 
Q 1406 5191 1900 5191 
Q 2163 5191 2319 5131 
L 2319 4594 
z
" transform="scale(0.015625)"/>
      <path id="MicrosoftYaHei-6f" d="M 316 1691 
Q 316 2547 794 3042 
Q 1272 3538 2091 3538 
Q 2869 3538 3311 3061 
Q 3753 2584 3753 1744 
Q 3753 925 3281 422 
Q 2809 -81 2016 -81 
Q 1241 -81 778 406 
Q 316 894 316 1691 
z
M 941 1709 
Q 941 1113 1242 769 
Q 1544 425 2053 425 
Q 2578 425 2853 761 
Q 3128 1097 3128 1725 
Q 3128 2356 2853 2693 
Q 2578 3031 2053 3031 
Q 1538 3031 1239 2678 
Q 941 2325 941 1709 
z
" transform="scale(0.015625)"/>
      <path id="MicrosoftYaHei-70" d="M 1159 488 
L 1159 -1591 
L 547 -1591 
L 547 3456 
L 1159 3456 
L 1159 2859 
L 1172 2859 
Q 1578 3538 2359 3538 
Q 3022 3538 3398 3073 
Q 3775 2609 3775 1828 
Q 3775 966 3348 442 
Q 2922 -81 2200 -81 
Q 1534 -81 1172 488 
L 1159 488 
z
M 1156 1425 
Q 1156 1003 1428 714 
Q 1700 425 2109 425 
Q 2597 425 2872 800 
Q 3147 1175 3147 1838 
Q 3147 2397 2890 2714 
Q 2634 3031 2191 3031 
Q 1738 3031 1447 2709 
Q 1156 2388 1156 1884 
L 1156 1425 
z
" transform="scale(0.015625)"/>
      <path id="MicrosoftYaHei-6b" d="M 3484 0 
L 2650 0 
L 1172 1666 
L 1159 1666 
L 1159 0 
L 547 0 
L 547 5116 
L 1159 5116 
L 1159 1872 
L 1172 1872 
L 2575 3456 
L 3363 3456 
L 1800 1794 
L 3484 0 
z
" transform="scale(0.015625)"/>
      <path id="MicrosoftYaHei-6d" d="M 5522 0 
L 4909 0 
L 4909 1984 
Q 4909 2547 4734 2789 
Q 4559 3031 4159 3031 
Q 3822 3031 3581 2715 
Q 3341 2400 3341 1969 
L 3341 0 
L 2728 0 
L 2728 2047 
Q 2728 3031 1969 3031 
Q 1619 3031 1389 2731 
Q 1159 2431 1159 1966 
L 1159 0 
L 547 0 
L 547 3456 
L 1159 3456 
L 1159 2909 
L 1172 2909 
Q 1541 3538 2250 3538 
Q 2597 3538 2862 3347 
Q 3128 3156 3231 2831 
Q 3616 3538 4381 3538 
Q 5522 3538 5522 2131 
L 5522 0 
z
" transform="scale(0.015625)"/>
     </defs>
     <use xlink:href="#MicrosoftYaHei-45"/>
     <use xlink:href="#MicrosoftYaHei-61" x="54.980469"/>
     <use xlink:href="#MicrosoftYaHei-63" x="110.253906"/>
     <use xlink:href="#MicrosoftYaHei-68" x="160.400391"/>
     <use xlink:href="#MicrosoftYaHei-20" x="221.972656"/>
     <use xlink:href="#MicrosoftYaHei-69" x="251.5625"/>
     <use xlink:href="#MicrosoftYaHei-64" x="278.173828"/>
     <use xlink:href="#MicrosoftYaHei-20" x="342.138672"/>
     <use xlink:href="#MicrosoftYaHei-61" x="371.728516"/>
     <use xlink:href="#MicrosoftYaHei-76" x="427.001953"/>
     <use xlink:href="#MicrosoftYaHei-65" x="478.867188"/>
     <use xlink:href="#MicrosoftYaHei-72" x="535.605469"/>
     <use xlink:href="#MicrosoftYaHei-61" x="573.789062"/>
     <use xlink:href="#MicrosoftYaHei-67" x="629.0625"/>
     <use xlink:href="#MicrosoftYaHei-65" x="693.027344"/>
     <use xlink:href="#MicrosoftYaHei-20" x="749.765625"/>
     <use xlink:href="#MicrosoftYaHei-73" x="779.355469"/>
     <use xlink:href="#MicrosoftYaHei-75" x="825.644531"/>
     <use xlink:href="#MicrosoftYaHei-72" x="887.265625"/>
     <use xlink:href="#MicrosoftYaHei-76" x="929.824219"/>
     <use xlink:href="#MicrosoftYaHei-69" x="982.314453"/>
     <use xlink:href="#MicrosoftYaHei-76" x="1008.925781"/>
     <use xlink:href="#MicrosoftYaHei-61" x="1059.416016"/>
     <use xlink:href="#MicrosoftYaHei-6c" x="1114.689453"/>
     <use xlink:href="#MicrosoftYaHei-20" x="1141.300781"/>
     <use xlink:href="#MicrosoftYaHei-74" x="1170.890625"/>
     <use xlink:href="#MicrosoftYaHei-75" x="1208.146484"/>
     <use xlink:href="#MicrosoftYaHei-72" x="1269.767578"/>
     <use xlink:href="#MicrosoftYaHei-6e" x="1307.701172"/>
     <use xlink:href="#MicrosoftYaHei-73" x="1369.322266"/>
     <use xlink:href="#MicrosoftYaHei-3a" x="1415.611328"/>
     <use xlink:href="#MicrosoftYaHei-20" x="1439.683594"/>
     <use xlink:href="#MicrosoftYaHei-35" x="1469.273438"/>
     <use xlink:href="#MicrosoftYaHei-30" x="1527.916016"/>
     <use xlink:href="#MicrosoftYaHei-30" x="1586.558594"/>
     <use xlink:href="#MicrosoftYaHei-20" x="1645.201172"/>
     <use xlink:href="#MicrosoftYaHei-74" x="1674.791016"/>
     <use xlink:href="#MicrosoftYaHei-75" x="1712.046875"/>
     <use xlink:href="#MicrosoftYaHei-72" x="1773.667969"/>
     <use xlink:href="#MicrosoftYaHei-6e" x="1811.601562"/>
     <use xlink:href="#MicrosoftYaHei-73" x="1873.222656"/>
     <use xlink:href="#MicrosoftYaHei-20" x="1919.511719"/>
     <use xlink:href="#MicrosoftYaHei-66" x="1949.101562"/>
     <use xlink:href="#MicrosoftYaHei-6f" x="1983.769531"/>
     <use xlink:href="#MicrosoftYaHei-72" x="2047.34375"/>
     <use xlink:href="#MicrosoftYaHei-20" x="2085.527344"/>
     <use xlink:href="#MicrosoftYaHei-36" x="2115.117188"/>
     <use xlink:href="#MicrosoftYaHei-30" x="2173.759766"/>
     <use xlink:href="#MicrosoftYaHei-30" x="2232.402344"/>
     <use xlink:href="#MicrosoftYaHei-20" x="2291.044922"/>
     <use xlink:href="#MicrosoftYaHei-70" x="2320.634766"/>
     <use xlink:href="#MicrosoftYaHei-65" x="2384.501953"/>
     <use xlink:href="#MicrosoftYaHei-6f" x="2441.240234"/>
     <use xlink:href="#MicrosoftYaHei-70" x="2504.814453"/>
     <use xlink:href="#MicrosoftYaHei-6c" x="2568.681641"/>
     <use xlink:href="#MicrosoftYaHei-65" x="2595.292969"/>
     <use xlink:href="#MicrosoftYaHei-20" x="2652.03125"/>
     <use xlink:href="#MicrosoftYaHei-6b" x="2681.621094"/>
     <use xlink:href="#MicrosoftYaHei-69" x="2736.064453"/>
     <use xlink:href="#MicrosoftYaHei-6c" x="2762.675781"/>
     <use xlink:href="#MicrosoftYaHei-6c" x="2789.287109"/>
     <use xlink:href="#MicrosoftYaHei-20" x="2815.898438"/>
     <use xlink:href="#MicrosoftYaHei-73" x="2845.488281"/>
     <use xlink:href="#MicrosoftYaHei-69" x="2891.777344"/>
     <use xlink:href="#MicrosoftYaHei-6d" x="2918.388672"/>
     <use xlink:href="#MicrosoftYaHei-75" x="3012.089844"/>
     <use xlink:href="#MicrosoftYaHei-6c" x="3073.710938"/>
     <use xlink:href="#MicrosoftYaHei-61" x="3100.322266"/>
     <use xlink:href="#MicrosoftYaHei-74" x="3155.595703"/>
     <use xlink:href="#MicrosoftYaHei-69" x="3192.851562"/>
     <use xlink:href="#MicrosoftYaHei-6f" x="3219.462891"/>
     <use xlink:href="#MicrosoftYaHei-6e" x="3283.037109"/>
    </g>
   </g>
   <g id="legend_1">
    <g id="patch_7">
     <path d="M 710.446875 75.3775 
L 835.4 75.3775 
Q 837.4 75.3775 837.4 73.3775 
L 837.4 58.84 
Q 837.4 56.84 835.4 56.84 
L 710.446875 56.84 
Q 708.446875 56.84 708.446875 58.84 
L 708.446875 73.3775 
Q 708.446875 75.3775 710.446875 75.3775 
z
" style="fill: #ffffff; opacity: 0.8; stroke: #cccccc; stroke-linejoin: miter"/>
    </g>
    <g id="line2d_2">
     <path d="M 712.446875 65.33375 
L 722.446875 65.33375 
L 732.446875 65.33375 
" style="fill: none; stroke: #1f77b4; stroke-width: 1.5; stroke-linecap: round"/>
    </g>
    <g id="text_18">
     <!-- average_alive_turns -->
     <g style="fill: #262626" transform="translate(740.446875 68.83375)scale(0.1 -0.1)">
      <defs>
       <path id="MicrosoftYaHei-5f" d="M 2869 -1003 
L 0 -1003 
L 0 -600 
L 2869 -600 
L 2869 -1003 
z
" transform="scale(0.015625)"/>
      </defs>
      <use xlink:href="#MicrosoftYaHei-61"/>
      <use xlink:href="#MicrosoftYaHei-76" x="55.273438"/>
      <use xlink:href="#MicrosoftYaHei-65" x="107.138672"/>
      <use xlink:href="#MicrosoftYaHei-72" x="163.876953"/>
      <use xlink:href="#MicrosoftYaHei-61" x="202.060547"/>
      <use xlink:href="#MicrosoftYaHei-67" x="257.333984"/>
      <use xlink:href="#MicrosoftYaHei-65" x="321.298828"/>
      <use xlink:href="#MicrosoftYaHei-5f" x="378.037109"/>
      <use xlink:href="#MicrosoftYaHei-61" x="422.861328"/>
      <use xlink:href="#MicrosoftYaHei-6c" x="478.134766"/>
      <use xlink:href="#MicrosoftYaHei-69" x="504.746094"/>
      <use xlink:href="#MicrosoftYaHei-76" x="531.357422"/>
      <use xlink:href="#MicrosoftYaHei-65" x="583.222656"/>
      <use xlink:href="#MicrosoftYaHei-5f" x="639.960938"/>
      <use xlink:href="#MicrosoftYaHei-74" x="684.785156"/>
      <use xlink:href="#MicrosoftYaHei-75" x="722.041016"/>
      <use xlink:href="#MicrosoftYaHei-72" x="783.662109"/>
      <use xlink:href="#MicrosoftYaHei-6e" x="821.595703"/>
      <use xlink:href="#MicrosoftYaHei-73" x="883.216797"/>
     </g>
    </g>
   </g>
  </g>
 </g>
 <defs>
  <clipPath id="pee206b2516">
   <rect x="117" y="51.84" width="725.4" height="332.64"/>
  </clipPath>
 </defs>
</svg>
