<?xml version="1.0" encoding="utf-8" standalone="no"?>
<!DOCTYPE svg PUBLIC "-//W3C//DTD SVG 1.1//EN"
  "http://www.w3.org/Graphics/SVG/1.1/DTD/svg11.dtd">
<svg xmlns:xlink="http://www.w3.org/1999/xlink" width="936pt" height="432pt" viewBox="0 0 936 432" xmlns="http://www.w3.org/2000/svg" version="1.1">
 <metadata>
  <rdf:RDF xmlns:dc="http://purl.org/dc/elements/1.1/" xmlns:cc="http://creativecommons.org/ns#" xmlns:rdf="http://www.w3.org/1999/02/22-rdf-syntax-ns#">
   <cc:Work>
    <dc:type rdf:resource="http://purl.org/dc/dcmitype/StillImage"/>
    <dc:date>2024-08-18T23:43:29.907111</dc:date>
    <dc:format>image/svg+xml</dc:format>
    <dc:creator>
     <cc:Agent>
      <dc:title>Matplotlib v3.5.1, https://matplotlib.org/</dc:title>
     </cc:Agent>
    </dc:creator>
   </cc:Work>
  </rdf:RDF>
 </metadata>
 <defs>
  <style type="text/css">*{stroke-linejoin: round; stroke-linecap: butt}</style>
 </defs>
 <g id="figure_1">
  <g id="patch_1">
   <path d="M 0 432 
L 936 432 
L 936 0 
L 0 0 
z
" style="fill: #ffffff"/>
  </g>
  <g id="axes_1">
   <g id="patch_2">
    <path d="M 117 384.48 
L 842.4 384.48 
L 842.4 51.84 
L 117 51.84 
z
" style="fill: #ffffff"/>
   </g>
   <g id="matplotlib.axis_1">
    <g id="xtick_1">
     <g id="text_1">
      <!-- 0 -->
      <g style="fill: #262626" transform="translate(145.93977 399.47375)scale(0.1 -0.1)">
       <defs>
        <path id="MicrosoftYaHei-30" d="M 284 2325 
Q 284 3606 709 4264 
Q 1134 4922 1941 4922 
Q 3478 4922 3478 2441 
Q 3478 1216 3045 567 
Q 2613 -81 1831 -81 
Q 1094 -81 689 534 
Q 284 1150 284 2325 
z
M 909 2353 
Q 909 425 1888 425 
Q 2850 425 2850 2384 
Q 2850 4413 1906 4413 
Q 909 4413 909 2353 
z
" transform="scale(0.015625)"/>
       </defs>
       <use xlink:href="#MicrosoftYaHei-30"/>
      </g>
     </g>
    </g>
    <g id="xtick_2">
     <g id="text_2">
      <!-- 100 -->
      <g style="fill: #262626" transform="translate(250.168286 399.47375)scale(0.1 -0.1)">
       <defs>
        <path id="MicrosoftYaHei-31" d="M 3366 0 
L 591 0 
L 591 528 
L 1675 528 
L 1675 4203 
L 563 3881 
L 563 4444 
L 2284 4944 
L 2284 528 
L 3366 528 
L 3366 0 
z
" transform="scale(0.015625)"/>
       </defs>
       <use xlink:href="#MicrosoftYaHei-31"/>
       <use xlink:href="#MicrosoftYaHei-30" x="58.642578"/>
       <use xlink:href="#MicrosoftYaHei-30" x="117.285156"/>
      </g>
     </g>
    </g>
    <g id="xtick_3">
     <g id="text_3">
      <!-- 200 -->
      <g style="fill: #262626" transform="translate(360.260865 399.47375)scale(0.1 -0.1)">
       <defs>
        <path id="MicrosoftYaHei-32" d="M 3275 0 
L 331 0 
L 331 531 
L 1738 1934 
Q 2319 2516 2516 2855 
Q 2713 3194 2713 3556 
Q 2713 3969 2481 4189 
Q 2250 4409 1813 4409 
Q 1166 4409 578 3859 
L 578 4481 
Q 1150 4922 1909 4922 
Q 2563 4922 2941 4569 
Q 3319 4216 3319 3619 
Q 3319 3169 3076 2736 
Q 2834 2303 2159 1634 
L 1056 556 
L 1056 544 
L 3275 544 
L 3275 0 
z
" transform="scale(0.015625)"/>
       </defs>
       <use xlink:href="#MicrosoftYaHei-32"/>
       <use xlink:href="#MicrosoftYaHei-30" x="58.642578"/>
       <use xlink:href="#MicrosoftYaHei-30" x="117.285156"/>
      </g>
     </g>
    </g>
    <g id="xtick_4">
     <g id="text_4">
      <!-- 300 -->
      <g style="fill: #262626" transform="translate(470.353443 399.47375)scale(0.1 -0.1)">
       <defs>
        <path id="MicrosoftYaHei-33" d="M 447 809 
Q 944 425 1569 425 
Q 2069 425 2361 670 
Q 2653 916 2653 1328 
Q 2653 2247 1338 2247 
L 934 2247 
L 934 2753 
L 1319 2753 
Q 2484 2753 2484 3616 
Q 2484 4413 1594 4413 
Q 1084 4413 634 4069 
L 634 4647 
Q 1109 4922 1744 4922 
Q 2363 4922 2738 4598 
Q 3113 4275 3113 3759 
Q 3113 2809 2144 2538 
L 2144 2525 
Q 2669 2469 2973 2155 
Q 3278 1841 3278 1372 
Q 3278 719 2808 319 
Q 2338 -81 1556 -81 
Q 869 -81 447 175 
L 447 809 
z
" transform="scale(0.015625)"/>
       </defs>
       <use xlink:href="#MicrosoftYaHei-33"/>
       <use xlink:href="#MicrosoftYaHei-30" x="58.642578"/>
       <use xlink:href="#MicrosoftYaHei-30" x="117.285156"/>
      </g>
     </g>
    </g>
    <g id="xtick_5">
     <g id="text_5">
      <!-- 400 -->
      <g style="fill: #262626" transform="translate(580.446022 399.47375)scale(0.1 -0.1)">
       <defs>
        <path id="MicrosoftYaHei-34" d="M 3525 1256 
L 2906 1256 
L 2906 0 
L 2313 0 
L 2313 1256 
L 56 1256 
L 56 1653 
L 2197 4841 
L 2906 4841 
L 2906 1741 
L 3525 1741 
L 3525 1256 
z
M 2313 1741 
L 2313 3769 
Q 2313 3984 2325 4266 
L 2313 4266 
Q 2269 4147 2128 3894 
L 688 1741 
L 2313 1741 
z
" transform="scale(0.015625)"/>
       </defs>
       <use xlink:href="#MicrosoftYaHei-34"/>
       <use xlink:href="#MicrosoftYaHei-30" x="58.642578"/>
       <use xlink:href="#MicrosoftYaHei-30" x="117.285156"/>
      </g>
     </g>
    </g>
    <g id="xtick_6">
     <g id="text_6">
      <!-- 500 -->
      <g style="fill: #262626" transform="translate(690.5386 399.47375)scale(0.1 -0.1)">
       <defs>
        <path id="MicrosoftYaHei-35" d="M 553 744 
Q 1041 425 1569 425 
Q 2069 425 2375 704 
Q 2681 984 2681 1447 
Q 2681 1913 2370 2169 
Q 2059 2425 1469 2425 
Q 1184 2425 703 2381 
L 703 4841 
L 3084 4841 
L 3084 4300 
L 1272 4300 
L 1272 2931 
Q 1544 2947 1681 2947 
Q 2447 2947 2875 2559 
Q 3303 2172 3303 1491 
Q 3303 788 2843 353 
Q 2384 -81 1575 -81 
Q 897 -81 553 119 
L 553 744 
z
" transform="scale(0.015625)"/>
       </defs>
       <use xlink:href="#MicrosoftYaHei-35"/>
       <use xlink:href="#MicrosoftYaHei-30" x="58.642578"/>
       <use xlink:href="#MicrosoftYaHei-30" x="117.285156"/>
      </g>
     </g>
    </g>
    <g id="xtick_7">
     <g id="text_7">
      <!-- 600 -->
      <g style="fill: #262626" transform="translate(800.631179 399.47375)scale(0.1 -0.1)">
       <defs>
        <path id="MicrosoftYaHei-36" d="M 3181 4219 
Q 2803 4413 2391 4413 
Q 1763 4413 1381 3866 
Q 1000 3319 994 2372 
L 1009 2372 
Q 1353 3038 2106 3038 
Q 2734 3038 3109 2628 
Q 3484 2219 3484 1541 
Q 3484 831 3051 375 
Q 2619 -81 1947 -81 
Q 1209 -81 789 495 
Q 369 1072 369 2131 
Q 369 3413 920 4167 
Q 1472 4922 2372 4922 
Q 2888 4922 3181 4781 
L 3181 4219 
z
M 1031 1584 
Q 1031 1106 1286 765 
Q 1541 425 1963 425 
Q 2363 425 2613 719 
Q 2863 1013 2863 1475 
Q 2863 1975 2627 2253 
Q 2391 2531 1956 2531 
Q 1544 2531 1287 2250 
Q 1031 1969 1031 1584 
z
" transform="scale(0.015625)"/>
       </defs>
       <use xlink:href="#MicrosoftYaHei-36"/>
       <use xlink:href="#MicrosoftYaHei-30" x="58.642578"/>
       <use xlink:href="#MicrosoftYaHei-30" x="117.285156"/>
      </g>
     </g>
    </g>
    <g id="text_8">
     <!-- id -->
     <g style="fill: #262626" transform="translate(475.171094 413.953438)scale(0.1 -0.1)">
      <defs>
       <path id="MicrosoftYaHei-69" d="M 472 4675 
Q 472 4838 583 4948 
Q 694 5059 856 5059 
Q 1022 5059 1136 4950 
Q 1250 4841 1250 4675 
Q 1250 4513 1136 4405 
Q 1022 4297 856 4297 
Q 691 4297 581 4405 
Q 472 4513 472 4675 
z
M 544 0 
L 544 3456 
L 1156 3456 
L 1156 0 
L 544 0 
z
" transform="scale(0.015625)"/>
       <path id="MicrosoftYaHei-64" d="M 3547 0 
L 2934 0 
L 2934 575 
L 2922 575 
Q 2544 -81 1747 -81 
Q 1091 -81 703 386 
Q 316 853 316 1647 
Q 316 2503 753 3020 
Q 1191 3538 1897 3538 
Q 2603 3538 2922 2988 
L 2934 2988 
L 2934 5116 
L 3547 5116 
L 3547 0 
z
M 2938 2056 
Q 2938 2472 2664 2751 
Q 2391 3031 1991 3031 
Q 1503 3031 1222 2667 
Q 941 2303 941 1675 
Q 941 1097 1211 761 
Q 1481 425 1931 425 
Q 2375 425 2656 754 
Q 2938 1084 2938 1575 
L 2938 2056 
z
" transform="scale(0.015625)"/>
      </defs>
      <use xlink:href="#MicrosoftYaHei-69"/>
      <use xlink:href="#MicrosoftYaHei-64" x="26.611328"/>
     </g>
    </g>
   </g>
   <g id="matplotlib.axis_2">
    <g id="ytick_1">
     <g id="text_9">
      <!-- 0 -->
      <g style="fill: #262626" transform="translate(104.135937 373.356875)scale(0.1 -0.1)">
       <use xlink:href="#MicrosoftYaHei-30"/>
      </g>
     </g>
    </g>
    <g id="ytick_2">
     <g id="text_10">
      <!-- 100 -->
      <g style="fill: #262626" transform="translate(92.407813 329.530788)scale(0.1 -0.1)">
       <use xlink:href="#MicrosoftYaHei-31"/>
       <use xlink:href="#MicrosoftYaHei-30" x="58.642578"/>
       <use xlink:href="#MicrosoftYaHei-30" x="117.285156"/>
      </g>
     </g>
    </g>
    <g id="ytick_3">
     <g id="text_11">
      <!-- 200 -->
      <g style="fill: #262626" transform="translate(92.407813 285.704701)scale(0.1 -0.1)">
       <use xlink:href="#MicrosoftYaHei-32"/>
       <use xlink:href="#MicrosoftYaHei-30" x="58.642578"/>
       <use xlink:href="#MicrosoftYaHei-30" x="117.285156"/>
      </g>
     </g>
    </g>
    <g id="ytick_4">
     <g id="text_12">
      <!-- 300 -->
      <g style="fill: #262626" transform="translate(92.407813 241.878614)scale(0.1 -0.1)">
       <use xlink:href="#MicrosoftYaHei-33"/>
       <use xlink:href="#MicrosoftYaHei-30" x="58.642578"/>
       <use xlink:href="#MicrosoftYaHei-30" x="117.285156"/>
      </g>
     </g>
    </g>
    <g id="ytick_5">
     <g id="text_13">
      <!-- 400 -->
      <g style="fill: #262626" transform="translate(92.407813 198.052527)scale(0.1 -0.1)">
       <use xlink:href="#MicrosoftYaHei-34"/>
       <use xlink:href="#MicrosoftYaHei-30" x="58.642578"/>
       <use xlink:href="#MicrosoftYaHei-30" x="117.285156"/>
      </g>
     </g>
    </g>
    <g id="ytick_6">
     <g id="text_14">
      <!-- 500 -->
      <g style="fill: #262626" transform="translate(92.407813 154.22644)scale(0.1 -0.1)">
       <use xlink:href="#MicrosoftYaHei-35"/>
       <use xlink:href="#MicrosoftYaHei-30" x="58.642578"/>
       <use xlink:href="#MicrosoftYaHei-30" x="117.285156"/>
      </g>
     </g>
    </g>
    <g id="ytick_7">
     <g id="text_15">
      <!-- 600 -->
      <g style="fill: #262626" transform="translate(92.407813 110.400353)scale(0.1 -0.1)">
       <use xlink:href="#MicrosoftYaHei-36"/>
       <use xlink:href="#MicrosoftYaHei-30" x="58.642578"/>
       <use xlink:href="#MicrosoftYaHei-30" x="117.285156"/>
      </g>
     </g>
    </g>
    <g id="ytick_8">
     <g id="text_16">
      <!-- 700 -->
      <g style="fill: #262626" transform="translate(92.407813 66.574266)scale(0.1 -0.1)">
       <defs>
        <path id="MicrosoftYaHei-37" d="M 3441 4628 
L 1547 0 
L 913 0 
L 2713 4300 
L 294 4300 
L 294 4841 
L 3441 4841 
L 3441 4628 
z
" transform="scale(0.015625)"/>
       </defs>
       <use xlink:href="#MicrosoftYaHei-37"/>
       <use xlink:href="#MicrosoftYaHei-30" x="58.642578"/>
       <use xlink:href="#MicrosoftYaHei-30" x="117.285156"/>
      </g>
     </g>
    </g>
   </g>
   <g id="line2d_1">
    <path d="M 149.972727 369.36 
L 151.073653 368.483478 
L 152.174579 369.36 
L 153.275505 366.292174 
L 154.37643 367.606957 
L 155.477356 364.977391 
L 156.578282 366.292174 
L 157.679208 365.853913 
L 158.780134 364.10087 
L 159.881059 364.53913 
L 160.981985 364.53913 
L 162.082911 363.662609 
L 163.183837 363.662609 
L 164.284762 362.786087 
L 165.385688 362.347826 
L 166.486614 362.786087 
L 167.58754 364.977391 
L 168.688466 363.224348 
L 169.789391 357.088696 
L 170.890317 356.212174 
L 171.991243 358.403478 
L 174.193095 357.526957 
L 175.29402 357.965217 
L 176.394946 361.033043 
L 177.495872 357.526957 
L 178.596798 355.335652 
L 179.697723 354.02087 
L 180.798649 355.335652 
L 181.899575 354.02087 
L 183.000501 350.076522 
L 184.101427 352.706087 
L 185.202352 354.45913 
L 186.303278 351.829565 
L 187.404204 353.582609 
L 188.50513 354.45913 
L 189.606056 356.212174 
L 190.706981 346.570435 
L 191.807907 349.638261 
L 192.908833 353.144348 
L 194.009759 351.391304 
L 195.110684 350.514783 
L 196.21161 352.706087 
L 197.312536 353.144348 
L 198.413462 346.570435 
L 199.514388 343.94087 
L 200.615313 344.37913 
L 201.716239 351.391304 
L 202.817165 338.243478 
L 203.918091 347.008696 
L 205.019017 346.570435 
L 206.119942 343.502609 
L 207.220868 343.94087 
L 208.321794 340.873043 
L 209.42272 341.311304 
L 210.523645 343.064348 
L 211.624571 341.749565 
L 212.725497 341.749565 
L 213.826423 340.873043 
L 214.927349 338.243478 
L 216.028274 338.681739 
L 217.1292 337.805217 
L 218.230126 343.94087 
L 219.331052 339.558261 
L 220.431978 342.187826 
L 221.532903 329.04 
L 222.633829 335.613913 
L 223.734755 332.107826 
L 224.835681 340.873043 
L 225.936606 329.916522 
L 227.037532 330.793043 
L 228.138458 339.12 
L 229.239384 339.558261 
L 230.34031 326.848696 
L 231.441235 328.601739 
L 232.542161 329.04 
L 233.643087 336.052174 
L 234.744013 332.546087 
L 235.844939 336.052174 
L 236.945864 329.478261 
L 238.04679 332.546087 
L 239.147716 321.151304 
L 240.248642 333.422609 
L 241.349567 334.29913 
L 242.450493 334.737391 
L 243.551419 328.163478 
L 244.652345 327.725217 
L 245.753271 327.725217 
L 246.854196 323.342609 
L 247.955122 326.410435 
L 249.056048 324.657391 
L 250.156974 324.657391 
L 251.2579 329.04 
L 253.459751 318.96 
L 254.560677 329.04 
L 255.661603 323.342609 
L 256.762528 320.274783 
L 257.863454 318.96 
L 258.96438 311.509565 
L 260.065306 315.015652 
L 261.166232 328.163478 
L 262.267157 319.398261 
L 263.368083 318.96 
L 264.469009 312.824348 
L 265.569935 319.836522 
L 266.670861 324.21913 
L 267.771786 311.509565 
L 268.872712 320.274783 
L 269.973638 314.13913 
L 271.074564 322.027826 
L 272.175489 325.533913 
L 273.276415 308.88 
L 274.377341 311.947826 
L 275.478267 312.824348 
L 276.579193 309.756522 
L 277.680118 308.003478 
L 278.781044 315.453913 
L 279.88197 309.756522 
L 280.982896 302.744348 
L 282.083822 312.824348 
L 283.184747 307.565217 
L 284.285673 308.441739 
L 285.386599 307.565217 
L 286.487525 300.114783 
L 287.58845 308.003478 
L 288.689376 308.441739 
L 289.790302 307.126957 
L 290.891228 310.633043 
L 291.992154 304.935652 
L 293.093079 302.744348 
L 294.194005 308.88 
L 295.294931 303.62087 
L 296.395857 301.429565 
L 297.496783 303.62087 
L 298.597708 303.62087 
L 299.698634 300.114783 
L 300.79956 301.429565 
L 301.900486 306.250435 
L 303.001411 304.935652 
L 304.102337 310.194783 
L 305.203263 300.991304 
L 306.304189 314.13913 
L 307.405115 290.473043 
L 308.50604 307.565217 
L 309.606966 297.923478 
L 310.707892 294.855652 
L 311.808818 308.003478 
L 312.909744 285.213913 
L 314.010669 294.855652 
L 315.111595 303.182609 
L 316.212521 291.787826 
L 317.313447 303.62087 
L 318.414372 292.664348 
L 319.515298 298.361739 
L 320.616224 283.022609 
L 321.71715 291.349565 
L 322.818076 292.664348 
L 323.919001 295.293913 
L 325.019927 290.911304 
L 326.120853 285.213913 
L 327.221779 293.97913 
L 328.322705 276.448696 
L 329.42363 290.473043 
L 330.524556 291.787826 
L 331.625482 284.775652 
L 332.726408 285.213913 
L 333.827333 294.417391 
L 334.928259 278.64 
L 336.029185 281.269565 
L 337.130111 286.966957 
L 338.231037 286.528696 
L 339.331962 287.843478 
L 340.432888 284.337391 
L 341.533814 283.89913 
L 342.63474 275.572174 
L 343.735666 277.763478 
L 344.836591 280.393043 
L 345.937517 285.213913 
L 347.038443 279.954783 
L 348.139369 282.146087 
L 349.240294 274.695652 
L 350.34122 281.269565 
L 351.442146 285.213913 
L 352.543072 290.473043 
L 353.643998 284.775652 
L 354.744923 271.189565 
L 355.845849 274.257391 
L 356.946775 279.078261 
L 358.047701 270.751304 
L 359.148626 282.146087 
L 360.249552 272.504348 
L 361.350478 279.516522 
L 362.451404 269.436522 
L 363.55233 270.313043 
L 364.653255 274.257391 
L 365.754181 272.066087 
L 366.855107 274.695652 
L 367.956033 279.954783 
L 369.056959 268.998261 
L 370.157884 268.998261 
L 371.25881 276.010435 
L 372.359736 278.201739 
L 373.460662 271.189565 
L 374.561587 265.930435 
L 375.662513 272.066087 
L 376.763439 280.831304 
L 377.864365 260.233043 
L 378.965291 261.547826 
L 381.167142 266.806957 
L 382.268068 272.066087 
L 383.368994 269.874783 
L 384.46992 261.547826 
L 385.570845 264.177391 
L 386.671771 265.053913 
L 387.772697 268.121739 
L 388.873623 274.257391 
L 389.974548 263.73913 
L 391.075474 258.48 
L 392.1764 271.627826 
L 393.277326 268.121739 
L 394.378252 265.053913 
L 395.479177 258.041739 
L 396.580103 252.782609 
L 397.681029 268.56 
L 398.781955 263.30087 
L 399.882881 252.782609 
L 400.983806 266.806957 
L 402.084732 261.986087 
L 403.185658 265.053913 
L 404.286584 254.535652 
L 405.387509 261.109565 
L 406.488435 258.48 
L 407.589361 250.591304 
L 408.690287 254.535652 
L 409.791213 259.356522 
L 410.892138 246.208696 
L 411.993064 249.714783 
L 413.09399 247.523478 
L 414.194916 262.862609 
L 415.295842 249.714783 
L 416.396767 258.041739 
L 417.497693 248.4 
L 418.598619 249.276522 
L 419.699545 246.208696 
L 420.80047 248.4 
L 421.901396 244.893913 
L 423.002322 238.32 
L 424.103248 259.356522 
L 425.204174 257.165217 
L 426.305099 243.57913 
L 427.406025 248.838261 
L 428.506951 253.22087 
L 429.607877 238.32 
L 430.708803 239.634783 
L 431.809728 235.252174 
L 432.910654 243.14087 
L 434.01158 255.412174 
L 435.112506 232.622609 
L 436.213431 235.252174 
L 437.314357 249.276522 
L 439.516209 227.363478 
L 440.617135 229.993043 
L 441.71806 242.264348 
L 442.818986 250.591304 
L 443.919912 238.758261 
L 445.020838 245.770435 
L 446.121764 249.276522 
L 447.222689 238.758261 
L 448.323615 248.4 
L 449.424541 240.073043 
L 450.525467 235.690435 
L 451.626392 225.172174 
L 452.727318 236.566957 
L 453.828244 232.622609 
L 454.92917 242.264348 
L 456.030096 231.307826 
L 457.131021 217.283478 
L 458.231947 240.073043 
L 459.332873 231.746087 
L 460.433799 230.869565 
L 461.534725 227.363478 
L 462.63565 225.172174 
L 463.736576 226.048696 
L 464.837502 218.16 
L 465.938428 240.511304 
L 467.039353 225.172174 
L 468.140279 232.622609 
L 470.342131 216.406957 
L 471.443057 233.937391 
L 472.543982 221.666087 
L 473.644908 229.993043 
L 474.745834 233.06087 
L 475.84676 229.554783 
L 476.947686 221.227826 
L 478.048611 223.857391 
L 479.149537 233.937391 
L 480.250463 231.307826 
L 481.351389 227.363478 
L 482.452314 220.351304 
L 483.55324 227.363478 
L 484.654166 227.363478 
L 485.755092 218.598261 
L 486.856018 213.33913 
L 487.956943 205.012174 
L 489.057869 225.172174 
L 490.158795 216.845217 
L 491.259721 215.968696 
L 492.360647 211.147826 
L 493.461572 216.845217 
L 494.562498 210.709565 
L 495.663424 221.227826 
L 496.76435 196.246957 
L 497.865275 207.203478 
L 498.966201 216.845217 
L 500.067127 209.394783 
L 501.168053 208.956522 
L 502.268979 215.530435 
L 503.369904 216.406957 
L 504.47083 208.08 
L 505.571756 205.450435 
L 506.672682 201.944348 
L 507.773608 208.08 
L 508.874533 202.82087 
L 509.975459 229.116522 
L 511.076385 208.956522 
L 512.177311 201.067826 
L 513.278236 204.573913 
L 514.379162 206.326957 
L 515.480088 204.573913 
L 516.581014 213.777391 
L 517.68194 219.913043 
L 518.782865 208.956522 
L 519.883791 208.956522 
L 522.085643 202.82087 
L 523.186569 201.067826 
L 524.287494 202.82087 
L 525.38842 194.055652 
L 526.489346 201.067826 
L 527.590272 215.092174 
L 528.691197 212.90087 
L 529.792123 198.876522 
L 530.893049 198 
L 531.993975 211.147826 
L 534.195826 197.561739 
L 535.296752 213.33913 
L 536.397678 198.438261 
L 537.498604 217.283478 
L 538.59953 191.864348 
L 539.700455 192.74087 
L 540.801381 208.518261 
L 543.003233 190.549565 
L 544.104158 187.481739 
L 545.205084 186.166957 
L 546.30601 207.203478 
L 547.406936 185.290435 
L 548.507862 191.864348 
L 549.608787 187.481739 
L 550.709713 182.222609 
L 551.810639 191.864348 
L 552.911565 193.17913 
L 554.012491 189.234783 
L 555.113416 205.012174 
L 556.214342 175.648696 
L 557.315268 203.25913 
L 558.416194 179.154783 
L 559.517119 191.426087 
L 560.618045 183.537391 
L 561.718971 159.433043 
L 562.819897 190.111304 
L 563.920823 201.506087 
L 565.021748 179.154783 
L 566.122674 179.154783 
L 567.2236 180.469565 
L 568.324526 186.605217 
L 569.425452 176.525217 
L 570.526377 179.593043 
L 571.627303 192.74087 
L 572.728229 170.389565 
L 573.829155 175.648696 
L 574.93008 199.314783 
L 576.031006 167.321739 
L 577.131932 172.58087 
L 578.232858 176.963478 
L 579.333784 178.716522 
L 580.434709 181.346087 
L 581.535635 175.648696 
L 582.636561 180.907826 
L 583.737487 190.987826 
L 584.838413 169.513043 
L 585.939338 181.346087 
L 587.040264 177.401739 
L 588.14119 179.154783 
L 589.242116 172.58087 
L 590.343041 164.692174 
L 591.443967 177.84 
L 592.544893 171.266087 
L 593.645819 160.747826 
L 594.746745 166.006957 
L 595.84767 173.01913 
L 596.948596 177.84 
L 598.049522 160.747826 
L 599.150448 174.772174 
L 600.251374 162.93913 
L 601.352299 173.895652 
L 602.453225 189.234783 
L 603.554151 158.556522 
L 604.655077 182.222609 
L 605.756002 172.58087 
L 606.856928 175.210435 
L 607.957854 171.704348 
L 609.05878 166.445217 
L 610.159706 177.84 
L 611.260631 165.130435 
L 612.361557 166.006957 
L 613.462483 165.568696 
L 614.563409 158.994783 
L 615.664334 159.433043 
L 616.76526 174.772174 
L 617.866186 141.026087 
L 618.967112 152.42087 
L 620.068038 166.883478 
L 621.168963 173.01913 
L 622.269889 157.241739 
L 623.370815 169.513043 
L 624.471741 170.827826 
L 625.572667 162.062609 
L 626.673592 170.827826 
L 627.774518 166.445217 
L 628.875444 164.692174 
L 629.97637 151.544348 
L 631.077295 154.173913 
L 632.178221 179.593043 
L 633.279147 152.85913 
L 634.380073 142.34087 
L 635.480999 151.106087 
L 636.581924 167.321739 
L 637.68285 162.062609 
L 638.783776 153.735652 
L 639.884702 139.273043 
L 642.086553 137.52 
L 643.187479 152.42087 
L 644.288405 145.408696 
L 645.389331 169.074783 
L 646.490256 161.624348 
L 647.591182 128.316522 
L 648.692108 159.433043 
L 649.793034 134.013913 
L 650.89396 137.958261 
L 651.994885 156.365217 
L 653.095811 148.914783 
L 654.196737 136.205217 
L 655.297663 138.396522 
L 656.398589 149.353043 
L 657.499514 148.038261 
L 658.60044 153.735652 
L 659.701366 142.34087 
L 660.802292 149.791304 
L 661.903217 155.050435 
L 663.004143 124.372174 
L 664.105069 143.655652 
L 665.205995 131.384348 
L 666.306921 143.217391 
L 667.407846 157.241739 
L 668.508772 147.161739 
L 669.609698 130.507826 
L 670.710624 133.137391 
L 671.81155 130.946087 
L 672.912475 139.711304 
L 674.013401 129.193043 
L 675.114327 133.575652 
L 676.215253 127.878261 
L 677.316178 123.933913 
L 679.51803 134.452174 
L 680.618956 137.081739 
L 681.719882 141.464348 
L 682.820807 137.958261 
L 683.921733 140.587826 
L 685.022659 120.427826 
L 686.123585 138.396522 
L 687.224511 112.53913 
L 689.426362 126.563478 
L 690.527288 148.476522 
L 691.628214 128.316522 
L 692.729139 138.396522 
L 693.830065 119.551304 
L 694.930991 129.631304 
L 696.031917 116.045217 
L 697.132843 125.686957 
L 698.233768 119.113043 
L 699.334694 117.798261 
L 700.43562 104.212174 
L 701.536546 141.464348 
L 702.637472 123.933913 
L 703.738397 115.168696 
L 704.839323 128.316522 
L 705.940249 132.26087 
L 707.041175 112.53913 
L 708.1421 109.033043 
L 709.243026 123.495652 
L 710.343952 102.45913 
L 711.444878 124.372174 
L 712.545804 104.650435 
L 713.646729 131.384348 
L 714.747655 113.415652 
L 715.848581 121.304348 
L 716.949507 99.829565 
L 718.050433 104.650435 
L 719.151358 117.36 
L 720.252284 95.885217 
L 721.35321 120.427826 
L 722.454136 116.045217 
L 723.555061 125.686957 
L 724.655987 109.471304 
L 726.857839 123.057391 
L 727.958765 107.28 
L 729.05969 116.483478 
L 730.160616 107.718261 
L 731.261542 116.921739 
L 732.362468 112.977391 
L 733.463394 93.693913 
L 734.564319 133.137391 
L 735.665245 115.606957 
L 736.766171 103.773913 
L 737.867097 97.638261 
L 738.968022 105.088696 
L 740.068948 108.156522 
L 741.169874 95.008696 
L 742.2708 99.391304 
L 743.371726 119.551304 
L 744.472651 102.897391 
L 745.573577 105.965217 
L 746.674503 113.415652 
L 747.775429 119.989565 
L 748.876355 105.965217 
L 749.97728 98.953043 
L 751.078206 92.817391 
L 752.179132 80.107826 
L 753.280058 121.742609 
L 754.380983 108.156522 
L 755.481909 112.10087 
L 756.582835 111.662609 
L 757.683761 120.427826 
L 758.784687 111.662609 
L 759.885612 97.638261 
L 760.986538 88.873043 
L 762.087464 89.749565 
L 763.18839 91.94087 
L 764.289316 112.10087 
L 765.390241 100.267826 
L 766.491167 110.347826 
L 767.592093 94.570435 
L 768.693019 99.391304 
L 769.793944 87.558261 
L 770.89487 87.558261 
L 771.995796 105.088696 
L 773.096722 127.44 
L 774.197648 87.996522 
L 775.298573 91.94087 
L 776.399499 87.996522 
L 777.500425 96.323478 
L 778.601351 81.86087 
L 779.702277 79.231304 
L 780.803202 86.681739 
L 781.904128 88.873043 
L 783.005054 95.885217 
L 784.10598 95.446957 
L 785.206905 67.836522 
L 786.307831 100.706087 
L 787.408757 86.243478 
L 788.509683 84.052174 
L 789.610609 77.04 
L 790.711534 93.255652 
L 791.81246 84.052174 
L 792.913386 100.267826 
L 794.014312 88.434783 
L 795.115238 93.255652 
L 796.216163 69.589565 
L 797.317089 75.286957 
L 798.418015 100.267826 
L 799.518941 84.052174 
L 800.619866 80.984348 
L 801.720792 87.12 
L 802.821718 85.366957 
L 803.922644 80.546087 
L 805.02357 66.96 
L 806.124495 88.873043 
L 807.225421 84.490435 
L 808.326347 76.163478 
L 809.427273 84.052174 
L 809.427273 84.052174 
" clip-path="url(#p9ac0dd3ed5)" style="fill: none; stroke: #1f77b4; stroke-width: 1.5; stroke-linecap: round"/>
   </g>
   <g id="patch_3">
    <path d="M 117 384.48 
L 117 51.84 
" style="fill: none; stroke: #262626; stroke-width: 0.8; stroke-linejoin: miter; stroke-linecap: square"/>
   </g>
   <g id="patch_4">
    <path d="M 842.4 384.48 
L 842.4 51.84 
" style="fill: none; stroke: #262626; stroke-width: 0.8; stroke-linejoin: miter; stroke-linecap: square"/>
   </g>
   <g id="patch_5">
    <path d="M 117 384.48 
L 842.4 384.48 
" style="fill: none; stroke: #262626; stroke-width: 0.8; stroke-linejoin: miter; stroke-linecap: square"/>
   </g>
   <g id="patch_6">
    <path d="M 117 51.84 
L 842.4 51.84 
" style="fill: none; stroke: #262626; stroke-width: 0.8; stroke-linejoin: miter; stroke-linecap: square"/>
   </g>
   <g id="text_17">
    <!-- Each id win counts: 200000 turns for 600 people kill simulation -->
    <g style="fill: #262626" transform="translate(300.055313 45.84)scale(0.12 -0.12)">
     <defs>
      <path id="MicrosoftYaHei-45" d="M 3228 0 
L 625 0 
L 625 4841 
L 3119 4841 
L 3119 4284 
L 1250 4284 
L 1250 2734 
L 2981 2734 
L 2981 2181 
L 1250 2181 
L 1250 553 
L 3228 553 
L 3228 0 
z
" transform="scale(0.015625)"/>
      <path id="MicrosoftYaHei-61" d="M 628 3216 
Q 1144 3538 1819 3538 
Q 3069 3538 3069 2225 
L 3069 0 
L 2463 0 
L 2463 534 
L 2447 534 
Q 2088 -81 1388 -81 
Q 884 -81 587 191 
Q 291 463 291 925 
Q 291 1894 1438 2053 
L 2463 2197 
Q 2463 3044 1763 3044 
Q 1141 3044 628 2625 
L 628 3216 
z
M 1653 1625 
Q 1228 1569 1067 1412 
Q 906 1256 906 975 
Q 906 728 1081 572 
Q 1256 416 1544 416 
Q 1944 416 2203 697 
Q 2463 978 2463 1403 
L 2463 1734 
L 1653 1625 
z
" transform="scale(0.015625)"/>
      <path id="MicrosoftYaHei-63" d="M 2934 156 
Q 2538 -81 1978 -81 
Q 1228 -81 772 400 
Q 316 881 316 1647 
Q 316 2497 808 3017 
Q 1300 3538 2125 3538 
Q 2600 3538 2938 3369 
L 2938 2763 
Q 2572 3031 2125 3031 
Q 1600 3031 1270 2667 
Q 941 2303 941 1697 
Q 941 1100 1252 762 
Q 1563 425 2091 425 
Q 2538 425 2934 719 
L 2934 156 
z
" transform="scale(0.015625)"/>
      <path id="MicrosoftYaHei-68" d="M 3466 0 
L 2856 0 
L 2856 1988 
Q 2856 3031 2081 3031 
Q 1684 3031 1421 2726 
Q 1159 2422 1159 1959 
L 1159 0 
L 547 0 
L 547 5116 
L 1159 5116 
L 1159 2888 
L 1172 2888 
Q 1569 3538 2300 3538 
Q 3466 3538 3466 2128 
L 3466 0 
z
" transform="scale(0.015625)"/>
      <path id="MicrosoftYaHei-20" transform="scale(0.015625)"/>
      <path id="MicrosoftYaHei-77" d="M 4975 3456 
L 3944 0 
L 3306 0 
L 2619 2425 
Q 2575 2581 2563 2756 
L 2550 2756 
Q 2541 2625 2478 2431 
L 1734 0 
L 1116 0 
L 78 3456 
L 716 3456 
L 1406 894 
Q 1438 778 1453 578 
L 1478 578 
Q 1491 750 1538 903 
L 2281 3456 
L 2847 3456 
L 3572 891 
Q 3603 778 3622 572 
L 3650 572 
Q 3656 709 3706 891 
L 4381 3456 
L 4975 3456 
z
" transform="scale(0.015625)"/>
      <path id="MicrosoftYaHei-6e" d="M 3469 0 
L 2859 0 
L 2859 1966 
Q 2859 3031 2081 3031 
Q 1678 3031 1418 2731 
Q 1159 2431 1159 1972 
L 1159 0 
L 547 0 
L 547 3456 
L 1159 3456 
L 1159 2884 
L 1172 2884 
Q 1563 3538 2306 3538 
Q 2875 3538 3172 3173 
Q 3469 2809 3469 2113 
L 3469 0 
z
" transform="scale(0.015625)"/>
      <path id="MicrosoftYaHei-6f" d="M 316 1691 
Q 316 2547 794 3042 
Q 1272 3538 2091 3538 
Q 2869 3538 3311 3061 
Q 3753 2584 3753 1744 
Q 3753 925 3281 422 
Q 2809 -81 2016 -81 
Q 1241 -81 778 406 
Q 316 894 316 1691 
z
M 941 1709 
Q 941 1113 1242 769 
Q 1544 425 2053 425 
Q 2578 425 2853 761 
Q 3128 1097 3128 1725 
Q 3128 2356 2853 2693 
Q 2578 3031 2053 3031 
Q 1538 3031 1239 2678 
Q 941 2325 941 1709 
z
" transform="scale(0.015625)"/>
      <path id="MicrosoftYaHei-75" d="M 3400 0 
L 2784 0 
L 2784 544 
L 2772 544 
Q 2425 -81 1706 -81 
Q 478 -81 478 1388 
L 478 3456 
L 1084 3456 
L 1084 1478 
Q 1084 425 1891 425 
Q 2291 425 2537 720 
Q 2784 1016 2784 1466 
L 2784 3456 
L 3400 3456 
L 3400 0 
z
" transform="scale(0.015625)"/>
      <path id="MicrosoftYaHei-74" d="M 2206 34 
Q 2006 -75 1666 -75 
Q 738 -75 738 953 
L 738 2950 
L 144 2950 
L 144 3456 
L 738 3456 
L 738 4288 
L 1347 4481 
L 1347 3456 
L 2206 3456 
L 2206 2950 
L 1347 2950 
L 1347 1063 
Q 1347 722 1462 575 
Q 1578 428 1847 428 
Q 2053 428 2206 544 
L 2206 34 
z
" transform="scale(0.015625)"/>
      <path id="MicrosoftYaHei-73" d="M 353 747 
Q 816 413 1350 413 
Q 2066 413 2066 881 
Q 2066 1081 1909 1211 
Q 1753 1341 1275 1519 
Q 700 1750 528 1976 
Q 356 2203 356 2525 
Q 356 2984 745 3261 
Q 1134 3538 1703 3538 
Q 2144 3538 2522 3384 
L 2522 2794 
Q 2134 3044 1644 3044 
Q 1350 3044 1165 2916 
Q 981 2788 981 2578 
Q 981 2372 1114 2256 
Q 1247 2141 1703 1959 
Q 2281 1744 2484 1512 
Q 2688 1281 2688 941 
Q 2688 466 2298 192 
Q 1909 -81 1291 -81 
Q 753 -81 353 122 
L 353 747 
z
" transform="scale(0.015625)"/>
      <path id="MicrosoftYaHei-3a" d="M 372 3134 
Q 372 3303 490 3415 
Q 609 3528 775 3528 
Q 944 3528 1062 3414 
Q 1181 3300 1181 3134 
Q 1181 2969 1065 2853 
Q 950 2738 772 2738 
Q 603 2738 487 2853 
Q 372 2969 372 3134 
z
M 372 322 
Q 372 491 487 606 
Q 603 722 775 722 
Q 950 722 1065 605 
Q 1181 488 1181 322 
Q 1181 159 1065 42 
Q 950 -75 772 -75 
Q 600 -75 486 42 
Q 372 159 372 322 
z
" transform="scale(0.015625)"/>
      <path id="MicrosoftYaHei-72" d="M 2400 2850 
Q 2247 2959 1978 2959 
Q 1622 2959 1390 2626 
Q 1159 2294 1159 1750 
L 1159 0 
L 547 0 
L 547 3456 
L 1159 3456 
L 1159 2753 
L 1172 2753 
Q 1434 3516 2078 3516 
Q 2288 3516 2400 3469 
L 2400 2850 
z
" transform="scale(0.015625)"/>
      <path id="MicrosoftYaHei-66" d="M 2319 4594 
Q 2147 4684 1947 4684 
Q 1372 4684 1372 3972 
L 1372 3456 
L 2181 3456 
L 2181 2950 
L 1372 2950 
L 1372 0 
L 766 0 
L 766 2950 
L 175 2950 
L 175 3456 
L 766 3456 
L 766 4000 
Q 766 4556 1086 4873 
Q 1406 5191 1900 5191 
Q 2163 5191 2319 5131 
L 2319 4594 
z
" transform="scale(0.015625)"/>
      <path id="MicrosoftYaHei-70" d="M 1159 488 
L 1159 -1591 
L 547 -1591 
L 547 3456 
L 1159 3456 
L 1159 2859 
L 1172 2859 
Q 1578 3538 2359 3538 
Q 3022 3538 3398 3073 
Q 3775 2609 3775 1828 
Q 3775 966 3348 442 
Q 2922 -81 2200 -81 
Q 1534 -81 1172 488 
L 1159 488 
z
M 1156 1425 
Q 1156 1003 1428 714 
Q 1700 425 2109 425 
Q 2597 425 2872 800 
Q 3147 1175 3147 1838 
Q 3147 2397 2890 2714 
Q 2634 3031 2191 3031 
Q 1738 3031 1447 2709 
Q 1156 2388 1156 1884 
L 1156 1425 
z
" transform="scale(0.015625)"/>
      <path id="MicrosoftYaHei-65" d="M 3363 1572 
L 944 1572 
Q 959 1019 1246 717 
Q 1534 416 2050 416 
Q 2631 416 3116 788 
L 3116 241 
Q 2659 -81 1906 -81 
Q 1156 -81 736 394 
Q 316 869 316 1713 
Q 316 2506 777 3022 
Q 1238 3538 1922 3538 
Q 2600 3538 2981 3102 
Q 3363 2666 3363 1881 
L 3363 1572 
z
M 2750 2063 
Q 2747 2531 2528 2787 
Q 2309 3044 1913 3044 
Q 1547 3044 1280 2772 
Q 1013 2500 944 2063 
L 2750 2063 
z
" transform="scale(0.015625)"/>
      <path id="MicrosoftYaHei-6c" d="M 544 0 
L 544 5116 
L 1156 5116 
L 1156 0 
L 544 0 
z
" transform="scale(0.015625)"/>
      <path id="MicrosoftYaHei-6b" d="M 3484 0 
L 2650 0 
L 1172 1666 
L 1159 1666 
L 1159 0 
L 547 0 
L 547 5116 
L 1159 5116 
L 1159 1872 
L 1172 1872 
L 2575 3456 
L 3363 3456 
L 1800 1794 
L 3484 0 
z
" transform="scale(0.015625)"/>
      <path id="MicrosoftYaHei-6d" d="M 5522 0 
L 4909 0 
L 4909 1984 
Q 4909 2547 4734 2789 
Q 4559 3031 4159 3031 
Q 3822 3031 3581 2715 
Q 3341 2400 3341 1969 
L 3341 0 
L 2728 0 
L 2728 2047 
Q 2728 3031 1969 3031 
Q 1619 3031 1389 2731 
Q 1159 2431 1159 1966 
L 1159 0 
L 547 0 
L 547 3456 
L 1159 3456 
L 1159 2909 
L 1172 2909 
Q 1541 3538 2250 3538 
Q 2597 3538 2862 3347 
Q 3128 3156 3231 2831 
Q 3616 3538 4381 3538 
Q 5522 3538 5522 2131 
L 5522 0 
z
" transform="scale(0.015625)"/>
     </defs>
     <use xlink:href="#MicrosoftYaHei-45"/>
     <use xlink:href="#MicrosoftYaHei-61" x="54.980469"/>
     <use xlink:href="#MicrosoftYaHei-63" x="110.253906"/>
     <use xlink:href="#MicrosoftYaHei-68" x="160.400391"/>
     <use xlink:href="#MicrosoftYaHei-20" x="221.972656"/>
     <use xlink:href="#MicrosoftYaHei-69" x="251.5625"/>
     <use xlink:href="#MicrosoftYaHei-64" x="278.173828"/>
     <use xlink:href="#MicrosoftYaHei-20" x="342.138672"/>
     <use xlink:href="#MicrosoftYaHei-77" x="371.728516"/>
     <use xlink:href="#MicrosoftYaHei-69" x="450.683594"/>
     <use xlink:href="#MicrosoftYaHei-6e" x="477.294922"/>
     <use xlink:href="#MicrosoftYaHei-20" x="538.916016"/>
     <use xlink:href="#MicrosoftYaHei-63" x="568.505859"/>
     <use xlink:href="#MicrosoftYaHei-6f" x="618.652344"/>
     <use xlink:href="#MicrosoftYaHei-75" x="682.226562"/>
     <use xlink:href="#MicrosoftYaHei-6e" x="743.847656"/>
     <use xlink:href="#MicrosoftYaHei-74" x="805.46875"/>
     <use xlink:href="#MicrosoftYaHei-73" x="842.724609"/>
     <use xlink:href="#MicrosoftYaHei-3a" x="889.013672"/>
     <use xlink:href="#MicrosoftYaHei-20" x="913.085938"/>
     <use xlink:href="#MicrosoftYaHei-32" x="942.675781"/>
     <use xlink:href="#MicrosoftYaHei-30" x="1001.318359"/>
     <use xlink:href="#MicrosoftYaHei-30" x="1059.960938"/>
     <use xlink:href="#MicrosoftYaHei-30" x="1118.603516"/>
     <use xlink:href="#MicrosoftYaHei-30" x="1177.246094"/>
     <use xlink:href="#MicrosoftYaHei-30" x="1235.888672"/>
     <use xlink:href="#MicrosoftYaHei-20" x="1294.53125"/>
     <use xlink:href="#MicrosoftYaHei-74" x="1324.121094"/>
     <use xlink:href="#MicrosoftYaHei-75" x="1361.376953"/>
     <use xlink:href="#MicrosoftYaHei-72" x="1422.998047"/>
     <use xlink:href="#MicrosoftYaHei-6e" x="1460.931641"/>
     <use xlink:href="#MicrosoftYaHei-73" x="1522.552734"/>
     <use xlink:href="#MicrosoftYaHei-20" x="1568.841797"/>
     <use xlink:href="#MicrosoftYaHei-66" x="1598.431641"/>
     <use xlink:href="#MicrosoftYaHei-6f" x="1633.099609"/>
     <use xlink:href="#MicrosoftYaHei-72" x="1696.673828"/>
     <use xlink:href="#MicrosoftYaHei-20" x="1734.857422"/>
     <use xlink:href="#MicrosoftYaHei-36" x="1764.447266"/>
     <use xlink:href="#MicrosoftYaHei-30" x="1823.089844"/>
     <use xlink:href="#MicrosoftYaHei-30" x="1881.732422"/>
     <use xlink:href="#MicrosoftYaHei-20" x="1940.375"/>
     <use xlink:href="#MicrosoftYaHei-70" x="1969.964844"/>
     <use xlink:href="#MicrosoftYaHei-65" x="2033.832031"/>
     <use xlink:href="#MicrosoftYaHei-6f" x="2090.570312"/>
     <use xlink:href="#MicrosoftYaHei-70" x="2154.144531"/>
     <use xlink:href="#MicrosoftYaHei-6c" x="2218.011719"/>
     <use xlink:href="#MicrosoftYaHei-65" x="2244.623047"/>
     <use xlink:href="#MicrosoftYaHei-20" x="2301.361328"/>
     <use xlink:href="#MicrosoftYaHei-6b" x="2330.951172"/>
     <use xlink:href="#MicrosoftYaHei-69" x="2385.394531"/>
     <use xlink:href="#MicrosoftYaHei-6c" x="2412.005859"/>
     <use xlink:href="#MicrosoftYaHei-6c" x="2438.617188"/>
     <use xlink:href="#MicrosoftYaHei-20" x="2465.228516"/>
     <use xlink:href="#MicrosoftYaHei-73" x="2494.818359"/>
     <use xlink:href="#MicrosoftYaHei-69" x="2541.107422"/>
     <use xlink:href="#MicrosoftYaHei-6d" x="2567.71875"/>
     <use xlink:href="#MicrosoftYaHei-75" x="2661.419922"/>
     <use xlink:href="#MicrosoftYaHei-6c" x="2723.041016"/>
     <use xlink:href="#MicrosoftYaHei-61" x="2749.652344"/>
     <use xlink:href="#MicrosoftYaHei-74" x="2804.925781"/>
     <use xlink:href="#MicrosoftYaHei-69" x="2842.181641"/>
     <use xlink:href="#MicrosoftYaHei-6f" x="2868.792969"/>
     <use xlink:href="#MicrosoftYaHei-6e" x="2932.367188"/>
    </g>
   </g>
   <g id="legend_1">
    <g id="patch_7">
     <path d="M 124 75.319687 
L 204.623437 75.319687 
Q 206.623437 75.319687 206.623437 73.319687 
L 206.623437 58.84 
Q 206.623437 56.84 204.623437 56.84 
L 124 56.84 
Q 122 56.84 122 58.84 
L 122 73.319687 
Q 122 75.319687 124 75.319687 
z
" style="fill: #ffffff; opacity: 0.8; stroke: #cccccc; stroke-linejoin: miter"/>
    </g>
    <g id="line2d_2">
     <path d="M 126 65.33375 
L 136 65.33375 
L 146 65.33375 
" style="fill: none; stroke: #1f77b4; stroke-width: 1.5; stroke-linecap: round"/>
    </g>
    <g id="text_18">
     <!-- win_count -->
     <g style="fill: #262626" transform="translate(154 68.83375)scale(0.1 -0.1)">
      <defs>
       <path id="MicrosoftYaHei-5f" d="M 2869 -1003 
L 0 -1003 
L 0 -600 
L 2869 -600 
L 2869 -1003 
z
" transform="scale(0.015625)"/>
      </defs>
      <use xlink:href="#MicrosoftYaHei-77"/>
      <use xlink:href="#MicrosoftYaHei-69" x="78.955078"/>
      <use xlink:href="#MicrosoftYaHei-6e" x="105.566406"/>
      <use xlink:href="#MicrosoftYaHei-5f" x="167.1875"/>
      <use xlink:href="#MicrosoftYaHei-63" x="212.011719"/>
      <use xlink:href="#MicrosoftYaHei-6f" x="262.158203"/>
      <use xlink:href="#MicrosoftYaHei-75" x="325.732422"/>
      <use xlink:href="#MicrosoftYaHei-6e" x="387.353516"/>
      <use xlink:href="#MicrosoftYaHei-74" x="448.974609"/>
     </g>
    </g>
   </g>
  </g>
 </g>
 <defs>
  <clipPath id="p9ac0dd3ed5">
   <rect x="117" y="51.84" width="725.4" height="332.64"/>
  </clipPath>
 </defs>
</svg>
