<?xml version="1.0" encoding="utf-8" standalone="no"?>
<!DOCTYPE svg PUBLIC "-//W3C//DTD SVG 1.1//EN"
  "http://www.w3.org/Graphics/SVG/1.1/DTD/svg11.dtd">
<svg xmlns:xlink="http://www.w3.org/1999/xlink" width="936pt" height="432pt" viewBox="0 0 936 432" xmlns="http://www.w3.org/2000/svg" version="1.1">
 <metadata>
  <rdf:RDF xmlns:dc="http://purl.org/dc/elements/1.1/" xmlns:cc="http://creativecommons.org/ns#" xmlns:rdf="http://www.w3.org/1999/02/22-rdf-syntax-ns#">
   <cc:Work>
    <dc:type rdf:resource="http://purl.org/dc/dcmitype/StillImage"/>
    <dc:date>2024-08-18T23:01:33.860982</dc:date>
    <dc:format>image/svg+xml</dc:format>
    <dc:creator>
     <cc:Agent>
      <dc:title>Matplotlib v3.5.1, https://matplotlib.org/</dc:title>
     </cc:Agent>
    </dc:creator>
   </cc:Work>
  </rdf:RDF>
 </metadata>
 <defs>
  <style type="text/css">*{stroke-linejoin: round; stroke-linecap: butt}</style>
 </defs>
 <g id="figure_1">
  <g id="patch_1">
   <path d="M 0 432 
L 936 432 
L 936 0 
L 0 0 
z
" style="fill: #ffffff"/>
  </g>
  <g id="axes_1">
   <g id="patch_2">
    <path d="M 117 384.48 
L 842.4 384.48 
L 842.4 51.84 
L 117 51.84 
z
" style="fill: #ffffff"/>
   </g>
   <g id="matplotlib.axis_1">
    <g id="xtick_1">
     <g id="text_1">
      <!-- 0 -->
      <g style="fill: #262626" transform="translate(145.93977 399.47375)scale(0.1 -0.1)">
       <defs>
        <path id="MicrosoftYaHei-30" d="M 284 2325 
Q 284 3606 709 4264 
Q 1134 4922 1941 4922 
Q 3478 4922 3478 2441 
Q 3478 1216 3045 567 
Q 2613 -81 1831 -81 
Q 1094 -81 689 534 
Q 284 1150 284 2325 
z
M 909 2353 
Q 909 425 1888 425 
Q 2850 425 2850 2384 
Q 2850 4413 1906 4413 
Q 909 4413 909 2353 
z
" transform="scale(0.015625)"/>
       </defs>
       <use xlink:href="#MicrosoftYaHei-30"/>
      </g>
     </g>
    </g>
    <g id="xtick_2">
     <g id="text_2">
      <!-- 100 -->
      <g style="fill: #262626" transform="translate(250.168286 399.47375)scale(0.1 -0.1)">
       <defs>
        <path id="MicrosoftYaHei-31" d="M 3366 0 
L 591 0 
L 591 528 
L 1675 528 
L 1675 4203 
L 563 3881 
L 563 4444 
L 2284 4944 
L 2284 528 
L 3366 528 
L 3366 0 
z
" transform="scale(0.015625)"/>
       </defs>
       <use xlink:href="#MicrosoftYaHei-31"/>
       <use xlink:href="#MicrosoftYaHei-30" x="58.642578"/>
       <use xlink:href="#MicrosoftYaHei-30" x="117.285156"/>
      </g>
     </g>
    </g>
    <g id="xtick_3">
     <g id="text_3">
      <!-- 200 -->
      <g style="fill: #262626" transform="translate(360.260865 399.47375)scale(0.1 -0.1)">
       <defs>
        <path id="MicrosoftYaHei-32" d="M 3275 0 
L 331 0 
L 331 531 
L 1738 1934 
Q 2319 2516 2516 2855 
Q 2713 3194 2713 3556 
Q 2713 3969 2481 4189 
Q 2250 4409 1813 4409 
Q 1166 4409 578 3859 
L 578 4481 
Q 1150 4922 1909 4922 
Q 2563 4922 2941 4569 
Q 3319 4216 3319 3619 
Q 3319 3169 3076 2736 
Q 2834 2303 2159 1634 
L 1056 556 
L 1056 544 
L 3275 544 
L 3275 0 
z
" transform="scale(0.015625)"/>
       </defs>
       <use xlink:href="#MicrosoftYaHei-32"/>
       <use xlink:href="#MicrosoftYaHei-30" x="58.642578"/>
       <use xlink:href="#MicrosoftYaHei-30" x="117.285156"/>
      </g>
     </g>
    </g>
    <g id="xtick_4">
     <g id="text_4">
      <!-- 300 -->
      <g style="fill: #262626" transform="translate(470.353443 399.47375)scale(0.1 -0.1)">
       <defs>
        <path id="MicrosoftYaHei-33" d="M 447 809 
Q 944 425 1569 425 
Q 2069 425 2361 670 
Q 2653 916 2653 1328 
Q 2653 2247 1338 2247 
L 934 2247 
L 934 2753 
L 1319 2753 
Q 2484 2753 2484 3616 
Q 2484 4413 1594 4413 
Q 1084 4413 634 4069 
L 634 4647 
Q 1109 4922 1744 4922 
Q 2363 4922 2738 4598 
Q 3113 4275 3113 3759 
Q 3113 2809 2144 2538 
L 2144 2525 
Q 2669 2469 2973 2155 
Q 3278 1841 3278 1372 
Q 3278 719 2808 319 
Q 2338 -81 1556 -81 
Q 869 -81 447 175 
L 447 809 
z
" transform="scale(0.015625)"/>
       </defs>
       <use xlink:href="#MicrosoftYaHei-33"/>
       <use xlink:href="#MicrosoftYaHei-30" x="58.642578"/>
       <use xlink:href="#MicrosoftYaHei-30" x="117.285156"/>
      </g>
     </g>
    </g>
    <g id="xtick_5">
     <g id="text_5">
      <!-- 400 -->
      <g style="fill: #262626" transform="translate(580.446022 399.47375)scale(0.1 -0.1)">
       <defs>
        <path id="MicrosoftYaHei-34" d="M 3525 1256 
L 2906 1256 
L 2906 0 
L 2313 0 
L 2313 1256 
L 56 1256 
L 56 1653 
L 2197 4841 
L 2906 4841 
L 2906 1741 
L 3525 1741 
L 3525 1256 
z
M 2313 1741 
L 2313 3769 
Q 2313 3984 2325 4266 
L 2313 4266 
Q 2269 4147 2128 3894 
L 688 1741 
L 2313 1741 
z
" transform="scale(0.015625)"/>
       </defs>
       <use xlink:href="#MicrosoftYaHei-34"/>
       <use xlink:href="#MicrosoftYaHei-30" x="58.642578"/>
       <use xlink:href="#MicrosoftYaHei-30" x="117.285156"/>
      </g>
     </g>
    </g>
    <g id="xtick_6">
     <g id="text_6">
      <!-- 500 -->
      <g style="fill: #262626" transform="translate(690.5386 399.47375)scale(0.1 -0.1)">
       <defs>
        <path id="MicrosoftYaHei-35" d="M 553 744 
Q 1041 425 1569 425 
Q 2069 425 2375 704 
Q 2681 984 2681 1447 
Q 2681 1913 2370 2169 
Q 2059 2425 1469 2425 
Q 1184 2425 703 2381 
L 703 4841 
L 3084 4841 
L 3084 4300 
L 1272 4300 
L 1272 2931 
Q 1544 2947 1681 2947 
Q 2447 2947 2875 2559 
Q 3303 2172 3303 1491 
Q 3303 788 2843 353 
Q 2384 -81 1575 -81 
Q 897 -81 553 119 
L 553 744 
z
" transform="scale(0.015625)"/>
       </defs>
       <use xlink:href="#MicrosoftYaHei-35"/>
       <use xlink:href="#MicrosoftYaHei-30" x="58.642578"/>
       <use xlink:href="#MicrosoftYaHei-30" x="117.285156"/>
      </g>
     </g>
    </g>
    <g id="xtick_7">
     <g id="text_7">
      <!-- 600 -->
      <g style="fill: #262626" transform="translate(800.631179 399.47375)scale(0.1 -0.1)">
       <defs>
        <path id="MicrosoftYaHei-36" d="M 3181 4219 
Q 2803 4413 2391 4413 
Q 1763 4413 1381 3866 
Q 1000 3319 994 2372 
L 1009 2372 
Q 1353 3038 2106 3038 
Q 2734 3038 3109 2628 
Q 3484 2219 3484 1541 
Q 3484 831 3051 375 
Q 2619 -81 1947 -81 
Q 1209 -81 789 495 
Q 369 1072 369 2131 
Q 369 3413 920 4167 
Q 1472 4922 2372 4922 
Q 2888 4922 3181 4781 
L 3181 4219 
z
M 1031 1584 
Q 1031 1106 1286 765 
Q 1541 425 1963 425 
Q 2363 425 2613 719 
Q 2863 1013 2863 1475 
Q 2863 1975 2627 2253 
Q 2391 2531 1956 2531 
Q 1544 2531 1287 2250 
Q 1031 1969 1031 1584 
z
" transform="scale(0.015625)"/>
       </defs>
       <use xlink:href="#MicrosoftYaHei-36"/>
       <use xlink:href="#MicrosoftYaHei-30" x="58.642578"/>
       <use xlink:href="#MicrosoftYaHei-30" x="117.285156"/>
      </g>
     </g>
    </g>
    <g id="text_8">
     <!-- id -->
     <g style="fill: #262626" transform="translate(475.171094 413.953438)scale(0.1 -0.1)">
      <defs>
       <path id="MicrosoftYaHei-69" d="M 472 4675 
Q 472 4838 583 4948 
Q 694 5059 856 5059 
Q 1022 5059 1136 4950 
Q 1250 4841 1250 4675 
Q 1250 4513 1136 4405 
Q 1022 4297 856 4297 
Q 691 4297 581 4405 
Q 472 4513 472 4675 
z
M 544 0 
L 544 3456 
L 1156 3456 
L 1156 0 
L 544 0 
z
" transform="scale(0.015625)"/>
       <path id="MicrosoftYaHei-64" d="M 3547 0 
L 2934 0 
L 2934 575 
L 2922 575 
Q 2544 -81 1747 -81 
Q 1091 -81 703 386 
Q 316 853 316 1647 
Q 316 2503 753 3020 
Q 1191 3538 1897 3538 
Q 2603 3538 2922 2988 
L 2934 2988 
L 2934 5116 
L 3547 5116 
L 3547 0 
z
M 2938 2056 
Q 2938 2472 2664 2751 
Q 2391 3031 1991 3031 
Q 1503 3031 1222 2667 
Q 941 2303 941 1675 
Q 941 1097 1211 761 
Q 1481 425 1931 425 
Q 2375 425 2656 754 
Q 2938 1084 2938 1575 
L 2938 2056 
z
" transform="scale(0.015625)"/>
      </defs>
      <use xlink:href="#MicrosoftYaHei-69"/>
      <use xlink:href="#MicrosoftYaHei-64" x="26.611328"/>
     </g>
    </g>
   </g>
   <g id="matplotlib.axis_2">
    <g id="ytick_1">
     <g id="text_9">
      <!-- 0 -->
      <g style="fill: #262626" transform="translate(104.135937 373.356875)scale(0.1 -0.1)">
       <use xlink:href="#MicrosoftYaHei-30"/>
      </g>
     </g>
    </g>
    <g id="ytick_2">
     <g id="text_10">
      <!-- 1 -->
      <g style="fill: #262626" transform="translate(104.135937 312.876875)scale(0.1 -0.1)">
       <use xlink:href="#MicrosoftYaHei-31"/>
      </g>
     </g>
    </g>
    <g id="ytick_3">
     <g id="text_11">
      <!-- 2 -->
      <g style="fill: #262626" transform="translate(104.135937 252.396875)scale(0.1 -0.1)">
       <use xlink:href="#MicrosoftYaHei-32"/>
      </g>
     </g>
    </g>
    <g id="ytick_4">
     <g id="text_12">
      <!-- 3 -->
      <g style="fill: #262626" transform="translate(104.135937 191.916875)scale(0.1 -0.1)">
       <use xlink:href="#MicrosoftYaHei-33"/>
      </g>
     </g>
    </g>
    <g id="ytick_5">
     <g id="text_13">
      <!-- 4 -->
      <g style="fill: #262626" transform="translate(104.135937 131.436875)scale(0.1 -0.1)">
       <use xlink:href="#MicrosoftYaHei-34"/>
      </g>
     </g>
    </g>
    <g id="ytick_6">
     <g id="text_14">
      <!-- 5 -->
      <g style="fill: #262626" transform="translate(104.135937 70.956875)scale(0.1 -0.1)">
       <use xlink:href="#MicrosoftYaHei-35"/>
      </g>
     </g>
    </g>
   </g>
   <g id="line2d_1">
    <path d="M 149.972727 369.36 
L 163.183837 369.36 
L 164.284762 308.88 
L 165.385688 369.36 
L 197.312536 369.36 
L 198.413462 308.88 
L 199.514388 369.36 
L 216.028274 369.36 
L 217.1292 308.88 
L 218.230126 369.36 
L 222.633829 369.36 
L 223.734755 308.88 
L 224.835681 369.36 
L 229.239384 369.36 
L 230.34031 308.88 
L 231.441235 308.88 
L 232.542161 369.36 
L 238.04679 369.36 
L 239.147716 308.88 
L 240.248642 369.36 
L 243.551419 369.36 
L 244.652345 308.88 
L 245.753271 369.36 
L 250.156974 369.36 
L 251.2579 308.88 
L 252.358825 308.88 
L 253.459751 369.36 
L 254.560677 308.88 
L 255.661603 369.36 
L 260.065306 369.36 
L 261.166232 308.88 
L 262.267157 369.36 
L 264.469009 369.36 
L 265.569935 308.88 
L 266.670861 369.36 
L 268.872712 369.36 
L 269.973638 308.88 
L 271.074564 369.36 
L 272.175489 308.88 
L 273.276415 369.36 
L 274.377341 308.88 
L 275.478267 308.88 
L 276.579193 369.36 
L 277.680118 369.36 
L 278.781044 308.88 
L 279.88197 369.36 
L 280.982896 369.36 
L 282.083822 308.88 
L 283.184747 369.36 
L 284.285673 369.36 
L 285.386599 308.88 
L 286.487525 308.88 
L 287.58845 369.36 
L 288.689376 369.36 
L 289.790302 308.88 
L 290.891228 369.36 
L 291.992154 308.88 
L 293.093079 369.36 
L 294.194005 308.88 
L 295.294931 369.36 
L 297.496783 369.36 
L 298.597708 248.4 
L 300.79956 369.36 
L 305.203263 369.36 
L 306.304189 308.88 
L 307.405115 308.88 
L 308.50604 248.4 
L 309.606966 308.88 
L 310.707892 308.88 
L 311.808818 369.36 
L 312.909744 369.36 
L 314.010669 308.88 
L 315.111595 369.36 
L 318.414372 369.36 
L 320.616224 248.4 
L 321.71715 369.36 
L 322.818076 308.88 
L 323.919001 369.36 
L 329.42363 369.36 
L 330.524556 308.88 
L 331.625482 369.36 
L 333.827333 369.36 
L 334.928259 308.88 
L 336.029185 308.88 
L 337.130111 248.4 
L 338.231037 369.36 
L 342.63474 369.36 
L 343.735666 248.4 
L 344.836591 248.4 
L 345.937517 369.36 
L 347.038443 308.88 
L 348.139369 369.36 
L 349.240294 308.88 
L 350.34122 369.36 
L 351.442146 369.36 
L 352.543072 308.88 
L 354.744923 308.88 
L 355.845849 369.36 
L 356.946775 369.36 
L 358.047701 308.88 
L 359.148626 369.36 
L 360.249552 187.92 
L 361.350478 308.88 
L 362.451404 369.36 
L 363.55233 187.92 
L 364.653255 369.36 
L 365.754181 308.88 
L 366.855107 369.36 
L 367.956033 369.36 
L 369.056959 308.88 
L 370.157884 308.88 
L 371.25881 369.36 
L 372.359736 308.88 
L 373.460662 369.36 
L 374.561587 187.92 
L 375.662513 369.36 
L 376.763439 308.88 
L 377.864365 308.88 
L 378.965291 369.36 
L 382.268068 369.36 
L 383.368994 308.88 
L 384.46992 369.36 
L 385.570845 308.88 
L 386.671771 369.36 
L 388.873623 248.4 
L 389.974548 369.36 
L 392.1764 369.36 
L 393.277326 308.88 
L 394.378252 369.36 
L 395.479177 308.88 
L 397.681029 308.88 
L 398.781955 369.36 
L 399.882881 369.36 
L 400.983806 248.4 
L 402.084732 369.36 
L 403.185658 248.4 
L 404.286584 248.4 
L 405.387509 369.36 
L 408.690287 369.36 
L 409.791213 308.88 
L 410.892138 308.88 
L 411.993064 369.36 
L 413.09399 369.36 
L 414.194916 248.4 
L 415.295842 369.36 
L 416.396767 369.36 
L 417.497693 248.4 
L 418.598619 369.36 
L 419.699545 127.44 
L 420.80047 369.36 
L 421.901396 369.36 
L 424.103248 248.4 
L 426.305099 248.4 
L 427.406025 369.36 
L 430.708803 369.36 
L 431.809728 308.88 
L 432.910654 369.36 
L 434.01158 369.36 
L 435.112506 308.88 
L 438.415283 308.88 
L 439.516209 369.36 
L 440.617135 369.36 
L 441.71806 248.4 
L 442.818986 308.88 
L 445.020838 308.88 
L 446.121764 369.36 
L 448.323615 369.36 
L 449.424541 308.88 
L 450.525467 369.36 
L 451.626392 308.88 
L 452.727318 308.88 
L 453.828244 248.4 
L 454.92917 308.88 
L 457.131021 308.88 
L 458.231947 369.36 
L 459.332873 248.4 
L 461.534725 248.4 
L 462.63565 369.36 
L 463.736576 369.36 
L 464.837502 187.92 
L 465.938428 248.4 
L 467.039353 369.36 
L 468.140279 369.36 
L 469.241205 308.88 
L 470.342131 308.88 
L 471.443057 248.4 
L 472.543982 308.88 
L 474.745834 308.88 
L 475.84676 369.36 
L 476.947686 308.88 
L 478.048611 369.36 
L 479.149537 308.88 
L 480.250463 369.36 
L 481.351389 187.92 
L 483.55324 308.88 
L 486.856018 308.88 
L 487.956943 248.4 
L 489.057869 369.36 
L 490.158795 308.88 
L 491.259721 369.36 
L 492.360647 248.4 
L 493.461572 308.88 
L 494.562498 248.4 
L 495.663424 369.36 
L 496.76435 308.88 
L 497.865275 369.36 
L 500.067127 248.4 
L 501.168053 248.4 
L 502.268979 369.36 
L 503.369904 248.4 
L 504.47083 369.36 
L 505.571756 308.88 
L 506.672682 369.36 
L 507.773608 308.88 
L 508.874533 369.36 
L 509.975459 369.36 
L 512.177311 248.4 
L 513.278236 308.88 
L 514.379162 308.88 
L 515.480088 369.36 
L 517.68194 369.36 
L 518.782865 127.44 
L 519.883791 369.36 
L 527.590272 369.36 
L 528.691197 248.4 
L 529.792123 369.36 
L 531.993975 248.4 
L 533.094901 308.88 
L 534.195826 187.92 
L 535.296752 187.92 
L 536.397678 369.36 
L 537.498604 369.36 
L 538.59953 248.4 
L 539.700455 369.36 
L 540.801381 369.36 
L 541.902307 308.88 
L 543.003233 308.88 
L 544.104158 369.36 
L 545.205084 308.88 
L 546.30601 308.88 
L 547.406936 248.4 
L 548.507862 369.36 
L 549.608787 369.36 
L 550.709713 187.92 
L 551.810639 308.88 
L 552.911565 187.92 
L 554.012491 248.4 
L 555.113416 248.4 
L 556.214342 369.36 
L 557.315268 308.88 
L 558.416194 187.92 
L 559.517119 308.88 
L 560.618045 308.88 
L 561.718971 248.4 
L 563.920823 248.4 
L 565.021748 187.92 
L 566.122674 308.88 
L 567.2236 248.4 
L 568.324526 308.88 
L 569.425452 248.4 
L 570.526377 369.36 
L 571.627303 308.88 
L 572.728229 369.36 
L 574.93008 248.4 
L 576.031006 248.4 
L 577.131932 308.88 
L 579.333784 187.92 
L 580.434709 308.88 
L 581.535635 369.36 
L 583.737487 369.36 
L 584.838413 248.4 
L 587.040264 369.36 
L 593.645819 369.36 
L 594.746745 308.88 
L 596.948596 308.88 
L 598.049522 248.4 
L 599.150448 248.4 
L 601.352299 369.36 
L 603.554151 248.4 
L 604.655077 248.4 
L 605.756002 369.36 
L 607.957854 248.4 
L 609.05878 248.4 
L 610.159706 308.88 
L 611.260631 187.92 
L 612.361557 308.88 
L 613.462483 369.36 
L 615.664334 248.4 
L 616.76526 127.44 
L 617.866186 308.88 
L 618.967112 248.4 
L 620.068038 369.36 
L 621.168963 248.4 
L 622.269889 187.92 
L 625.572667 369.36 
L 627.774518 248.4 
L 628.875444 248.4 
L 629.97637 308.88 
L 631.077295 248.4 
L 632.178221 308.88 
L 633.279147 308.88 
L 634.380073 369.36 
L 635.480999 369.36 
L 636.581924 308.88 
L 637.68285 187.92 
L 638.783776 308.88 
L 639.884702 369.36 
L 640.985628 187.92 
L 642.086553 248.4 
L 643.187479 187.92 
L 644.288405 369.36 
L 646.490256 369.36 
L 647.591182 127.44 
L 648.692108 369.36 
L 649.793034 308.88 
L 650.89396 369.36 
L 651.994885 369.36 
L 653.095811 248.4 
L 654.196737 369.36 
L 655.297663 308.88 
L 657.499514 308.88 
L 658.60044 369.36 
L 659.701366 248.4 
L 661.903217 369.36 
L 665.205995 369.36 
L 666.306921 187.92 
L 667.407846 308.88 
L 668.508772 308.88 
L 669.609698 127.44 
L 670.710624 308.88 
L 671.81155 308.88 
L 672.912475 187.92 
L 674.013401 308.88 
L 675.114327 248.4 
L 676.215253 248.4 
L 677.316178 187.92 
L 678.417104 308.88 
L 679.51803 369.36 
L 680.618956 308.88 
L 681.719882 187.92 
L 682.820807 369.36 
L 683.921733 187.92 
L 685.022659 308.88 
L 686.123585 308.88 
L 687.224511 127.44 
L 688.325436 369.36 
L 689.426362 248.4 
L 690.527288 248.4 
L 691.628214 369.36 
L 692.729139 369.36 
L 693.830065 187.92 
L 694.930991 127.44 
L 696.031917 369.36 
L 697.132843 187.92 
L 698.233768 308.88 
L 699.334694 248.4 
L 700.43562 248.4 
L 702.637472 369.36 
L 704.839323 248.4 
L 705.940249 308.88 
L 707.041175 308.88 
L 708.1421 369.36 
L 709.243026 308.88 
L 712.545804 308.88 
L 713.646729 248.4 
L 716.949507 248.4 
L 718.050433 308.88 
L 719.151358 308.88 
L 720.252284 248.4 
L 723.555061 248.4 
L 724.655987 308.88 
L 725.756913 248.4 
L 727.958765 369.36 
L 729.05969 248.4 
L 730.160616 369.36 
L 731.261542 369.36 
L 732.362468 308.88 
L 734.564319 308.88 
L 735.665245 187.92 
L 736.766171 369.36 
L 737.867097 308.88 
L 738.968022 308.88 
L 740.068948 187.92 
L 741.169874 369.36 
L 742.2708 369.36 
L 743.371726 308.88 
L 744.472651 187.92 
L 745.573577 308.88 
L 746.674503 308.88 
L 747.775429 187.92 
L 748.876355 369.36 
L 749.97728 248.4 
L 752.179132 369.36 
L 753.280058 248.4 
L 754.380983 369.36 
L 755.481909 308.88 
L 756.582835 369.36 
L 757.683761 308.88 
L 758.784687 369.36 
L 759.885612 187.92 
L 760.986538 308.88 
L 762.087464 308.88 
L 763.18839 187.92 
L 764.289316 127.44 
L 765.390241 308.88 
L 766.491167 369.36 
L 767.592093 308.88 
L 773.096722 308.88 
L 774.197648 248.4 
L 775.298573 308.88 
L 776.399499 248.4 
L 777.500425 248.4 
L 778.601351 308.88 
L 780.803202 187.92 
L 781.904128 248.4 
L 783.005054 369.36 
L 784.10598 369.36 
L 785.206905 248.4 
L 786.307831 248.4 
L 787.408757 369.36 
L 788.509683 248.4 
L 789.610609 308.88 
L 790.711534 308.88 
L 791.81246 66.96 
L 792.913386 308.88 
L 794.014312 369.36 
L 795.115238 187.92 
L 796.216163 369.36 
L 797.317089 187.92 
L 798.418015 248.4 
L 799.518941 369.36 
L 800.619866 369.36 
L 801.720792 308.88 
L 802.821718 308.88 
L 803.922644 248.4 
L 805.02357 308.88 
L 808.326347 308.88 
L 809.427273 369.36 
L 809.427273 369.36 
" clip-path="url(#p11a252e96a)" style="fill: none; stroke: #1f77b4; stroke-width: 1.5; stroke-linecap: round"/>
   </g>
   <g id="patch_3">
    <path d="M 117 384.48 
L 117 51.84 
" style="fill: none; stroke: #262626; stroke-width: 0.8; stroke-linejoin: miter; stroke-linecap: square"/>
   </g>
   <g id="patch_4">
    <path d="M 842.4 384.48 
L 842.4 51.84 
" style="fill: none; stroke: #262626; stroke-width: 0.8; stroke-linejoin: miter; stroke-linecap: square"/>
   </g>
   <g id="patch_5">
    <path d="M 117 384.48 
L 842.4 384.48 
" style="fill: none; stroke: #262626; stroke-width: 0.8; stroke-linejoin: miter; stroke-linecap: square"/>
   </g>
   <g id="patch_6">
    <path d="M 117 51.84 
L 842.4 51.84 
" style="fill: none; stroke: #262626; stroke-width: 0.8; stroke-linejoin: miter; stroke-linecap: square"/>
   </g>
   <g id="text_15">
    <!-- Each id win counts: 500 turns for 600 people kill simulation -->
    <g style="fill: #262626" transform="translate(310.610625 45.84)scale(0.12 -0.12)">
     <defs>
      <path id="MicrosoftYaHei-45" d="M 3228 0 
L 625 0 
L 625 4841 
L 3119 4841 
L 3119 4284 
L 1250 4284 
L 1250 2734 
L 2981 2734 
L 2981 2181 
L 1250 2181 
L 1250 553 
L 3228 553 
L 3228 0 
z
" transform="scale(0.015625)"/>
      <path id="MicrosoftYaHei-61" d="M 628 3216 
Q 1144 3538 1819 3538 
Q 3069 3538 3069 2225 
L 3069 0 
L 2463 0 
L 2463 534 
L 2447 534 
Q 2088 -81 1388 -81 
Q 884 -81 587 191 
Q 291 463 291 925 
Q 291 1894 1438 2053 
L 2463 2197 
Q 2463 3044 1763 3044 
Q 1141 3044 628 2625 
L 628 3216 
z
M 1653 1625 
Q 1228 1569 1067 1412 
Q 906 1256 906 975 
Q 906 728 1081 572 
Q 1256 416 1544 416 
Q 1944 416 2203 697 
Q 2463 978 2463 1403 
L 2463 1734 
L 1653 1625 
z
" transform="scale(0.015625)"/>
      <path id="MicrosoftYaHei-63" d="M 2934 156 
Q 2538 -81 1978 -81 
Q 1228 -81 772 400 
Q 316 881 316 1647 
Q 316 2497 808 3017 
Q 1300 3538 2125 3538 
Q 2600 3538 2938 3369 
L 2938 2763 
Q 2572 3031 2125 3031 
Q 1600 3031 1270 2667 
Q 941 2303 941 1697 
Q 941 1100 1252 762 
Q 1563 425 2091 425 
Q 2538 425 2934 719 
L 2934 156 
z
" transform="scale(0.015625)"/>
      <path id="MicrosoftYaHei-68" d="M 3466 0 
L 2856 0 
L 2856 1988 
Q 2856 3031 2081 3031 
Q 1684 3031 1421 2726 
Q 1159 2422 1159 1959 
L 1159 0 
L 547 0 
L 547 5116 
L 1159 5116 
L 1159 2888 
L 1172 2888 
Q 1569 3538 2300 3538 
Q 3466 3538 3466 2128 
L 3466 0 
z
" transform="scale(0.015625)"/>
      <path id="MicrosoftYaHei-20" transform="scale(0.015625)"/>
      <path id="MicrosoftYaHei-77" d="M 4975 3456 
L 3944 0 
L 3306 0 
L 2619 2425 
Q 2575 2581 2563 2756 
L 2550 2756 
Q 2541 2625 2478 2431 
L 1734 0 
L 1116 0 
L 78 3456 
L 716 3456 
L 1406 894 
Q 1438 778 1453 578 
L 1478 578 
Q 1491 750 1538 903 
L 2281 3456 
L 2847 3456 
L 3572 891 
Q 3603 778 3622 572 
L 3650 572 
Q 3656 709 3706 891 
L 4381 3456 
L 4975 3456 
z
" transform="scale(0.015625)"/>
      <path id="MicrosoftYaHei-6e" d="M 3469 0 
L 2859 0 
L 2859 1966 
Q 2859 3031 2081 3031 
Q 1678 3031 1418 2731 
Q 1159 2431 1159 1972 
L 1159 0 
L 547 0 
L 547 3456 
L 1159 3456 
L 1159 2884 
L 1172 2884 
Q 1563 3538 2306 3538 
Q 2875 3538 3172 3173 
Q 3469 2809 3469 2113 
L 3469 0 
z
" transform="scale(0.015625)"/>
      <path id="MicrosoftYaHei-6f" d="M 316 1691 
Q 316 2547 794 3042 
Q 1272 3538 2091 3538 
Q 2869 3538 3311 3061 
Q 3753 2584 3753 1744 
Q 3753 925 3281 422 
Q 2809 -81 2016 -81 
Q 1241 -81 778 406 
Q 316 894 316 1691 
z
M 941 1709 
Q 941 1113 1242 769 
Q 1544 425 2053 425 
Q 2578 425 2853 761 
Q 3128 1097 3128 1725 
Q 3128 2356 2853 2693 
Q 2578 3031 2053 3031 
Q 1538 3031 1239 2678 
Q 941 2325 941 1709 
z
" transform="scale(0.015625)"/>
      <path id="MicrosoftYaHei-75" d="M 3400 0 
L 2784 0 
L 2784 544 
L 2772 544 
Q 2425 -81 1706 -81 
Q 478 -81 478 1388 
L 478 3456 
L 1084 3456 
L 1084 1478 
Q 1084 425 1891 425 
Q 2291 425 2537 720 
Q 2784 1016 2784 1466 
L 2784 3456 
L 3400 3456 
L 3400 0 
z
" transform="scale(0.015625)"/>
      <path id="MicrosoftYaHei-74" d="M 2206 34 
Q 2006 -75 1666 -75 
Q 738 -75 738 953 
L 738 2950 
L 144 2950 
L 144 3456 
L 738 3456 
L 738 4288 
L 1347 4481 
L 1347 3456 
L 2206 3456 
L 2206 2950 
L 1347 2950 
L 1347 1063 
Q 1347 722 1462 575 
Q 1578 428 1847 428 
Q 2053 428 2206 544 
L 2206 34 
z
" transform="scale(0.015625)"/>
      <path id="MicrosoftYaHei-73" d="M 353 747 
Q 816 413 1350 413 
Q 2066 413 2066 881 
Q 2066 1081 1909 1211 
Q 1753 1341 1275 1519 
Q 700 1750 528 1976 
Q 356 2203 356 2525 
Q 356 2984 745 3261 
Q 1134 3538 1703 3538 
Q 2144 3538 2522 3384 
L 2522 2794 
Q 2134 3044 1644 3044 
Q 1350 3044 1165 2916 
Q 981 2788 981 2578 
Q 981 2372 1114 2256 
Q 1247 2141 1703 1959 
Q 2281 1744 2484 1512 
Q 2688 1281 2688 941 
Q 2688 466 2298 192 
Q 1909 -81 1291 -81 
Q 753 -81 353 122 
L 353 747 
z
" transform="scale(0.015625)"/>
      <path id="MicrosoftYaHei-3a" d="M 372 3134 
Q 372 3303 490 3415 
Q 609 3528 775 3528 
Q 944 3528 1062 3414 
Q 1181 3300 1181 3134 
Q 1181 2969 1065 2853 
Q 950 2738 772 2738 
Q 603 2738 487 2853 
Q 372 2969 372 3134 
z
M 372 322 
Q 372 491 487 606 
Q 603 722 775 722 
Q 950 722 1065 605 
Q 1181 488 1181 322 
Q 1181 159 1065 42 
Q 950 -75 772 -75 
Q 600 -75 486 42 
Q 372 159 372 322 
z
" transform="scale(0.015625)"/>
      <path id="MicrosoftYaHei-72" d="M 2400 2850 
Q 2247 2959 1978 2959 
Q 1622 2959 1390 2626 
Q 1159 2294 1159 1750 
L 1159 0 
L 547 0 
L 547 3456 
L 1159 3456 
L 1159 2753 
L 1172 2753 
Q 1434 3516 2078 3516 
Q 2288 3516 2400 3469 
L 2400 2850 
z
" transform="scale(0.015625)"/>
      <path id="MicrosoftYaHei-66" d="M 2319 4594 
Q 2147 4684 1947 4684 
Q 1372 4684 1372 3972 
L 1372 3456 
L 2181 3456 
L 2181 2950 
L 1372 2950 
L 1372 0 
L 766 0 
L 766 2950 
L 175 2950 
L 175 3456 
L 766 3456 
L 766 4000 
Q 766 4556 1086 4873 
Q 1406 5191 1900 5191 
Q 2163 5191 2319 5131 
L 2319 4594 
z
" transform="scale(0.015625)"/>
      <path id="MicrosoftYaHei-70" d="M 1159 488 
L 1159 -1591 
L 547 -1591 
L 547 3456 
L 1159 3456 
L 1159 2859 
L 1172 2859 
Q 1578 3538 2359 3538 
Q 3022 3538 3398 3073 
Q 3775 2609 3775 1828 
Q 3775 966 3348 442 
Q 2922 -81 2200 -81 
Q 1534 -81 1172 488 
L 1159 488 
z
M 1156 1425 
Q 1156 1003 1428 714 
Q 1700 425 2109 425 
Q 2597 425 2872 800 
Q 3147 1175 3147 1838 
Q 3147 2397 2890 2714 
Q 2634 3031 2191 3031 
Q 1738 3031 1447 2709 
Q 1156 2388 1156 1884 
L 1156 1425 
z
" transform="scale(0.015625)"/>
      <path id="MicrosoftYaHei-65" d="M 3363 1572 
L 944 1572 
Q 959 1019 1246 717 
Q 1534 416 2050 416 
Q 2631 416 3116 788 
L 3116 241 
Q 2659 -81 1906 -81 
Q 1156 -81 736 394 
Q 316 869 316 1713 
Q 316 2506 777 3022 
Q 1238 3538 1922 3538 
Q 2600 3538 2981 3102 
Q 3363 2666 3363 1881 
L 3363 1572 
z
M 2750 2063 
Q 2747 2531 2528 2787 
Q 2309 3044 1913 3044 
Q 1547 3044 1280 2772 
Q 1013 2500 944 2063 
L 2750 2063 
z
" transform="scale(0.015625)"/>
      <path id="MicrosoftYaHei-6c" d="M 544 0 
L 544 5116 
L 1156 5116 
L 1156 0 
L 544 0 
z
" transform="scale(0.015625)"/>
      <path id="MicrosoftYaHei-6b" d="M 3484 0 
L 2650 0 
L 1172 1666 
L 1159 1666 
L 1159 0 
L 547 0 
L 547 5116 
L 1159 5116 
L 1159 1872 
L 1172 1872 
L 2575 3456 
L 3363 3456 
L 1800 1794 
L 3484 0 
z
" transform="scale(0.015625)"/>
      <path id="MicrosoftYaHei-6d" d="M 5522 0 
L 4909 0 
L 4909 1984 
Q 4909 2547 4734 2789 
Q 4559 3031 4159 3031 
Q 3822 3031 3581 2715 
Q 3341 2400 3341 1969 
L 3341 0 
L 2728 0 
L 2728 2047 
Q 2728 3031 1969 3031 
Q 1619 3031 1389 2731 
Q 1159 2431 1159 1966 
L 1159 0 
L 547 0 
L 547 3456 
L 1159 3456 
L 1159 2909 
L 1172 2909 
Q 1541 3538 2250 3538 
Q 2597 3538 2862 3347 
Q 3128 3156 3231 2831 
Q 3616 3538 4381 3538 
Q 5522 3538 5522 2131 
L 5522 0 
z
" transform="scale(0.015625)"/>
     </defs>
     <use xlink:href="#MicrosoftYaHei-45"/>
     <use xlink:href="#MicrosoftYaHei-61" x="54.980469"/>
     <use xlink:href="#MicrosoftYaHei-63" x="110.253906"/>
     <use xlink:href="#MicrosoftYaHei-68" x="160.400391"/>
     <use xlink:href="#MicrosoftYaHei-20" x="221.972656"/>
     <use xlink:href="#MicrosoftYaHei-69" x="251.5625"/>
     <use xlink:href="#MicrosoftYaHei-64" x="278.173828"/>
     <use xlink:href="#MicrosoftYaHei-20" x="342.138672"/>
     <use xlink:href="#MicrosoftYaHei-77" x="371.728516"/>
     <use xlink:href="#MicrosoftYaHei-69" x="450.683594"/>
     <use xlink:href="#MicrosoftYaHei-6e" x="477.294922"/>
     <use xlink:href="#MicrosoftYaHei-20" x="538.916016"/>
     <use xlink:href="#MicrosoftYaHei-63" x="568.505859"/>
     <use xlink:href="#MicrosoftYaHei-6f" x="618.652344"/>
     <use xlink:href="#MicrosoftYaHei-75" x="682.226562"/>
     <use xlink:href="#MicrosoftYaHei-6e" x="743.847656"/>
     <use xlink:href="#MicrosoftYaHei-74" x="805.46875"/>
     <use xlink:href="#MicrosoftYaHei-73" x="842.724609"/>
     <use xlink:href="#MicrosoftYaHei-3a" x="889.013672"/>
     <use xlink:href="#MicrosoftYaHei-20" x="913.085938"/>
     <use xlink:href="#MicrosoftYaHei-35" x="942.675781"/>
     <use xlink:href="#MicrosoftYaHei-30" x="1001.318359"/>
     <use xlink:href="#MicrosoftYaHei-30" x="1059.960938"/>
     <use xlink:href="#MicrosoftYaHei-20" x="1118.603516"/>
     <use xlink:href="#MicrosoftYaHei-74" x="1148.193359"/>
     <use xlink:href="#MicrosoftYaHei-75" x="1185.449219"/>
     <use xlink:href="#MicrosoftYaHei-72" x="1247.070312"/>
     <use xlink:href="#MicrosoftYaHei-6e" x="1285.003906"/>
     <use xlink:href="#MicrosoftYaHei-73" x="1346.625"/>
     <use xlink:href="#MicrosoftYaHei-20" x="1392.914062"/>
     <use xlink:href="#MicrosoftYaHei-66" x="1422.503906"/>
     <use xlink:href="#MicrosoftYaHei-6f" x="1457.171875"/>
     <use xlink:href="#MicrosoftYaHei-72" x="1520.746094"/>
     <use xlink:href="#MicrosoftYaHei-20" x="1558.929688"/>
     <use xlink:href="#MicrosoftYaHei-36" x="1588.519531"/>
     <use xlink:href="#MicrosoftYaHei-30" x="1647.162109"/>
     <use xlink:href="#MicrosoftYaHei-30" x="1705.804688"/>
     <use xlink:href="#MicrosoftYaHei-20" x="1764.447266"/>
     <use xlink:href="#MicrosoftYaHei-70" x="1794.037109"/>
     <use xlink:href="#MicrosoftYaHei-65" x="1857.904297"/>
     <use xlink:href="#MicrosoftYaHei-6f" x="1914.642578"/>
     <use xlink:href="#MicrosoftYaHei-70" x="1978.216797"/>
     <use xlink:href="#MicrosoftYaHei-6c" x="2042.083984"/>
     <use xlink:href="#MicrosoftYaHei-65" x="2068.695312"/>
     <use xlink:href="#MicrosoftYaHei-20" x="2125.433594"/>
     <use xlink:href="#MicrosoftYaHei-6b" x="2155.023438"/>
     <use xlink:href="#MicrosoftYaHei-69" x="2209.466797"/>
     <use xlink:href="#MicrosoftYaHei-6c" x="2236.078125"/>
     <use xlink:href="#MicrosoftYaHei-6c" x="2262.689453"/>
     <use xlink:href="#MicrosoftYaHei-20" x="2289.300781"/>
     <use xlink:href="#MicrosoftYaHei-73" x="2318.890625"/>
     <use xlink:href="#MicrosoftYaHei-69" x="2365.179688"/>
     <use xlink:href="#MicrosoftYaHei-6d" x="2391.791016"/>
     <use xlink:href="#MicrosoftYaHei-75" x="2485.492188"/>
     <use xlink:href="#MicrosoftYaHei-6c" x="2547.113281"/>
     <use xlink:href="#MicrosoftYaHei-61" x="2573.724609"/>
     <use xlink:href="#MicrosoftYaHei-74" x="2628.998047"/>
     <use xlink:href="#MicrosoftYaHei-69" x="2666.253906"/>
     <use xlink:href="#MicrosoftYaHei-6f" x="2692.865234"/>
     <use xlink:href="#MicrosoftYaHei-6e" x="2756.439453"/>
    </g>
   </g>
   <g id="legend_1">
    <g id="patch_7">
     <path d="M 124 75.319687 
L 204.623437 75.319687 
Q 206.623437 75.319687 206.623437 73.319687 
L 206.623437 58.84 
Q 206.623437 56.84 204.623437 56.84 
L 124 56.84 
Q 122 56.84 122 58.84 
L 122 73.319687 
Q 122 75.319687 124 75.319687 
z
" style="fill: #ffffff; opacity: 0.8; stroke: #cccccc; stroke-linejoin: miter"/>
    </g>
    <g id="line2d_2">
     <path d="M 126 65.33375 
L 136 65.33375 
L 146 65.33375 
" style="fill: none; stroke: #1f77b4; stroke-width: 1.5; stroke-linecap: round"/>
    </g>
    <g id="text_16">
     <!-- win_count -->
     <g style="fill: #262626" transform="translate(154 68.83375)scale(0.1 -0.1)">
      <defs>
       <path id="MicrosoftYaHei-5f" d="M 2869 -1003 
L 0 -1003 
L 0 -600 
L 2869 -600 
L 2869 -1003 
z
" transform="scale(0.015625)"/>
      </defs>
      <use xlink:href="#MicrosoftYaHei-77"/>
      <use xlink:href="#MicrosoftYaHei-69" x="78.955078"/>
      <use xlink:href="#MicrosoftYaHei-6e" x="105.566406"/>
      <use xlink:href="#MicrosoftYaHei-5f" x="167.1875"/>
      <use xlink:href="#MicrosoftYaHei-63" x="212.011719"/>
      <use xlink:href="#MicrosoftYaHei-6f" x="262.158203"/>
      <use xlink:href="#MicrosoftYaHei-75" x="325.732422"/>
      <use xlink:href="#MicrosoftYaHei-6e" x="387.353516"/>
      <use xlink:href="#MicrosoftYaHei-74" x="448.974609"/>
     </g>
    </g>
   </g>
  </g>
 </g>
 <defs>
  <clipPath id="p11a252e96a">
   <rect x="117" y="51.84" width="725.4" height="332.64"/>
  </clipPath>
 </defs>
</svg>
