<?xml version="1.0" encoding="utf-8" standalone="no"?>
<!DOCTYPE svg PUBLIC "-//W3C//DTD SVG 1.1//EN"
  "http://www.w3.org/Graphics/SVG/1.1/DTD/svg11.dtd">
<svg xmlns:xlink="http://www.w3.org/1999/xlink" width="936pt" height="432pt" viewBox="0 0 936 432" xmlns="http://www.w3.org/2000/svg" version="1.1">
 <metadata>
  <rdf:RDF xmlns:dc="http://purl.org/dc/elements/1.1/" xmlns:cc="http://creativecommons.org/ns#" xmlns:rdf="http://www.w3.org/1999/02/22-rdf-syntax-ns#">
   <cc:Work>
    <dc:type rdf:resource="http://purl.org/dc/dcmitype/StillImage"/>
    <dc:date>2024-08-18T23:38:08.537428</dc:date>
    <dc:format>image/svg+xml</dc:format>
    <dc:creator>
     <cc:Agent>
      <dc:title>Matplotlib v3.5.1, https://matplotlib.org/</dc:title>
     </cc:Agent>
    </dc:creator>
   </cc:Work>
  </rdf:RDF>
 </metadata>
 <defs>
  <style type="text/css">*{stroke-linejoin: round; stroke-linecap: butt}</style>
 </defs>
 <g id="figure_1">
  <g id="patch_1">
   <path d="M 0 432 
L 936 432 
L 936 0 
L 0 0 
z
" style="fill: #ffffff"/>
  </g>
  <g id="axes_1">
   <g id="patch_2">
    <path d="M 117 384.48 
L 842.4 384.48 
L 842.4 51.84 
L 117 51.84 
z
" style="fill: #ffffff"/>
   </g>
   <g id="matplotlib.axis_1">
    <g id="xtick_1">
     <g id="text_1">
      <!-- 0 -->
      <g style="fill: #262626" transform="translate(140.379539 399.47375)scale(0.1 -0.1)">
       <defs>
        <path id="MicrosoftYaHei-30" d="M 284 2325 
Q 284 3606 709 4264 
Q 1134 4922 1941 4922 
Q 3478 4922 3478 2441 
Q 3478 1216 3045 567 
Q 2613 -81 1831 -81 
Q 1094 -81 689 534 
Q 284 1150 284 2325 
z
M 909 2353 
Q 909 425 1888 425 
Q 2850 425 2850 2384 
Q 2850 4413 1906 4413 
Q 909 4413 909 2353 
z
" transform="scale(0.015625)"/>
       </defs>
       <use xlink:href="#MicrosoftYaHei-30"/>
      </g>
     </g>
    </g>
    <g id="xtick_2">
     <g id="text_2">
      <!-- 20 -->
      <g style="fill: #262626" transform="translate(270.670648 399.47375)scale(0.1 -0.1)">
       <defs>
        <path id="MicrosoftYaHei-32" d="M 3275 0 
L 331 0 
L 331 531 
L 1738 1934 
Q 2319 2516 2516 2855 
Q 2713 3194 2713 3556 
Q 2713 3969 2481 4189 
Q 2250 4409 1813 4409 
Q 1166 4409 578 3859 
L 578 4481 
Q 1150 4922 1909 4922 
Q 2563 4922 2941 4569 
Q 3319 4216 3319 3619 
Q 3319 3169 3076 2736 
Q 2834 2303 2159 1634 
L 1056 556 
L 1056 544 
L 3275 544 
L 3275 0 
z
" transform="scale(0.015625)"/>
       </defs>
       <use xlink:href="#MicrosoftYaHei-32"/>
       <use xlink:href="#MicrosoftYaHei-30" x="58.642578"/>
      </g>
     </g>
    </g>
    <g id="xtick_3">
     <g id="text_3">
      <!-- 40 -->
      <g style="fill: #262626" transform="translate(403.893789 399.47375)scale(0.1 -0.1)">
       <defs>
        <path id="MicrosoftYaHei-34" d="M 3525 1256 
L 2906 1256 
L 2906 0 
L 2313 0 
L 2313 1256 
L 56 1256 
L 56 1653 
L 2197 4841 
L 2906 4841 
L 2906 1741 
L 3525 1741 
L 3525 1256 
z
M 2313 1741 
L 2313 3769 
Q 2313 3984 2325 4266 
L 2313 4266 
Q 2269 4147 2128 3894 
L 688 1741 
L 2313 1741 
z
" transform="scale(0.015625)"/>
       </defs>
       <use xlink:href="#MicrosoftYaHei-34"/>
       <use xlink:href="#MicrosoftYaHei-30" x="58.642578"/>
      </g>
     </g>
    </g>
    <g id="xtick_4">
     <g id="text_4">
      <!-- 60 -->
      <g style="fill: #262626" transform="translate(537.116929 399.47375)scale(0.1 -0.1)">
       <defs>
        <path id="MicrosoftYaHei-36" d="M 3181 4219 
Q 2803 4413 2391 4413 
Q 1763 4413 1381 3866 
Q 1000 3319 994 2372 
L 1009 2372 
Q 1353 3038 2106 3038 
Q 2734 3038 3109 2628 
Q 3484 2219 3484 1541 
Q 3484 831 3051 375 
Q 2619 -81 1947 -81 
Q 1209 -81 789 495 
Q 369 1072 369 2131 
Q 369 3413 920 4167 
Q 1472 4922 2372 4922 
Q 2888 4922 3181 4781 
L 3181 4219 
z
M 1031 1584 
Q 1031 1106 1286 765 
Q 1541 425 1963 425 
Q 2363 425 2613 719 
Q 2863 1013 2863 1475 
Q 2863 1975 2627 2253 
Q 2391 2531 1956 2531 
Q 1544 2531 1287 2250 
Q 1031 1969 1031 1584 
z
" transform="scale(0.015625)"/>
       </defs>
       <use xlink:href="#MicrosoftYaHei-36"/>
       <use xlink:href="#MicrosoftYaHei-30" x="58.642578"/>
      </g>
     </g>
    </g>
    <g id="xtick_5">
     <g id="text_5">
      <!-- 80 -->
      <g style="fill: #262626" transform="translate(670.34007 399.47375)scale(0.1 -0.1)">
       <defs>
        <path id="MicrosoftYaHei-38" d="M 1369 2547 
Q 503 2950 503 3716 
Q 503 4250 909 4586 
Q 1316 4922 1947 4922 
Q 2525 4922 2900 4606 
Q 3275 4291 3275 3791 
Q 3275 2984 2372 2550 
L 2372 2538 
Q 3431 2156 3431 1238 
Q 3431 634 2995 276 
Q 2559 -81 1778 -81 
Q 1138 -81 734 272 
Q 331 625 331 1188 
Q 331 2113 1369 2534 
L 1369 2547 
z
M 2656 3719 
Q 2656 4044 2453 4231 
Q 2250 4419 1903 4419 
Q 1578 4419 1350 4223 
Q 1122 4028 1122 3725 
Q 1122 3119 1881 2803 
Q 2656 3125 2656 3719 
z
M 1844 2256 
Q 947 1894 947 1219 
Q 947 869 1209 644 
Q 1472 419 1894 419 
Q 2303 419 2559 642 
Q 2816 866 2816 1200 
Q 2816 1903 1844 2256 
z
" transform="scale(0.015625)"/>
       </defs>
       <use xlink:href="#MicrosoftYaHei-38"/>
       <use xlink:href="#MicrosoftYaHei-30" x="58.642578"/>
      </g>
     </g>
    </g>
    <g id="xtick_6">
     <g id="text_6">
      <!-- 100 -->
      <g style="fill: #262626" transform="translate(800.631179 399.47375)scale(0.1 -0.1)">
       <defs>
        <path id="MicrosoftYaHei-31" d="M 3366 0 
L 591 0 
L 591 528 
L 1675 528 
L 1675 4203 
L 563 3881 
L 563 4444 
L 2284 4944 
L 2284 528 
L 3366 528 
L 3366 0 
z
" transform="scale(0.015625)"/>
       </defs>
       <use xlink:href="#MicrosoftYaHei-31"/>
       <use xlink:href="#MicrosoftYaHei-30" x="58.642578"/>
       <use xlink:href="#MicrosoftYaHei-30" x="117.285156"/>
      </g>
     </g>
    </g>
    <g id="text_7">
     <!-- id -->
     <g style="fill: #262626" transform="translate(475.171094 413.953438)scale(0.1 -0.1)">
      <defs>
       <path id="MicrosoftYaHei-69" d="M 472 4675 
Q 472 4838 583 4948 
Q 694 5059 856 5059 
Q 1022 5059 1136 4950 
Q 1250 4841 1250 4675 
Q 1250 4513 1136 4405 
Q 1022 4297 856 4297 
Q 691 4297 581 4405 
Q 472 4513 472 4675 
z
M 544 0 
L 544 3456 
L 1156 3456 
L 1156 0 
L 544 0 
z
" transform="scale(0.015625)"/>
       <path id="MicrosoftYaHei-64" d="M 3547 0 
L 2934 0 
L 2934 575 
L 2922 575 
Q 2544 -81 1747 -81 
Q 1091 -81 703 386 
Q 316 853 316 1647 
Q 316 2503 753 3020 
Q 1191 3538 1897 3538 
Q 2603 3538 2922 2988 
L 2934 2988 
L 2934 5116 
L 3547 5116 
L 3547 0 
z
M 2938 2056 
Q 2938 2472 2664 2751 
Q 2391 3031 1991 3031 
Q 1503 3031 1222 2667 
Q 941 2303 941 1675 
Q 941 1097 1211 761 
Q 1481 425 1931 425 
Q 2375 425 2656 754 
Q 2938 1084 2938 1575 
L 2938 2056 
z
" transform="scale(0.015625)"/>
      </defs>
      <use xlink:href="#MicrosoftYaHei-69"/>
      <use xlink:href="#MicrosoftYaHei-64" x="26.611328"/>
     </g>
    </g>
   </g>
   <g id="matplotlib.axis_2">
    <g id="ytick_1">
     <g id="text_8">
      <!-- 35 -->
      <g style="fill: #262626" transform="translate(98.271875 353.778762)scale(0.1 -0.1)">
       <defs>
        <path id="MicrosoftYaHei-33" d="M 447 809 
Q 944 425 1569 425 
Q 2069 425 2361 670 
Q 2653 916 2653 1328 
Q 2653 2247 1338 2247 
L 934 2247 
L 934 2753 
L 1319 2753 
Q 2484 2753 2484 3616 
Q 2484 4413 1594 4413 
Q 1084 4413 634 4069 
L 634 4647 
Q 1109 4922 1744 4922 
Q 2363 4922 2738 4598 
Q 3113 4275 3113 3759 
Q 3113 2809 2144 2538 
L 2144 2525 
Q 2669 2469 2973 2155 
Q 3278 1841 3278 1372 
Q 3278 719 2808 319 
Q 2338 -81 1556 -81 
Q 869 -81 447 175 
L 447 809 
z
" transform="scale(0.015625)"/>
        <path id="MicrosoftYaHei-35" d="M 553 744 
Q 1041 425 1569 425 
Q 2069 425 2375 704 
Q 2681 984 2681 1447 
Q 2681 1913 2370 2169 
Q 2059 2425 1469 2425 
Q 1184 2425 703 2381 
L 703 4841 
L 3084 4841 
L 3084 4300 
L 1272 4300 
L 1272 2931 
Q 1544 2947 1681 2947 
Q 2447 2947 2875 2559 
Q 3303 2172 3303 1491 
Q 3303 788 2843 353 
Q 2384 -81 1575 -81 
Q 897 -81 553 119 
L 553 744 
z
" transform="scale(0.015625)"/>
       </defs>
       <use xlink:href="#MicrosoftYaHei-33"/>
       <use xlink:href="#MicrosoftYaHei-35" x="58.642578"/>
      </g>
     </g>
    </g>
    <g id="ytick_2">
     <g id="text_9">
      <!-- 40 -->
      <g style="fill: #262626" transform="translate(98.271875 288.300123)scale(0.1 -0.1)">
       <use xlink:href="#MicrosoftYaHei-34"/>
       <use xlink:href="#MicrosoftYaHei-30" x="58.642578"/>
      </g>
     </g>
    </g>
    <g id="ytick_3">
     <g id="text_10">
      <!-- 45 -->
      <g style="fill: #262626" transform="translate(98.271875 222.821483)scale(0.1 -0.1)">
       <use xlink:href="#MicrosoftYaHei-34"/>
       <use xlink:href="#MicrosoftYaHei-35" x="58.642578"/>
      </g>
     </g>
    </g>
    <g id="ytick_4">
     <g id="text_11">
      <!-- 50 -->
      <g style="fill: #262626" transform="translate(98.271875 157.342844)scale(0.1 -0.1)">
       <use xlink:href="#MicrosoftYaHei-35"/>
       <use xlink:href="#MicrosoftYaHei-30" x="58.642578"/>
      </g>
     </g>
    </g>
    <g id="ytick_5">
     <g id="text_12">
      <!-- 55 -->
      <g style="fill: #262626" transform="translate(98.271875 91.864205)scale(0.1 -0.1)">
       <use xlink:href="#MicrosoftYaHei-35"/>
       <use xlink:href="#MicrosoftYaHei-35" x="58.642578"/>
      </g>
     </g>
    </g>
   </g>
   <g id="line2d_1">
    <path d="M 149.972727 369.36 
L 156.633884 66.96 
L 163.295041 245.232143 
L 169.956198 91.566873 
L 176.617355 205.800907 
L 183.278512 121.988248 
L 189.939669 189.902693 
L 196.600826 104.636409 
L 203.261983 180.905928 
L 209.92314 122.007892 
L 216.584298 158.662834 
L 223.245455 127.180705 
L 229.906612 161.111735 
L 236.567769 135.771502 
L 243.228926 159.081898 
L 249.890083 116.553521 
L 256.55124 165.983346 
L 263.212397 131.246928 
L 269.873554 174.358064 
L 276.534711 118.864917 
L 283.195868 146.418329 
L 289.857025 140.073449 
L 296.518182 149.188075 
L 303.179339 139.340088 
L 309.840496 151.538758 
L 316.501653 129.138516 
L 323.16281 133.925004 
L 329.823967 128.097406 
L 336.485124 157.896734 
L 343.146281 131.214189 
L 349.807438 148.566028 
L 356.468595 134.160728 
L 363.129752 156.220481 
L 369.790909 140.158571 
L 376.452066 151.303035 
L 383.113223 131.482651 
L 389.77438 149.129144 
L 396.435537 147.865407 
L 403.096694 147.184429 
L 409.757851 129.760563 
L 416.419008 156.462752 
L 423.080165 131.849332 
L 429.741322 138.148377 
L 436.402479 128.824218 
L 443.063636 156.305603 
L 449.724793 126.015185 
L 456.38595 153.673362 
L 463.047107 126.814024 
L 469.708264 156.953842 
L 476.369421 141.991973 
L 483.030579 169.800751 
L 489.691736 129.328404 
L 496.352893 163.416584 
L 503.01405 134.370259 
L 509.675207 139.968683 
L 516.336364 134.06251 
L 522.997521 147.642779 
L 529.658678 116.540426 
L 536.319835 150.21609 
L 542.980992 123.317465 
L 549.642149 159.284881 
L 556.303306 154.714472 
L 562.964463 164.097561 
L 569.62562 125.20325 
L 576.286777 143.406311 
L 582.947934 138.999599 
L 589.609091 148.873778 
L 596.270248 133.440463 
L 602.931405 159.153924 
L 609.592562 155.30378 
L 616.253719 148.664246 
L 622.914876 141.926494 
L 629.576033 151.47328 
L 636.23719 132.451735 
L 642.898347 148.965448 
L 649.559504 128.739096 
L 656.220661 148.755916 
L 662.881818 161.530799 
L 669.542975 146.791557 
L 676.204132 120.017341 
L 682.865289 153.385256 
L 689.526446 152.992384 
L 696.187603 146.464164 
L 702.84876 146.241536 
L 709.509917 143.465242 
L 716.171074 151.938178 
L 722.832231 170.514468 
L 729.493388 154.236478 
L 736.154545 145.796282 
L 742.815702 152.481651 
L 749.47686 158.283058 
L 756.138017 138.043611 
L 762.799174 151.014929 
L 769.460331 129.498648 
L 776.121488 151.669716 
L 782.782645 140.210954 
L 789.443802 129.236734 
L 796.104959 144.349204 
L 802.766116 138.325169 
L 809.427273 154.328148 
" clip-path="url(#p78f70a343f)" style="fill: none; stroke: #1f77b4; stroke-width: 1.5; stroke-linecap: round"/>
   </g>
   <g id="patch_3">
    <path d="M 117 384.48 
L 117 51.84 
" style="fill: none; stroke: #262626; stroke-width: 0.8; stroke-linejoin: miter; stroke-linecap: square"/>
   </g>
   <g id="patch_4">
    <path d="M 842.4 384.48 
L 842.4 51.84 
" style="fill: none; stroke: #262626; stroke-width: 0.8; stroke-linejoin: miter; stroke-linecap: square"/>
   </g>
   <g id="patch_5">
    <path d="M 117 384.48 
L 842.4 384.48 
" style="fill: none; stroke: #262626; stroke-width: 0.8; stroke-linejoin: miter; stroke-linecap: square"/>
   </g>
   <g id="patch_6">
    <path d="M 117 51.84 
L 842.4 51.84 
" style="fill: none; stroke: #262626; stroke-width: 0.8; stroke-linejoin: miter; stroke-linecap: square"/>
   </g>
   <g id="text_13">
    <!-- Each id average survival turns: 2000 turns for 100 people kill simulation -->
    <g style="fill: #262626" transform="translate(275.494687 45.84)scale(0.12 -0.12)">
     <defs>
      <path id="MicrosoftYaHei-45" d="M 3228 0 
L 625 0 
L 625 4841 
L 3119 4841 
L 3119 4284 
L 1250 4284 
L 1250 2734 
L 2981 2734 
L 2981 2181 
L 1250 2181 
L 1250 553 
L 3228 553 
L 3228 0 
z
" transform="scale(0.015625)"/>
      <path id="MicrosoftYaHei-61" d="M 628 3216 
Q 1144 3538 1819 3538 
Q 3069 3538 3069 2225 
L 3069 0 
L 2463 0 
L 2463 534 
L 2447 534 
Q 2088 -81 1388 -81 
Q 884 -81 587 191 
Q 291 463 291 925 
Q 291 1894 1438 2053 
L 2463 2197 
Q 2463 3044 1763 3044 
Q 1141 3044 628 2625 
L 628 3216 
z
M 1653 1625 
Q 1228 1569 1067 1412 
Q 906 1256 906 975 
Q 906 728 1081 572 
Q 1256 416 1544 416 
Q 1944 416 2203 697 
Q 2463 978 2463 1403 
L 2463 1734 
L 1653 1625 
z
" transform="scale(0.015625)"/>
      <path id="MicrosoftYaHei-63" d="M 2934 156 
Q 2538 -81 1978 -81 
Q 1228 -81 772 400 
Q 316 881 316 1647 
Q 316 2497 808 3017 
Q 1300 3538 2125 3538 
Q 2600 3538 2938 3369 
L 2938 2763 
Q 2572 3031 2125 3031 
Q 1600 3031 1270 2667 
Q 941 2303 941 1697 
Q 941 1100 1252 762 
Q 1563 425 2091 425 
Q 2538 425 2934 719 
L 2934 156 
z
" transform="scale(0.015625)"/>
      <path id="MicrosoftYaHei-68" d="M 3466 0 
L 2856 0 
L 2856 1988 
Q 2856 3031 2081 3031 
Q 1684 3031 1421 2726 
Q 1159 2422 1159 1959 
L 1159 0 
L 547 0 
L 547 5116 
L 1159 5116 
L 1159 2888 
L 1172 2888 
Q 1569 3538 2300 3538 
Q 3466 3538 3466 2128 
L 3466 0 
z
" transform="scale(0.015625)"/>
      <path id="MicrosoftYaHei-20" transform="scale(0.015625)"/>
      <path id="MicrosoftYaHei-76" d="M 3331 3456 
L 1963 0 
L 1344 0 
L 44 3456 
L 713 3456 
L 1556 988 
Q 1659 691 1678 491 
L 1694 491 
Q 1725 753 1803 975 
L 2688 3456 
L 3331 3456 
z
" transform="scale(0.015625)"/>
      <path id="MicrosoftYaHei-65" d="M 3363 1572 
L 944 1572 
Q 959 1019 1246 717 
Q 1534 416 2050 416 
Q 2631 416 3116 788 
L 3116 241 
Q 2659 -81 1906 -81 
Q 1156 -81 736 394 
Q 316 869 316 1713 
Q 316 2506 777 3022 
Q 1238 3538 1922 3538 
Q 2600 3538 2981 3102 
Q 3363 2666 3363 1881 
L 3363 1572 
z
M 2750 2063 
Q 2747 2531 2528 2787 
Q 2309 3044 1913 3044 
Q 1547 3044 1280 2772 
Q 1013 2500 944 2063 
L 2750 2063 
z
" transform="scale(0.015625)"/>
      <path id="MicrosoftYaHei-72" d="M 2400 2850 
Q 2247 2959 1978 2959 
Q 1622 2959 1390 2626 
Q 1159 2294 1159 1750 
L 1159 0 
L 547 0 
L 547 3456 
L 1159 3456 
L 1159 2753 
L 1172 2753 
Q 1434 3516 2078 3516 
Q 2288 3516 2400 3469 
L 2400 2850 
z
" transform="scale(0.015625)"/>
      <path id="MicrosoftYaHei-67" d="M 3547 291 
Q 3547 -1628 1684 -1628 
Q 1041 -1628 566 -1388 
L 566 -797 
Q 1144 -1119 1675 -1119 
Q 2934 -1119 2934 206 
L 2934 572 
L 2922 572 
Q 2528 -81 1747 -81 
Q 1097 -81 706 384 
Q 316 850 316 1619 
Q 316 2503 747 3020 
Q 1178 3538 1897 3538 
Q 2588 3538 2922 2988 
L 2934 2988 
L 2934 3456 
L 3547 3456 
L 3547 291 
z
M 2934 2056 
Q 2938 2456 2666 2743 
Q 2394 3031 1997 3031 
Q 1497 3031 1219 2664 
Q 941 2297 941 1656 
Q 941 1106 1209 765 
Q 1478 425 1922 425 
Q 2369 425 2653 750 
Q 2938 1075 2934 1575 
L 2934 2056 
z
" transform="scale(0.015625)"/>
      <path id="MicrosoftYaHei-73" d="M 353 747 
Q 816 413 1350 413 
Q 2066 413 2066 881 
Q 2066 1081 1909 1211 
Q 1753 1341 1275 1519 
Q 700 1750 528 1976 
Q 356 2203 356 2525 
Q 356 2984 745 3261 
Q 1134 3538 1703 3538 
Q 2144 3538 2522 3384 
L 2522 2794 
Q 2134 3044 1644 3044 
Q 1350 3044 1165 2916 
Q 981 2788 981 2578 
Q 981 2372 1114 2256 
Q 1247 2141 1703 1959 
Q 2281 1744 2484 1512 
Q 2688 1281 2688 941 
Q 2688 466 2298 192 
Q 1909 -81 1291 -81 
Q 753 -81 353 122 
L 353 747 
z
" transform="scale(0.015625)"/>
      <path id="MicrosoftYaHei-75" d="M 3400 0 
L 2784 0 
L 2784 544 
L 2772 544 
Q 2425 -81 1706 -81 
Q 478 -81 478 1388 
L 478 3456 
L 1084 3456 
L 1084 1478 
Q 1084 425 1891 425 
Q 2291 425 2537 720 
Q 2784 1016 2784 1466 
L 2784 3456 
L 3400 3456 
L 3400 0 
z
" transform="scale(0.015625)"/>
      <path id="MicrosoftYaHei-6c" d="M 544 0 
L 544 5116 
L 1156 5116 
L 1156 0 
L 544 0 
z
" transform="scale(0.015625)"/>
      <path id="MicrosoftYaHei-74" d="M 2206 34 
Q 2006 -75 1666 -75 
Q 738 -75 738 953 
L 738 2950 
L 144 2950 
L 144 3456 
L 738 3456 
L 738 4288 
L 1347 4481 
L 1347 3456 
L 2206 3456 
L 2206 2950 
L 1347 2950 
L 1347 1063 
Q 1347 722 1462 575 
Q 1578 428 1847 428 
Q 2053 428 2206 544 
L 2206 34 
z
" transform="scale(0.015625)"/>
      <path id="MicrosoftYaHei-6e" d="M 3469 0 
L 2859 0 
L 2859 1966 
Q 2859 3031 2081 3031 
Q 1678 3031 1418 2731 
Q 1159 2431 1159 1972 
L 1159 0 
L 547 0 
L 547 3456 
L 1159 3456 
L 1159 2884 
L 1172 2884 
Q 1563 3538 2306 3538 
Q 2875 3538 3172 3173 
Q 3469 2809 3469 2113 
L 3469 0 
z
" transform="scale(0.015625)"/>
      <path id="MicrosoftYaHei-3a" d="M 372 3134 
Q 372 3303 490 3415 
Q 609 3528 775 3528 
Q 944 3528 1062 3414 
Q 1181 3300 1181 3134 
Q 1181 2969 1065 2853 
Q 950 2738 772 2738 
Q 603 2738 487 2853 
Q 372 2969 372 3134 
z
M 372 322 
Q 372 491 487 606 
Q 603 722 775 722 
Q 950 722 1065 605 
Q 1181 488 1181 322 
Q 1181 159 1065 42 
Q 950 -75 772 -75 
Q 600 -75 486 42 
Q 372 159 372 322 
z
" transform="scale(0.015625)"/>
      <path id="MicrosoftYaHei-66" d="M 2319 4594 
Q 2147 4684 1947 4684 
Q 1372 4684 1372 3972 
L 1372 3456 
L 2181 3456 
L 2181 2950 
L 1372 2950 
L 1372 0 
L 766 0 
L 766 2950 
L 175 2950 
L 175 3456 
L 766 3456 
L 766 4000 
Q 766 4556 1086 4873 
Q 1406 5191 1900 5191 
Q 2163 5191 2319 5131 
L 2319 4594 
z
" transform="scale(0.015625)"/>
      <path id="MicrosoftYaHei-6f" d="M 316 1691 
Q 316 2547 794 3042 
Q 1272 3538 2091 3538 
Q 2869 3538 3311 3061 
Q 3753 2584 3753 1744 
Q 3753 925 3281 422 
Q 2809 -81 2016 -81 
Q 1241 -81 778 406 
Q 316 894 316 1691 
z
M 941 1709 
Q 941 1113 1242 769 
Q 1544 425 2053 425 
Q 2578 425 2853 761 
Q 3128 1097 3128 1725 
Q 3128 2356 2853 2693 
Q 2578 3031 2053 3031 
Q 1538 3031 1239 2678 
Q 941 2325 941 1709 
z
" transform="scale(0.015625)"/>
      <path id="MicrosoftYaHei-70" d="M 1159 488 
L 1159 -1591 
L 547 -1591 
L 547 3456 
L 1159 3456 
L 1159 2859 
L 1172 2859 
Q 1578 3538 2359 3538 
Q 3022 3538 3398 3073 
Q 3775 2609 3775 1828 
Q 3775 966 3348 442 
Q 2922 -81 2200 -81 
Q 1534 -81 1172 488 
L 1159 488 
z
M 1156 1425 
Q 1156 1003 1428 714 
Q 1700 425 2109 425 
Q 2597 425 2872 800 
Q 3147 1175 3147 1838 
Q 3147 2397 2890 2714 
Q 2634 3031 2191 3031 
Q 1738 3031 1447 2709 
Q 1156 2388 1156 1884 
L 1156 1425 
z
" transform="scale(0.015625)"/>
      <path id="MicrosoftYaHei-6b" d="M 3484 0 
L 2650 0 
L 1172 1666 
L 1159 1666 
L 1159 0 
L 547 0 
L 547 5116 
L 1159 5116 
L 1159 1872 
L 1172 1872 
L 2575 3456 
L 3363 3456 
L 1800 1794 
L 3484 0 
z
" transform="scale(0.015625)"/>
      <path id="MicrosoftYaHei-6d" d="M 5522 0 
L 4909 0 
L 4909 1984 
Q 4909 2547 4734 2789 
Q 4559 3031 4159 3031 
Q 3822 3031 3581 2715 
Q 3341 2400 3341 1969 
L 3341 0 
L 2728 0 
L 2728 2047 
Q 2728 3031 1969 3031 
Q 1619 3031 1389 2731 
Q 1159 2431 1159 1966 
L 1159 0 
L 547 0 
L 547 3456 
L 1159 3456 
L 1159 2909 
L 1172 2909 
Q 1541 3538 2250 3538 
Q 2597 3538 2862 3347 
Q 3128 3156 3231 2831 
Q 3616 3538 4381 3538 
Q 5522 3538 5522 2131 
L 5522 0 
z
" transform="scale(0.015625)"/>
     </defs>
     <use xlink:href="#MicrosoftYaHei-45"/>
     <use xlink:href="#MicrosoftYaHei-61" x="54.980469"/>
     <use xlink:href="#MicrosoftYaHei-63" x="110.253906"/>
     <use xlink:href="#MicrosoftYaHei-68" x="160.400391"/>
     <use xlink:href="#MicrosoftYaHei-20" x="221.972656"/>
     <use xlink:href="#MicrosoftYaHei-69" x="251.5625"/>
     <use xlink:href="#MicrosoftYaHei-64" x="278.173828"/>
     <use xlink:href="#MicrosoftYaHei-20" x="342.138672"/>
     <use xlink:href="#MicrosoftYaHei-61" x="371.728516"/>
     <use xlink:href="#MicrosoftYaHei-76" x="427.001953"/>
     <use xlink:href="#MicrosoftYaHei-65" x="478.867188"/>
     <use xlink:href="#MicrosoftYaHei-72" x="535.605469"/>
     <use xlink:href="#MicrosoftYaHei-61" x="573.789062"/>
     <use xlink:href="#MicrosoftYaHei-67" x="629.0625"/>
     <use xlink:href="#MicrosoftYaHei-65" x="693.027344"/>
     <use xlink:href="#MicrosoftYaHei-20" x="749.765625"/>
     <use xlink:href="#MicrosoftYaHei-73" x="779.355469"/>
     <use xlink:href="#MicrosoftYaHei-75" x="825.644531"/>
     <use xlink:href="#MicrosoftYaHei-72" x="887.265625"/>
     <use xlink:href="#MicrosoftYaHei-76" x="929.824219"/>
     <use xlink:href="#MicrosoftYaHei-69" x="982.314453"/>
     <use xlink:href="#MicrosoftYaHei-76" x="1008.925781"/>
     <use xlink:href="#MicrosoftYaHei-61" x="1059.416016"/>
     <use xlink:href="#MicrosoftYaHei-6c" x="1114.689453"/>
     <use xlink:href="#MicrosoftYaHei-20" x="1141.300781"/>
     <use xlink:href="#MicrosoftYaHei-74" x="1170.890625"/>
     <use xlink:href="#MicrosoftYaHei-75" x="1208.146484"/>
     <use xlink:href="#MicrosoftYaHei-72" x="1269.767578"/>
     <use xlink:href="#MicrosoftYaHei-6e" x="1307.701172"/>
     <use xlink:href="#MicrosoftYaHei-73" x="1369.322266"/>
     <use xlink:href="#MicrosoftYaHei-3a" x="1415.611328"/>
     <use xlink:href="#MicrosoftYaHei-20" x="1439.683594"/>
     <use xlink:href="#MicrosoftYaHei-32" x="1469.273438"/>
     <use xlink:href="#MicrosoftYaHei-30" x="1527.916016"/>
     <use xlink:href="#MicrosoftYaHei-30" x="1586.558594"/>
     <use xlink:href="#MicrosoftYaHei-30" x="1645.201172"/>
     <use xlink:href="#MicrosoftYaHei-20" x="1703.84375"/>
     <use xlink:href="#MicrosoftYaHei-74" x="1733.433594"/>
     <use xlink:href="#MicrosoftYaHei-75" x="1770.689453"/>
     <use xlink:href="#MicrosoftYaHei-72" x="1832.310547"/>
     <use xlink:href="#MicrosoftYaHei-6e" x="1870.244141"/>
     <use xlink:href="#MicrosoftYaHei-73" x="1931.865234"/>
     <use xlink:href="#MicrosoftYaHei-20" x="1978.154297"/>
     <use xlink:href="#MicrosoftYaHei-66" x="2007.744141"/>
     <use xlink:href="#MicrosoftYaHei-6f" x="2042.412109"/>
     <use xlink:href="#MicrosoftYaHei-72" x="2105.986328"/>
     <use xlink:href="#MicrosoftYaHei-20" x="2144.169922"/>
     <use xlink:href="#MicrosoftYaHei-31" x="2173.759766"/>
     <use xlink:href="#MicrosoftYaHei-30" x="2232.402344"/>
     <use xlink:href="#MicrosoftYaHei-30" x="2291.044922"/>
     <use xlink:href="#MicrosoftYaHei-20" x="2349.6875"/>
     <use xlink:href="#MicrosoftYaHei-70" x="2379.277344"/>
     <use xlink:href="#MicrosoftYaHei-65" x="2443.144531"/>
     <use xlink:href="#MicrosoftYaHei-6f" x="2499.882812"/>
     <use xlink:href="#MicrosoftYaHei-70" x="2563.457031"/>
     <use xlink:href="#MicrosoftYaHei-6c" x="2627.324219"/>
     <use xlink:href="#MicrosoftYaHei-65" x="2653.935547"/>
     <use xlink:href="#MicrosoftYaHei-20" x="2710.673828"/>
     <use xlink:href="#MicrosoftYaHei-6b" x="2740.263672"/>
     <use xlink:href="#MicrosoftYaHei-69" x="2794.707031"/>
     <use xlink:href="#MicrosoftYaHei-6c" x="2821.318359"/>
     <use xlink:href="#MicrosoftYaHei-6c" x="2847.929688"/>
     <use xlink:href="#MicrosoftYaHei-20" x="2874.541016"/>
     <use xlink:href="#MicrosoftYaHei-73" x="2904.130859"/>
     <use xlink:href="#MicrosoftYaHei-69" x="2950.419922"/>
     <use xlink:href="#MicrosoftYaHei-6d" x="2977.03125"/>
     <use xlink:href="#MicrosoftYaHei-75" x="3070.732422"/>
     <use xlink:href="#MicrosoftYaHei-6c" x="3132.353516"/>
     <use xlink:href="#MicrosoftYaHei-61" x="3158.964844"/>
     <use xlink:href="#MicrosoftYaHei-74" x="3214.238281"/>
     <use xlink:href="#MicrosoftYaHei-69" x="3251.494141"/>
     <use xlink:href="#MicrosoftYaHei-6f" x="3278.105469"/>
     <use xlink:href="#MicrosoftYaHei-6e" x="3341.679688"/>
    </g>
   </g>
   <g id="legend_1">
    <g id="patch_7">
     <path d="M 710.446875 75.3775 
L 835.4 75.3775 
Q 837.4 75.3775 837.4 73.3775 
L 837.4 58.84 
Q 837.4 56.84 835.4 56.84 
L 710.446875 56.84 
Q 708.446875 56.84 708.446875 58.84 
L 708.446875 73.3775 
Q 708.446875 75.3775 710.446875 75.3775 
z
" style="fill: #ffffff; opacity: 0.8; stroke: #cccccc; stroke-linejoin: miter"/>
    </g>
    <g id="line2d_2">
     <path d="M 712.446875 65.33375 
L 722.446875 65.33375 
L 732.446875 65.33375 
" style="fill: none; stroke: #1f77b4; stroke-width: 1.5; stroke-linecap: round"/>
    </g>
    <g id="text_14">
     <!-- average_alive_turns -->
     <g style="fill: #262626" transform="translate(740.446875 68.83375)scale(0.1 -0.1)">
      <defs>
       <path id="MicrosoftYaHei-5f" d="M 2869 -1003 
L 0 -1003 
L 0 -600 
L 2869 -600 
L 2869 -1003 
z
" transform="scale(0.015625)"/>
      </defs>
      <use xlink:href="#MicrosoftYaHei-61"/>
      <use xlink:href="#MicrosoftYaHei-76" x="55.273438"/>
      <use xlink:href="#MicrosoftYaHei-65" x="107.138672"/>
      <use xlink:href="#MicrosoftYaHei-72" x="163.876953"/>
      <use xlink:href="#MicrosoftYaHei-61" x="202.060547"/>
      <use xlink:href="#MicrosoftYaHei-67" x="257.333984"/>
      <use xlink:href="#MicrosoftYaHei-65" x="321.298828"/>
      <use xlink:href="#MicrosoftYaHei-5f" x="378.037109"/>
      <use xlink:href="#MicrosoftYaHei-61" x="422.861328"/>
      <use xlink:href="#MicrosoftYaHei-6c" x="478.134766"/>
      <use xlink:href="#MicrosoftYaHei-69" x="504.746094"/>
      <use xlink:href="#MicrosoftYaHei-76" x="531.357422"/>
      <use xlink:href="#MicrosoftYaHei-65" x="583.222656"/>
      <use xlink:href="#MicrosoftYaHei-5f" x="639.960938"/>
      <use xlink:href="#MicrosoftYaHei-74" x="684.785156"/>
      <use xlink:href="#MicrosoftYaHei-75" x="722.041016"/>
      <use xlink:href="#MicrosoftYaHei-72" x="783.662109"/>
      <use xlink:href="#MicrosoftYaHei-6e" x="821.595703"/>
      <use xlink:href="#MicrosoftYaHei-73" x="883.216797"/>
     </g>
    </g>
   </g>
  </g>
 </g>
 <defs>
  <clipPath id="p78f70a343f">
   <rect x="117" y="51.84" width="725.4" height="332.64"/>
  </clipPath>
 </defs>
</svg>
