<?xml version="1.0" encoding="utf-8" standalone="no"?>
<!DOCTYPE svg PUBLIC "-//W3C//DTD SVG 1.1//EN"
  "http://www.w3.org/Graphics/SVG/1.1/DTD/svg11.dtd">
<svg xmlns:xlink="http://www.w3.org/1999/xlink" width="936pt" height="432pt" viewBox="0 0 936 432" xmlns="http://www.w3.org/2000/svg" version="1.1">
 <metadata>
  <rdf:RDF xmlns:dc="http://purl.org/dc/elements/1.1/" xmlns:cc="http://creativecommons.org/ns#" xmlns:rdf="http://www.w3.org/1999/02/22-rdf-syntax-ns#">
   <cc:Work>
    <dc:type rdf:resource="http://purl.org/dc/dcmitype/StillImage"/>
    <dc:date>2024-08-18T23:43:30.297059</dc:date>
    <dc:format>image/svg+xml</dc:format>
    <dc:creator>
     <cc:Agent>
      <dc:title>Matplotlib v3.5.1, https://matplotlib.org/</dc:title>
     </cc:Agent>
    </dc:creator>
   </cc:Work>
  </rdf:RDF>
 </metadata>
 <defs>
  <style type="text/css">*{stroke-linejoin: round; stroke-linecap: butt}</style>
 </defs>
 <g id="figure_1">
  <g id="patch_1">
   <path d="M 0 432 
L 936 432 
L 936 0 
L 0 0 
z
" style="fill: #ffffff"/>
  </g>
  <g id="axes_1">
   <g id="patch_2">
    <path d="M 117 384.48 
L 842.4 384.48 
L 842.4 51.84 
L 117 51.84 
z
" style="fill: #ffffff"/>
   </g>
   <g id="matplotlib.axis_1">
    <g id="xtick_1">
     <g id="text_1">
      <!-- 0 -->
      <g style="fill: #262626" transform="translate(145.93977 399.47375)scale(0.1 -0.1)">
       <defs>
        <path id="MicrosoftYaHei-30" d="M 284 2325 
Q 284 3606 709 4264 
Q 1134 4922 1941 4922 
Q 3478 4922 3478 2441 
Q 3478 1216 3045 567 
Q 2613 -81 1831 -81 
Q 1094 -81 689 534 
Q 284 1150 284 2325 
z
M 909 2353 
Q 909 425 1888 425 
Q 2850 425 2850 2384 
Q 2850 4413 1906 4413 
Q 909 4413 909 2353 
z
" transform="scale(0.015625)"/>
       </defs>
       <use xlink:href="#MicrosoftYaHei-30"/>
      </g>
     </g>
    </g>
    <g id="xtick_2">
     <g id="text_2">
      <!-- 100 -->
      <g style="fill: #262626" transform="translate(250.168286 399.47375)scale(0.1 -0.1)">
       <defs>
        <path id="MicrosoftYaHei-31" d="M 3366 0 
L 591 0 
L 591 528 
L 1675 528 
L 1675 4203 
L 563 3881 
L 563 4444 
L 2284 4944 
L 2284 528 
L 3366 528 
L 3366 0 
z
" transform="scale(0.015625)"/>
       </defs>
       <use xlink:href="#MicrosoftYaHei-31"/>
       <use xlink:href="#MicrosoftYaHei-30" x="58.642578"/>
       <use xlink:href="#MicrosoftYaHei-30" x="117.285156"/>
      </g>
     </g>
    </g>
    <g id="xtick_3">
     <g id="text_3">
      <!-- 200 -->
      <g style="fill: #262626" transform="translate(360.260865 399.47375)scale(0.1 -0.1)">
       <defs>
        <path id="MicrosoftYaHei-32" d="M 3275 0 
L 331 0 
L 331 531 
L 1738 1934 
Q 2319 2516 2516 2855 
Q 2713 3194 2713 3556 
Q 2713 3969 2481 4189 
Q 2250 4409 1813 4409 
Q 1166 4409 578 3859 
L 578 4481 
Q 1150 4922 1909 4922 
Q 2563 4922 2941 4569 
Q 3319 4216 3319 3619 
Q 3319 3169 3076 2736 
Q 2834 2303 2159 1634 
L 1056 556 
L 1056 544 
L 3275 544 
L 3275 0 
z
" transform="scale(0.015625)"/>
       </defs>
       <use xlink:href="#MicrosoftYaHei-32"/>
       <use xlink:href="#MicrosoftYaHei-30" x="58.642578"/>
       <use xlink:href="#MicrosoftYaHei-30" x="117.285156"/>
      </g>
     </g>
    </g>
    <g id="xtick_4">
     <g id="text_4">
      <!-- 300 -->
      <g style="fill: #262626" transform="translate(470.353443 399.47375)scale(0.1 -0.1)">
       <defs>
        <path id="MicrosoftYaHei-33" d="M 447 809 
Q 944 425 1569 425 
Q 2069 425 2361 670 
Q 2653 916 2653 1328 
Q 2653 2247 1338 2247 
L 934 2247 
L 934 2753 
L 1319 2753 
Q 2484 2753 2484 3616 
Q 2484 4413 1594 4413 
Q 1084 4413 634 4069 
L 634 4647 
Q 1109 4922 1744 4922 
Q 2363 4922 2738 4598 
Q 3113 4275 3113 3759 
Q 3113 2809 2144 2538 
L 2144 2525 
Q 2669 2469 2973 2155 
Q 3278 1841 3278 1372 
Q 3278 719 2808 319 
Q 2338 -81 1556 -81 
Q 869 -81 447 175 
L 447 809 
z
" transform="scale(0.015625)"/>
       </defs>
       <use xlink:href="#MicrosoftYaHei-33"/>
       <use xlink:href="#MicrosoftYaHei-30" x="58.642578"/>
       <use xlink:href="#MicrosoftYaHei-30" x="117.285156"/>
      </g>
     </g>
    </g>
    <g id="xtick_5">
     <g id="text_5">
      <!-- 400 -->
      <g style="fill: #262626" transform="translate(580.446022 399.47375)scale(0.1 -0.1)">
       <defs>
        <path id="MicrosoftYaHei-34" d="M 3525 1256 
L 2906 1256 
L 2906 0 
L 2313 0 
L 2313 1256 
L 56 1256 
L 56 1653 
L 2197 4841 
L 2906 4841 
L 2906 1741 
L 3525 1741 
L 3525 1256 
z
M 2313 1741 
L 2313 3769 
Q 2313 3984 2325 4266 
L 2313 4266 
Q 2269 4147 2128 3894 
L 688 1741 
L 2313 1741 
z
" transform="scale(0.015625)"/>
       </defs>
       <use xlink:href="#MicrosoftYaHei-34"/>
       <use xlink:href="#MicrosoftYaHei-30" x="58.642578"/>
       <use xlink:href="#MicrosoftYaHei-30" x="117.285156"/>
      </g>
     </g>
    </g>
    <g id="xtick_6">
     <g id="text_6">
      <!-- 500 -->
      <g style="fill: #262626" transform="translate(690.5386 399.47375)scale(0.1 -0.1)">
       <defs>
        <path id="MicrosoftYaHei-35" d="M 553 744 
Q 1041 425 1569 425 
Q 2069 425 2375 704 
Q 2681 984 2681 1447 
Q 2681 1913 2370 2169 
Q 2059 2425 1469 2425 
Q 1184 2425 703 2381 
L 703 4841 
L 3084 4841 
L 3084 4300 
L 1272 4300 
L 1272 2931 
Q 1544 2947 1681 2947 
Q 2447 2947 2875 2559 
Q 3303 2172 3303 1491 
Q 3303 788 2843 353 
Q 2384 -81 1575 -81 
Q 897 -81 553 119 
L 553 744 
z
" transform="scale(0.015625)"/>
       </defs>
       <use xlink:href="#MicrosoftYaHei-35"/>
       <use xlink:href="#MicrosoftYaHei-30" x="58.642578"/>
       <use xlink:href="#MicrosoftYaHei-30" x="117.285156"/>
      </g>
     </g>
    </g>
    <g id="xtick_7">
     <g id="text_7">
      <!-- 600 -->
      <g style="fill: #262626" transform="translate(800.631179 399.47375)scale(0.1 -0.1)">
       <defs>
        <path id="MicrosoftYaHei-36" d="M 3181 4219 
Q 2803 4413 2391 4413 
Q 1763 4413 1381 3866 
Q 1000 3319 994 2372 
L 1009 2372 
Q 1353 3038 2106 3038 
Q 2734 3038 3109 2628 
Q 3484 2219 3484 1541 
Q 3484 831 3051 375 
Q 2619 -81 1947 -81 
Q 1209 -81 789 495 
Q 369 1072 369 2131 
Q 369 3413 920 4167 
Q 1472 4922 2372 4922 
Q 2888 4922 3181 4781 
L 3181 4219 
z
M 1031 1584 
Q 1031 1106 1286 765 
Q 1541 425 1963 425 
Q 2363 425 2613 719 
Q 2863 1013 2863 1475 
Q 2863 1975 2627 2253 
Q 2391 2531 1956 2531 
Q 1544 2531 1287 2250 
Q 1031 1969 1031 1584 
z
" transform="scale(0.015625)"/>
       </defs>
       <use xlink:href="#MicrosoftYaHei-36"/>
       <use xlink:href="#MicrosoftYaHei-30" x="58.642578"/>
       <use xlink:href="#MicrosoftYaHei-30" x="117.285156"/>
      </g>
     </g>
    </g>
    <g id="text_8">
     <!-- id -->
     <g style="fill: #262626" transform="translate(475.171094 413.953438)scale(0.1 -0.1)">
      <defs>
       <path id="MicrosoftYaHei-69" d="M 472 4675 
Q 472 4838 583 4948 
Q 694 5059 856 5059 
Q 1022 5059 1136 4950 
Q 1250 4841 1250 4675 
Q 1250 4513 1136 4405 
Q 1022 4297 856 4297 
Q 691 4297 581 4405 
Q 472 4513 472 4675 
z
M 544 0 
L 544 3456 
L 1156 3456 
L 1156 0 
L 544 0 
z
" transform="scale(0.015625)"/>
       <path id="MicrosoftYaHei-64" d="M 3547 0 
L 2934 0 
L 2934 575 
L 2922 575 
Q 2544 -81 1747 -81 
Q 1091 -81 703 386 
Q 316 853 316 1647 
Q 316 2503 753 3020 
Q 1191 3538 1897 3538 
Q 2603 3538 2922 2988 
L 2934 2988 
L 2934 5116 
L 3547 5116 
L 3547 0 
z
M 2938 2056 
Q 2938 2472 2664 2751 
Q 2391 3031 1991 3031 
Q 1503 3031 1222 2667 
Q 941 2303 941 1675 
Q 941 1097 1211 761 
Q 1481 425 1931 425 
Q 2375 425 2656 754 
Q 2938 1084 2938 1575 
L 2938 2056 
z
" transform="scale(0.015625)"/>
      </defs>
      <use xlink:href="#MicrosoftYaHei-69"/>
      <use xlink:href="#MicrosoftYaHei-64" x="26.611328"/>
     </g>
    </g>
   </g>
   <g id="matplotlib.axis_2">
    <g id="ytick_1">
     <g id="text_9">
      <!-- 200 -->
      <g style="fill: #262626" transform="translate(92.407813 373.744657)scale(0.1 -0.1)">
       <use xlink:href="#MicrosoftYaHei-32"/>
       <use xlink:href="#MicrosoftYaHei-30" x="58.642578"/>
       <use xlink:href="#MicrosoftYaHei-30" x="117.285156"/>
      </g>
     </g>
    </g>
    <g id="ytick_2">
     <g id="text_10">
      <!-- 220 -->
      <g style="fill: #262626" transform="translate(92.407813 328.594628)scale(0.1 -0.1)">
       <use xlink:href="#MicrosoftYaHei-32"/>
       <use xlink:href="#MicrosoftYaHei-32" x="58.642578"/>
       <use xlink:href="#MicrosoftYaHei-30" x="117.285156"/>
      </g>
     </g>
    </g>
    <g id="ytick_3">
     <g id="text_11">
      <!-- 240 -->
      <g style="fill: #262626" transform="translate(92.407813 283.444598)scale(0.1 -0.1)">
       <use xlink:href="#MicrosoftYaHei-32"/>
       <use xlink:href="#MicrosoftYaHei-34" x="58.642578"/>
       <use xlink:href="#MicrosoftYaHei-30" x="117.285156"/>
      </g>
     </g>
    </g>
    <g id="ytick_4">
     <g id="text_12">
      <!-- 260 -->
      <g style="fill: #262626" transform="translate(92.407813 238.294568)scale(0.1 -0.1)">
       <use xlink:href="#MicrosoftYaHei-32"/>
       <use xlink:href="#MicrosoftYaHei-36" x="58.642578"/>
       <use xlink:href="#MicrosoftYaHei-30" x="117.285156"/>
      </g>
     </g>
    </g>
    <g id="ytick_5">
     <g id="text_13">
      <!-- 280 -->
      <g style="fill: #262626" transform="translate(92.407813 193.144538)scale(0.1 -0.1)">
       <defs>
        <path id="MicrosoftYaHei-38" d="M 1369 2547 
Q 503 2950 503 3716 
Q 503 4250 909 4586 
Q 1316 4922 1947 4922 
Q 2525 4922 2900 4606 
Q 3275 4291 3275 3791 
Q 3275 2984 2372 2550 
L 2372 2538 
Q 3431 2156 3431 1238 
Q 3431 634 2995 276 
Q 2559 -81 1778 -81 
Q 1138 -81 734 272 
Q 331 625 331 1188 
Q 331 2113 1369 2534 
L 1369 2547 
z
M 2656 3719 
Q 2656 4044 2453 4231 
Q 2250 4419 1903 4419 
Q 1578 4419 1350 4223 
Q 1122 4028 1122 3725 
Q 1122 3119 1881 2803 
Q 2656 3125 2656 3719 
z
M 1844 2256 
Q 947 1894 947 1219 
Q 947 869 1209 644 
Q 1472 419 1894 419 
Q 2303 419 2559 642 
Q 2816 866 2816 1200 
Q 2816 1903 1844 2256 
z
" transform="scale(0.015625)"/>
       </defs>
       <use xlink:href="#MicrosoftYaHei-32"/>
       <use xlink:href="#MicrosoftYaHei-38" x="58.642578"/>
       <use xlink:href="#MicrosoftYaHei-30" x="117.285156"/>
      </g>
     </g>
    </g>
    <g id="ytick_6">
     <g id="text_14">
      <!-- 300 -->
      <g style="fill: #262626" transform="translate(92.407813 147.994508)scale(0.1 -0.1)">
       <use xlink:href="#MicrosoftYaHei-33"/>
       <use xlink:href="#MicrosoftYaHei-30" x="58.642578"/>
       <use xlink:href="#MicrosoftYaHei-30" x="117.285156"/>
      </g>
     </g>
    </g>
    <g id="ytick_7">
     <g id="text_15">
      <!-- 320 -->
      <g style="fill: #262626" transform="translate(92.407813 102.844479)scale(0.1 -0.1)">
       <use xlink:href="#MicrosoftYaHei-33"/>
       <use xlink:href="#MicrosoftYaHei-32" x="58.642578"/>
       <use xlink:href="#MicrosoftYaHei-30" x="117.285156"/>
      </g>
     </g>
    </g>
    <g id="ytick_8">
     <g id="text_16">
      <!-- 340 -->
      <g style="fill: #262626" transform="translate(92.407813 57.694449)scale(0.1 -0.1)">
       <use xlink:href="#MicrosoftYaHei-33"/>
       <use xlink:href="#MicrosoftYaHei-34" x="58.642578"/>
       <use xlink:href="#MicrosoftYaHei-30" x="117.285156"/>
      </g>
     </g>
    </g>
   </g>
   <g id="line2d_1">
    <path d="M 149.972727 369.36 
L 151.073653 66.96 
L 152.174579 248.037276 
L 153.275505 90.725237 
L 154.37643 210.274717 
L 155.477356 104.329077 
L 156.578282 191.580719 
L 157.679208 111.243623 
L 158.780134 181.104569 
L 159.881059 115.696827 
L 160.981985 174.070985 
L 162.082911 119.581366 
L 163.183837 169.075382 
L 164.284762 122.958656 
L 165.385688 164.729534 
L 166.486614 123.75464 
L 167.58754 164.599716 
L 168.688466 125.929822 
L 169.789391 158.622157 
L 170.890317 129.049779 
L 171.991243 158.183682 
L 173.092169 128.792898 
L 174.193095 157.376671 
L 175.29402 131.420223 
L 176.394946 155.911462 
L 177.495872 131.170453 
L 178.596798 154.500716 
L 179.697723 130.468325 
L 180.798649 154.458297 
L 181.899575 132.690474 
L 183.000501 154.14245 
L 184.101427 134.374153 
L 185.202352 152.979848 
L 186.303278 134.947524 
L 187.404204 153.954366 
L 188.50513 134.322659 
L 189.606056 151.890491 
L 190.706981 134.708455 
L 191.807907 151.804762 
L 192.908833 132.173315 
L 194.009759 152.115507 
L 195.110684 135.522679 
L 196.21161 149.380273 
L 197.312536 135.002201 
L 198.413462 149.303225 
L 199.514388 134.042323 
L 200.615313 150.259254 
L 201.716239 135.401214 
L 202.817165 149.56286 
L 203.918091 136.312116 
L 205.019017 147.296701 
L 206.119942 135.197498 
L 207.220868 148.367727 
L 208.321794 137.194732 
L 209.42272 148.569221 
L 210.523645 136.160175 
L 211.624571 148.361903 
L 212.725497 137.951322 
L 213.826423 148.405157 
L 214.927349 137.351177 
L 216.028274 148.527412 
L 217.1292 137.283282 
L 218.230126 147.671649 
L 219.331052 137.89134 
L 220.431978 146.842469 
L 221.532903 136.612725 
L 222.633829 147.154648 
L 223.734755 137.004921 
L 224.835681 150.405427 
L 225.936606 136.309723 
L 227.037532 147.298044 
L 228.138458 138.625502 
L 229.239384 146.800852 
L 230.34031 137.808479 
L 231.441235 147.954785 
L 232.542161 137.512938 
L 233.643087 147.007831 
L 234.744013 137.9158 
L 235.844939 146.396669 
L 236.945864 139.187552 
L 238.04679 146.484204 
L 239.147716 138.570193 
L 240.248642 146.588748 
L 241.349567 138.699345 
L 242.450493 146.750374 
L 243.551419 139.509133 
L 244.652345 146.585769 
L 245.753271 137.503885 
L 246.854196 143.948533 
L 247.955122 139.722671 
L 249.056048 145.92212 
L 250.156974 138.188247 
L 251.2579 146.363461 
L 252.358825 137.777799 
L 253.459751 145.988761 
L 254.560677 139.887299 
L 255.661603 146.337545 
L 256.762528 139.906713 
L 257.863454 143.513365 
L 258.96438 137.71512 
L 260.065306 146.458558 
L 261.166232 138.650335 
L 262.267157 147.258978 
L 263.368083 140.841409 
L 264.469009 144.978777 
L 265.569935 139.228379 
L 266.670861 144.401579 
L 267.771786 139.19612 
L 268.872712 146.718352 
L 269.973638 139.125178 
L 271.074564 145.178273 
L 272.175489 139.911894 
L 273.276415 145.144264 
L 274.377341 139.450743 
L 275.478267 144.183471 
L 276.579193 138.470581 
L 277.680118 143.689846 
L 278.781044 139.08759 
L 279.88197 145.464727 
L 280.982896 140.619768 
L 282.083822 145.387746 
L 283.184747 139.38277 
L 284.285673 143.515138 
L 285.386599 139.316614 
L 286.487525 143.918406 
L 287.58845 140.112891 
L 288.689376 146.654498 
L 289.790302 138.874787 
L 290.891228 145.268821 
L 291.992154 140.057345 
L 293.093079 144.280532 
L 294.194005 139.699373 
L 295.294931 145.475755 
L 296.395857 137.745122 
L 297.496783 144.158322 
L 298.597708 139.24162 
L 299.698634 144.371047 
L 300.79956 138.51993 
L 301.900486 144.50249 
L 303.001411 139.195984 
L 304.102337 143.49508 
L 305.203263 140.827763 
L 306.304189 144.205436 
L 307.405115 139.603068 
L 308.50604 144.109075 
L 309.606966 140.023539 
L 310.707892 142.652309 
L 311.808818 140.845834 
L 312.909744 144.725283 
L 314.010669 139.377431 
L 315.111595 145.531798 
L 316.212521 140.348879 
L 317.313447 144.365629 
L 318.414372 140.839953 
L 319.515298 144.483561 
L 320.616224 141.067329 
L 321.71715 144.623221 
L 322.818076 138.419562 
L 323.919001 145.41794 
L 325.019927 140.741075 
L 326.120853 143.282999 
L 327.221779 139.393414 
L 328.322705 145.446882 
L 329.42363 138.430725 
L 330.524556 144.758615 
L 331.625482 139.123383 
L 332.726408 144.868973 
L 333.827333 140.443276 
L 334.928259 144.133117 
L 336.029185 140.792568 
L 337.130111 142.670798 
L 338.231037 141.29467 
L 339.331962 144.76094 
L 340.432888 140.338607 
L 341.533814 143.580978 
L 342.63474 140.250711 
L 343.735666 144.655142 
L 344.836591 140.852798 
L 345.937517 143.855975 
L 347.038443 139.180362 
L 348.139369 143.367373 
L 349.240294 139.947631 
L 350.34122 143.817022 
L 351.442146 141.078639 
L 352.543072 144.639938 
L 353.643998 139.801683 
L 354.744923 144.071916 
L 355.845849 139.690614 
L 356.946775 143.637505 
L 358.047701 139.061956 
L 359.148626 143.273122 
L 360.249552 141.008961 
L 361.350478 144.026699 
L 362.451404 141.649053 
L 363.55233 145.618689 
L 364.653255 142.091027 
L 365.754181 144.583173 
L 366.855107 141.031773 
L 367.956033 143.617188 
L 369.056959 139.625338 
L 370.157884 143.762074 
L 371.25881 141.123642 
L 372.359736 144.960153 
L 373.460662 140.177139 
L 374.561587 142.553837 
L 375.662513 141.208648 
L 376.763439 143.481117 
L 377.864365 139.316986 
L 378.965291 142.377729 
L 380.066216 140.521803 
L 381.167142 144.97126 
L 382.268068 140.669918 
L 383.368994 144.228982 
L 384.46992 139.840941 
L 385.570845 145.001386 
L 386.671771 139.561485 
L 387.772697 145.272964 
L 388.873623 141.832125 
L 389.974548 143.721338 
L 391.075474 140.362808 
L 392.1764 145.981029 
L 393.277326 139.589399 
L 394.378252 143.085603 
L 395.479177 141.170553 
L 396.580103 143.161432 
L 397.681029 140.38457 
L 398.781955 142.762013 
L 399.882881 141.427886 
L 400.983806 143.58494 
L 402.084732 141.050476 
L 403.185658 143.675149 
L 404.286584 139.616218 
L 405.387509 143.07646 
L 406.488435 140.815843 
L 407.589361 142.862167 
L 408.690287 141.445212 
L 409.791213 144.759924 
L 410.892138 141.388786 
L 411.993064 143.69006 
L 413.09399 142.624045 
L 414.194916 143.958274 
L 415.295842 141.269883 
L 416.396767 143.719667 
L 417.497693 141.02333 
L 418.598619 144.716772 
L 419.699545 141.066279 
L 420.80047 143.728167 
L 421.901396 141.514574 
L 423.002322 143.914286 
L 424.103248 140.913762 
L 425.204174 142.846454 
L 426.305099 141.109883 
L 427.406025 142.599834 
L 428.506951 140.685867 
L 429.607877 142.747587 
L 430.708803 140.291222 
L 431.809728 144.683756 
L 432.910654 140.218373 
L 434.01158 144.680076 
L 435.112506 141.561236 
L 436.213431 143.448304 
L 437.314357 140.547889 
L 438.415283 143.202643 
L 439.516209 143.261801 
L 440.617135 142.144112 
L 441.71806 140.779305 
L 442.818986 142.451629 
L 443.919912 140.184521 
L 445.020838 145.664177 
L 446.121764 140.561547 
L 447.222689 143.211955 
L 448.323615 142.529501 
L 449.424541 142.454992 
L 450.525467 141.818275 
L 451.626392 141.979088 
L 452.727318 140.847606 
L 453.828244 145.363433 
L 454.92917 141.655058 
L 456.030096 142.632725 
L 457.131021 140.921043 
L 458.231947 143.030305 
L 459.332873 141.467843 
L 460.433799 142.53826 
L 461.534725 141.599332 
L 462.63565 142.668213 
L 463.736576 142.149507 
L 464.837502 143.832633 
L 465.938428 139.677746 
L 467.039353 144.138276 
L 468.140279 140.99054 
L 469.241205 144.686747 
L 470.342131 141.496897 
L 471.443057 145.39041 
L 472.543982 140.833531 
L 473.644908 144.474181 
L 474.745834 143.013611 
L 475.84676 143.397138 
L 476.947686 141.281013 
L 478.048611 142.450094 
L 479.149537 140.163324 
L 480.250463 142.647072 
L 481.351389 141.325056 
L 482.452314 143.471015 
L 483.55324 141.99453 
L 484.654166 142.163018 
L 485.755092 142.556456 
L 486.856018 142.234886 
L 487.956943 140.78171 
L 489.057869 143.429781 
L 490.158795 140.342061 
L 491.259721 142.841217 
L 492.360647 140.912261 
L 493.461572 143.358501 
L 494.562498 138.77198 
L 495.663424 144.243859 
L 496.76435 139.859927 
L 497.865275 144.694039 
L 498.966201 141.258279 
L 500.067127 143.394632 
L 501.168053 140.775287 
L 502.268979 143.919016 
L 503.369904 138.782681 
L 504.47083 142.561998 
L 505.571756 140.510516 
L 506.672682 142.650774 
L 507.773608 142.603649 
L 508.874533 143.999744 
L 509.975459 141.620925 
L 511.076385 144.063349 
L 512.177311 141.573122 
L 513.278236 145.621003 
L 514.379162 141.194381 
L 515.480088 142.848317 
L 516.581014 140.59068 
L 517.68194 142.720915 
L 518.782865 140.778888 
L 519.883791 144.342715 
L 520.984717 141.237172 
L 522.085643 143.944921 
L 523.186569 140.732553 
L 524.287494 143.742186 
L 525.38842 140.290805 
L 526.489346 143.667304 
L 527.590272 140.796519 
L 528.691197 142.558115 
L 529.792123 140.118772 
L 530.893049 144.460715 
L 531.993975 141.675646 
L 533.094901 143.2312 
L 534.195826 141.636637 
L 535.296752 142.965131 
L 536.397678 139.546044 
L 537.498604 143.432366 
L 538.59953 142.183686 
L 539.700455 145.172697 
L 540.801381 141.946445 
L 541.902307 144.220968 
L 543.003233 140.868635 
L 544.104158 142.517954 
L 545.205084 143.095186 
L 546.30601 143.96806 
L 547.406936 140.165728 
L 548.507862 142.752249 
L 549.608787 143.217147 
L 550.709713 142.748434 
L 551.810639 141.824732 
L 552.911565 142.890148 
L 554.012491 141.474796 
L 555.113416 144.259808 
L 556.214342 140.954589 
L 557.315268 143.602537 
L 558.416194 142.725272 
L 559.517119 143.047575 
L 560.618045 140.721242 
L 561.718971 140.778922 
L 562.819897 141.946185 
L 563.920823 143.307572 
L 565.021748 140.325333 
L 566.122674 143.188093 
L 567.2236 141.235151 
L 568.324526 142.961914 
L 569.425452 140.885995 
L 570.526377 144.091624 
L 571.627303 144.118297 
L 572.728229 142.983022 
L 573.829155 142.530912 
L 574.93008 144.259289 
L 576.031006 140.878534 
L 577.131932 144.087256 
L 578.232858 141.733653 
L 579.333784 143.871236 
L 580.434709 142.080834 
L 581.535635 144.77129 
L 582.636561 140.242754 
L 583.737487 141.239903 
L 584.838413 141.178612 
L 585.939338 143.30782 
L 587.040264 140.669354 
L 588.14119 143.17062 
L 589.242116 141.711665 
L 590.343041 143.544993 
L 591.443967 140.553713 
L 592.544893 143.167516 
L 593.645819 140.097653 
L 594.746745 143.849282 
L 595.84767 139.602504 
L 596.948596 143.346796 
L 598.049522 142.413545 
L 599.150448 143.656051 
L 600.251374 141.033353 
L 601.352299 142.335209 
L 602.453225 142.531522 
L 603.554151 142.964431 
L 604.655077 140.071748 
L 605.756002 144.615139 
L 606.856928 141.977711 
L 607.957854 144.432801 
L 609.05878 141.742581 
L 610.159706 142.636891 
L 611.260631 142.484983 
L 612.361557 144.888884 
L 613.462483 140.871908 
L 614.563409 142.659545 
L 615.664334 142.232437 
L 616.76526 143.550524 
L 617.866186 141.386167 
L 618.967112 143.39461 
L 620.068038 142.05494 
L 621.168963 142.0424 
L 622.269889 142.504364 
L 623.370815 143.91651 
L 624.471741 140.871615 
L 625.572667 143.786004 
L 626.673592 141.700332 
L 627.774518 143.44476 
L 628.875444 143.269612 
L 629.97637 142.265351 
L 631.077295 142.553092 
L 632.178221 142.043529 
L 633.279147 141.973422 
L 634.380073 142.802309 
L 635.480999 141.191209 
L 636.581924 142.898614 
L 637.68285 141.228243 
L 638.783776 143.180452 
L 639.884702 141.68681 
L 640.985628 143.13038 
L 642.086553 141.597176 
L 643.187479 142.424042 
L 644.288405 140.829083 
L 645.389331 143.495249 
L 646.490256 141.402895 
L 648.692108 143.531019 
L 649.793034 143.331704 
L 650.89396 140.691432 
L 651.994885 141.780428 
L 653.095811 140.079299 
L 654.196737 143.394429 
L 655.297663 142.562495 
L 656.398589 142.506249 
L 657.499514 142.295206 
L 658.60044 144.299619 
L 659.701366 142.407156 
L 660.802292 142.376747 
L 661.903217 142.138355 
L 663.004143 142.265622 
L 664.105069 140.85509 
L 665.205995 142.865361 
L 666.306921 142.359681 
L 667.407846 142.079321 
L 668.508772 140.425815 
L 669.609698 142.88578 
L 670.710624 141.676786 
L 671.81155 145.36595 
L 672.912475 140.394853 
L 674.013401 142.981995 
L 675.114327 142.215167 
L 676.215253 143.046017 
L 677.316178 140.69834 
L 678.417104 142.362852 
L 679.51803 142.501395 
L 680.618956 142.39527 
L 681.719882 141.573043 
L 682.820807 144.341304 
L 683.921733 142.131289 
L 685.022659 142.326981 
L 686.123585 142.821927 
L 687.224511 142.10035 
L 688.325436 141.961536 
L 689.426362 142.831555 
L 690.527288 141.275843 
L 691.628214 142.401252 
L 692.729139 142.207107 
L 693.830065 144.813901 
L 694.930991 141.427773 
L 696.031917 141.886249 
L 697.132843 141.615992 
L 698.233768 143.064473 
L 699.334694 142.981035 
L 700.43562 141.882524 
L 701.536546 142.483696 
L 702.637472 141.702285 
L 703.738397 141.818535 
L 704.839323 142.736187 
L 705.940249 143.432987 
L 707.041175 142.371984 
L 708.1421 140.732451 
L 709.243026 143.001285 
L 710.343952 141.824935 
L 711.444878 144.207784 
L 712.545804 140.904981 
L 713.646729 144.083972 
L 714.747655 143.526244 
L 716.949507 142.827706 
L 718.050433 142.681916 
L 719.151358 141.754602 
L 720.252284 142.973292 
L 721.35321 141.735064 
L 722.454136 143.225342 
L 723.555061 142.456663 
L 724.655987 142.312454 
L 725.756913 141.974043 
L 726.857839 142.704886 
L 727.958765 140.568929 
L 729.05969 142.142159 
L 730.160616 140.685879 
L 731.261542 142.932115 
L 732.362468 141.90309 
L 733.463394 144.163582 
L 734.564319 141.86382 
L 735.665245 143.330406 
L 736.766171 140.176496 
L 737.867097 143.030599 
L 738.968022 141.565909 
L 740.068948 143.29835 
L 741.169874 143.594816 
L 742.2708 142.790073 
L 743.371726 141.537183 
L 744.472651 143.335598 
L 745.573577 142.003831 
L 746.674503 142.023527 
L 748.876355 141.192688 
L 749.97728 141.014334 
L 751.078206 142.569402 
L 752.179132 141.542296 
L 753.280058 142.54615 
L 754.380983 141.963421 
L 755.481909 143.640677 
L 756.582835 142.133332 
L 757.683761 142.503608 
L 758.784687 141.534902 
L 759.885612 144.203326 
L 760.986538 142.10631 
L 762.087464 142.30944 
L 763.18839 143.081855 
L 764.289316 144.005038 
L 765.390241 142.627533 
L 766.491167 142.839501 
L 767.592093 141.537431 
L 768.693019 144.005422 
L 769.793944 141.589399 
L 770.89487 143.100401 
L 771.995796 143.04762 
L 773.096722 143.39163 
L 774.197648 141.048456 
L 775.298573 141.37927 
L 776.399499 141.895753 
L 777.500425 143.089971 
L 778.601351 141.400705 
L 779.702277 142.846398 
L 780.803202 140.930039 
L 781.904128 142.088227 
L 783.005054 141.361617 
L 784.10598 141.767324 
L 785.206905 142.647106 
L 786.307831 144.152487 
L 787.408757 140.669952 
L 788.509683 143.570503 
L 789.610609 141.38847 
L 790.711534 143.82612 
L 791.81246 141.248663 
L 792.913386 144.14629 
L 794.014312 141.001748 
L 795.115238 140.582779 
L 797.317089 142.730656 
L 798.418015 141.570819 
L 799.518941 142.550767 
L 800.619866 142.738681 
L 801.720792 143.143305 
L 802.821718 141.429872 
L 803.922644 141.954662 
L 805.02357 143.484481 
L 806.124495 143.569148 
L 807.225421 142.01557 
L 808.326347 143.540839 
L 809.427273 141.249283 
L 809.427273 141.249283 
" clip-path="url(#p1545cd5611)" style="fill: none; stroke: #1f77b4; stroke-width: 1.5; stroke-linecap: round"/>
   </g>
   <g id="patch_3">
    <path d="M 117 384.48 
L 117 51.84 
" style="fill: none; stroke: #262626; stroke-width: 0.8; stroke-linejoin: miter; stroke-linecap: square"/>
   </g>
   <g id="patch_4">
    <path d="M 842.4 384.48 
L 842.4 51.84 
" style="fill: none; stroke: #262626; stroke-width: 0.8; stroke-linejoin: miter; stroke-linecap: square"/>
   </g>
   <g id="patch_5">
    <path d="M 117 384.48 
L 842.4 384.48 
" style="fill: none; stroke: #262626; stroke-width: 0.8; stroke-linejoin: miter; stroke-linecap: square"/>
   </g>
   <g id="patch_6">
    <path d="M 117 51.84 
L 842.4 51.84 
" style="fill: none; stroke: #262626; stroke-width: 0.8; stroke-linejoin: miter; stroke-linecap: square"/>
   </g>
   <g id="text_17">
    <!-- Each id average survival turns: 200000 turns for 600 people kill simulation -->
    <g style="fill: #262626" transform="translate(268.457812 45.84)scale(0.12 -0.12)">
     <defs>
      <path id="MicrosoftYaHei-45" d="M 3228 0 
L 625 0 
L 625 4841 
L 3119 4841 
L 3119 4284 
L 1250 4284 
L 1250 2734 
L 2981 2734 
L 2981 2181 
L 1250 2181 
L 1250 553 
L 3228 553 
L 3228 0 
z
" transform="scale(0.015625)"/>
      <path id="MicrosoftYaHei-61" d="M 628 3216 
Q 1144 3538 1819 3538 
Q 3069 3538 3069 2225 
L 3069 0 
L 2463 0 
L 2463 534 
L 2447 534 
Q 2088 -81 1388 -81 
Q 884 -81 587 191 
Q 291 463 291 925 
Q 291 1894 1438 2053 
L 2463 2197 
Q 2463 3044 1763 3044 
Q 1141 3044 628 2625 
L 628 3216 
z
M 1653 1625 
Q 1228 1569 1067 1412 
Q 906 1256 906 975 
Q 906 728 1081 572 
Q 1256 416 1544 416 
Q 1944 416 2203 697 
Q 2463 978 2463 1403 
L 2463 1734 
L 1653 1625 
z
" transform="scale(0.015625)"/>
      <path id="MicrosoftYaHei-63" d="M 2934 156 
Q 2538 -81 1978 -81 
Q 1228 -81 772 400 
Q 316 881 316 1647 
Q 316 2497 808 3017 
Q 1300 3538 2125 3538 
Q 2600 3538 2938 3369 
L 2938 2763 
Q 2572 3031 2125 3031 
Q 1600 3031 1270 2667 
Q 941 2303 941 1697 
Q 941 1100 1252 762 
Q 1563 425 2091 425 
Q 2538 425 2934 719 
L 2934 156 
z
" transform="scale(0.015625)"/>
      <path id="MicrosoftYaHei-68" d="M 3466 0 
L 2856 0 
L 2856 1988 
Q 2856 3031 2081 3031 
Q 1684 3031 1421 2726 
Q 1159 2422 1159 1959 
L 1159 0 
L 547 0 
L 547 5116 
L 1159 5116 
L 1159 2888 
L 1172 2888 
Q 1569 3538 2300 3538 
Q 3466 3538 3466 2128 
L 3466 0 
z
" transform="scale(0.015625)"/>
      <path id="MicrosoftYaHei-20" transform="scale(0.015625)"/>
      <path id="MicrosoftYaHei-76" d="M 3331 3456 
L 1963 0 
L 1344 0 
L 44 3456 
L 713 3456 
L 1556 988 
Q 1659 691 1678 491 
L 1694 491 
Q 1725 753 1803 975 
L 2688 3456 
L 3331 3456 
z
" transform="scale(0.015625)"/>
      <path id="MicrosoftYaHei-65" d="M 3363 1572 
L 944 1572 
Q 959 1019 1246 717 
Q 1534 416 2050 416 
Q 2631 416 3116 788 
L 3116 241 
Q 2659 -81 1906 -81 
Q 1156 -81 736 394 
Q 316 869 316 1713 
Q 316 2506 777 3022 
Q 1238 3538 1922 3538 
Q 2600 3538 2981 3102 
Q 3363 2666 3363 1881 
L 3363 1572 
z
M 2750 2063 
Q 2747 2531 2528 2787 
Q 2309 3044 1913 3044 
Q 1547 3044 1280 2772 
Q 1013 2500 944 2063 
L 2750 2063 
z
" transform="scale(0.015625)"/>
      <path id="MicrosoftYaHei-72" d="M 2400 2850 
Q 2247 2959 1978 2959 
Q 1622 2959 1390 2626 
Q 1159 2294 1159 1750 
L 1159 0 
L 547 0 
L 547 3456 
L 1159 3456 
L 1159 2753 
L 1172 2753 
Q 1434 3516 2078 3516 
Q 2288 3516 2400 3469 
L 2400 2850 
z
" transform="scale(0.015625)"/>
      <path id="MicrosoftYaHei-67" d="M 3547 291 
Q 3547 -1628 1684 -1628 
Q 1041 -1628 566 -1388 
L 566 -797 
Q 1144 -1119 1675 -1119 
Q 2934 -1119 2934 206 
L 2934 572 
L 2922 572 
Q 2528 -81 1747 -81 
Q 1097 -81 706 384 
Q 316 850 316 1619 
Q 316 2503 747 3020 
Q 1178 3538 1897 3538 
Q 2588 3538 2922 2988 
L 2934 2988 
L 2934 3456 
L 3547 3456 
L 3547 291 
z
M 2934 2056 
Q 2938 2456 2666 2743 
Q 2394 3031 1997 3031 
Q 1497 3031 1219 2664 
Q 941 2297 941 1656 
Q 941 1106 1209 765 
Q 1478 425 1922 425 
Q 2369 425 2653 750 
Q 2938 1075 2934 1575 
L 2934 2056 
z
" transform="scale(0.015625)"/>
      <path id="MicrosoftYaHei-73" d="M 353 747 
Q 816 413 1350 413 
Q 2066 413 2066 881 
Q 2066 1081 1909 1211 
Q 1753 1341 1275 1519 
Q 700 1750 528 1976 
Q 356 2203 356 2525 
Q 356 2984 745 3261 
Q 1134 3538 1703 3538 
Q 2144 3538 2522 3384 
L 2522 2794 
Q 2134 3044 1644 3044 
Q 1350 3044 1165 2916 
Q 981 2788 981 2578 
Q 981 2372 1114 2256 
Q 1247 2141 1703 1959 
Q 2281 1744 2484 1512 
Q 2688 1281 2688 941 
Q 2688 466 2298 192 
Q 1909 -81 1291 -81 
Q 753 -81 353 122 
L 353 747 
z
" transform="scale(0.015625)"/>
      <path id="MicrosoftYaHei-75" d="M 3400 0 
L 2784 0 
L 2784 544 
L 2772 544 
Q 2425 -81 1706 -81 
Q 478 -81 478 1388 
L 478 3456 
L 1084 3456 
L 1084 1478 
Q 1084 425 1891 425 
Q 2291 425 2537 720 
Q 2784 1016 2784 1466 
L 2784 3456 
L 3400 3456 
L 3400 0 
z
" transform="scale(0.015625)"/>
      <path id="MicrosoftYaHei-6c" d="M 544 0 
L 544 5116 
L 1156 5116 
L 1156 0 
L 544 0 
z
" transform="scale(0.015625)"/>
      <path id="MicrosoftYaHei-74" d="M 2206 34 
Q 2006 -75 1666 -75 
Q 738 -75 738 953 
L 738 2950 
L 144 2950 
L 144 3456 
L 738 3456 
L 738 4288 
L 1347 4481 
L 1347 3456 
L 2206 3456 
L 2206 2950 
L 1347 2950 
L 1347 1063 
Q 1347 722 1462 575 
Q 1578 428 1847 428 
Q 2053 428 2206 544 
L 2206 34 
z
" transform="scale(0.015625)"/>
      <path id="MicrosoftYaHei-6e" d="M 3469 0 
L 2859 0 
L 2859 1966 
Q 2859 3031 2081 3031 
Q 1678 3031 1418 2731 
Q 1159 2431 1159 1972 
L 1159 0 
L 547 0 
L 547 3456 
L 1159 3456 
L 1159 2884 
L 1172 2884 
Q 1563 3538 2306 3538 
Q 2875 3538 3172 3173 
Q 3469 2809 3469 2113 
L 3469 0 
z
" transform="scale(0.015625)"/>
      <path id="MicrosoftYaHei-3a" d="M 372 3134 
Q 372 3303 490 3415 
Q 609 3528 775 3528 
Q 944 3528 1062 3414 
Q 1181 3300 1181 3134 
Q 1181 2969 1065 2853 
Q 950 2738 772 2738 
Q 603 2738 487 2853 
Q 372 2969 372 3134 
z
M 372 322 
Q 372 491 487 606 
Q 603 722 775 722 
Q 950 722 1065 605 
Q 1181 488 1181 322 
Q 1181 159 1065 42 
Q 950 -75 772 -75 
Q 600 -75 486 42 
Q 372 159 372 322 
z
" transform="scale(0.015625)"/>
      <path id="MicrosoftYaHei-66" d="M 2319 4594 
Q 2147 4684 1947 4684 
Q 1372 4684 1372 3972 
L 1372 3456 
L 2181 3456 
L 2181 2950 
L 1372 2950 
L 1372 0 
L 766 0 
L 766 2950 
L 175 2950 
L 175 3456 
L 766 3456 
L 766 4000 
Q 766 4556 1086 4873 
Q 1406 5191 1900 5191 
Q 2163 5191 2319 5131 
L 2319 4594 
z
" transform="scale(0.015625)"/>
      <path id="MicrosoftYaHei-6f" d="M 316 1691 
Q 316 2547 794 3042 
Q 1272 3538 2091 3538 
Q 2869 3538 3311 3061 
Q 3753 2584 3753 1744 
Q 3753 925 3281 422 
Q 2809 -81 2016 -81 
Q 1241 -81 778 406 
Q 316 894 316 1691 
z
M 941 1709 
Q 941 1113 1242 769 
Q 1544 425 2053 425 
Q 2578 425 2853 761 
Q 3128 1097 3128 1725 
Q 3128 2356 2853 2693 
Q 2578 3031 2053 3031 
Q 1538 3031 1239 2678 
Q 941 2325 941 1709 
z
" transform="scale(0.015625)"/>
      <path id="MicrosoftYaHei-70" d="M 1159 488 
L 1159 -1591 
L 547 -1591 
L 547 3456 
L 1159 3456 
L 1159 2859 
L 1172 2859 
Q 1578 3538 2359 3538 
Q 3022 3538 3398 3073 
Q 3775 2609 3775 1828 
Q 3775 966 3348 442 
Q 2922 -81 2200 -81 
Q 1534 -81 1172 488 
L 1159 488 
z
M 1156 1425 
Q 1156 1003 1428 714 
Q 1700 425 2109 425 
Q 2597 425 2872 800 
Q 3147 1175 3147 1838 
Q 3147 2397 2890 2714 
Q 2634 3031 2191 3031 
Q 1738 3031 1447 2709 
Q 1156 2388 1156 1884 
L 1156 1425 
z
" transform="scale(0.015625)"/>
      <path id="MicrosoftYaHei-6b" d="M 3484 0 
L 2650 0 
L 1172 1666 
L 1159 1666 
L 1159 0 
L 547 0 
L 547 5116 
L 1159 5116 
L 1159 1872 
L 1172 1872 
L 2575 3456 
L 3363 3456 
L 1800 1794 
L 3484 0 
z
" transform="scale(0.015625)"/>
      <path id="MicrosoftYaHei-6d" d="M 5522 0 
L 4909 0 
L 4909 1984 
Q 4909 2547 4734 2789 
Q 4559 3031 4159 3031 
Q 3822 3031 3581 2715 
Q 3341 2400 3341 1969 
L 3341 0 
L 2728 0 
L 2728 2047 
Q 2728 3031 1969 3031 
Q 1619 3031 1389 2731 
Q 1159 2431 1159 1966 
L 1159 0 
L 547 0 
L 547 3456 
L 1159 3456 
L 1159 2909 
L 1172 2909 
Q 1541 3538 2250 3538 
Q 2597 3538 2862 3347 
Q 3128 3156 3231 2831 
Q 3616 3538 4381 3538 
Q 5522 3538 5522 2131 
L 5522 0 
z
" transform="scale(0.015625)"/>
     </defs>
     <use xlink:href="#MicrosoftYaHei-45"/>
     <use xlink:href="#MicrosoftYaHei-61" x="54.980469"/>
     <use xlink:href="#MicrosoftYaHei-63" x="110.253906"/>
     <use xlink:href="#MicrosoftYaHei-68" x="160.400391"/>
     <use xlink:href="#MicrosoftYaHei-20" x="221.972656"/>
     <use xlink:href="#MicrosoftYaHei-69" x="251.5625"/>
     <use xlink:href="#MicrosoftYaHei-64" x="278.173828"/>
     <use xlink:href="#MicrosoftYaHei-20" x="342.138672"/>
     <use xlink:href="#MicrosoftYaHei-61" x="371.728516"/>
     <use xlink:href="#MicrosoftYaHei-76" x="427.001953"/>
     <use xlink:href="#MicrosoftYaHei-65" x="478.867188"/>
     <use xlink:href="#MicrosoftYaHei-72" x="535.605469"/>
     <use xlink:href="#MicrosoftYaHei-61" x="573.789062"/>
     <use xlink:href="#MicrosoftYaHei-67" x="629.0625"/>
     <use xlink:href="#MicrosoftYaHei-65" x="693.027344"/>
     <use xlink:href="#MicrosoftYaHei-20" x="749.765625"/>
     <use xlink:href="#MicrosoftYaHei-73" x="779.355469"/>
     <use xlink:href="#MicrosoftYaHei-75" x="825.644531"/>
     <use xlink:href="#MicrosoftYaHei-72" x="887.265625"/>
     <use xlink:href="#MicrosoftYaHei-76" x="929.824219"/>
     <use xlink:href="#MicrosoftYaHei-69" x="982.314453"/>
     <use xlink:href="#MicrosoftYaHei-76" x="1008.925781"/>
     <use xlink:href="#MicrosoftYaHei-61" x="1059.416016"/>
     <use xlink:href="#MicrosoftYaHei-6c" x="1114.689453"/>
     <use xlink:href="#MicrosoftYaHei-20" x="1141.300781"/>
     <use xlink:href="#MicrosoftYaHei-74" x="1170.890625"/>
     <use xlink:href="#MicrosoftYaHei-75" x="1208.146484"/>
     <use xlink:href="#MicrosoftYaHei-72" x="1269.767578"/>
     <use xlink:href="#MicrosoftYaHei-6e" x="1307.701172"/>
     <use xlink:href="#MicrosoftYaHei-73" x="1369.322266"/>
     <use xlink:href="#MicrosoftYaHei-3a" x="1415.611328"/>
     <use xlink:href="#MicrosoftYaHei-20" x="1439.683594"/>
     <use xlink:href="#MicrosoftYaHei-32" x="1469.273438"/>
     <use xlink:href="#MicrosoftYaHei-30" x="1527.916016"/>
     <use xlink:href="#MicrosoftYaHei-30" x="1586.558594"/>
     <use xlink:href="#MicrosoftYaHei-30" x="1645.201172"/>
     <use xlink:href="#MicrosoftYaHei-30" x="1703.84375"/>
     <use xlink:href="#MicrosoftYaHei-30" x="1762.486328"/>
     <use xlink:href="#MicrosoftYaHei-20" x="1821.128906"/>
     <use xlink:href="#MicrosoftYaHei-74" x="1850.71875"/>
     <use xlink:href="#MicrosoftYaHei-75" x="1887.974609"/>
     <use xlink:href="#MicrosoftYaHei-72" x="1949.595703"/>
     <use xlink:href="#MicrosoftYaHei-6e" x="1987.529297"/>
     <use xlink:href="#MicrosoftYaHei-73" x="2049.150391"/>
     <use xlink:href="#MicrosoftYaHei-20" x="2095.439453"/>
     <use xlink:href="#MicrosoftYaHei-66" x="2125.029297"/>
     <use xlink:href="#MicrosoftYaHei-6f" x="2159.697266"/>
     <use xlink:href="#MicrosoftYaHei-72" x="2223.271484"/>
     <use xlink:href="#MicrosoftYaHei-20" x="2261.455078"/>
     <use xlink:href="#MicrosoftYaHei-36" x="2291.044922"/>
     <use xlink:href="#MicrosoftYaHei-30" x="2349.6875"/>
     <use xlink:href="#MicrosoftYaHei-30" x="2408.330078"/>
     <use xlink:href="#MicrosoftYaHei-20" x="2466.972656"/>
     <use xlink:href="#MicrosoftYaHei-70" x="2496.5625"/>
     <use xlink:href="#MicrosoftYaHei-65" x="2560.429688"/>
     <use xlink:href="#MicrosoftYaHei-6f" x="2617.167969"/>
     <use xlink:href="#MicrosoftYaHei-70" x="2680.742188"/>
     <use xlink:href="#MicrosoftYaHei-6c" x="2744.609375"/>
     <use xlink:href="#MicrosoftYaHei-65" x="2771.220703"/>
     <use xlink:href="#MicrosoftYaHei-20" x="2827.958984"/>
     <use xlink:href="#MicrosoftYaHei-6b" x="2857.548828"/>
     <use xlink:href="#MicrosoftYaHei-69" x="2911.992188"/>
     <use xlink:href="#MicrosoftYaHei-6c" x="2938.603516"/>
     <use xlink:href="#MicrosoftYaHei-6c" x="2965.214844"/>
     <use xlink:href="#MicrosoftYaHei-20" x="2991.826172"/>
     <use xlink:href="#MicrosoftYaHei-73" x="3021.416016"/>
     <use xlink:href="#MicrosoftYaHei-69" x="3067.705078"/>
     <use xlink:href="#MicrosoftYaHei-6d" x="3094.316406"/>
     <use xlink:href="#MicrosoftYaHei-75" x="3188.017578"/>
     <use xlink:href="#MicrosoftYaHei-6c" x="3249.638672"/>
     <use xlink:href="#MicrosoftYaHei-61" x="3276.25"/>
     <use xlink:href="#MicrosoftYaHei-74" x="3331.523438"/>
     <use xlink:href="#MicrosoftYaHei-69" x="3368.779297"/>
     <use xlink:href="#MicrosoftYaHei-6f" x="3395.390625"/>
     <use xlink:href="#MicrosoftYaHei-6e" x="3458.964844"/>
    </g>
   </g>
   <g id="legend_1">
    <g id="patch_7">
     <path d="M 710.446875 75.3775 
L 835.4 75.3775 
Q 837.4 75.3775 837.4 73.3775 
L 837.4 58.84 
Q 837.4 56.84 835.4 56.84 
L 710.446875 56.84 
Q 708.446875 56.84 708.446875 58.84 
L 708.446875 73.3775 
Q 708.446875 75.3775 710.446875 75.3775 
z
" style="fill: #ffffff; opacity: 0.8; stroke: #cccccc; stroke-linejoin: miter"/>
    </g>
    <g id="line2d_2">
     <path d="M 712.446875 65.33375 
L 722.446875 65.33375 
L 732.446875 65.33375 
" style="fill: none; stroke: #1f77b4; stroke-width: 1.5; stroke-linecap: round"/>
    </g>
    <g id="text_18">
     <!-- average_alive_turns -->
     <g style="fill: #262626" transform="translate(740.446875 68.83375)scale(0.1 -0.1)">
      <defs>
       <path id="MicrosoftYaHei-5f" d="M 2869 -1003 
L 0 -1003 
L 0 -600 
L 2869 -600 
L 2869 -1003 
z
" transform="scale(0.015625)"/>
      </defs>
      <use xlink:href="#MicrosoftYaHei-61"/>
      <use xlink:href="#MicrosoftYaHei-76" x="55.273438"/>
      <use xlink:href="#MicrosoftYaHei-65" x="107.138672"/>
      <use xlink:href="#MicrosoftYaHei-72" x="163.876953"/>
      <use xlink:href="#MicrosoftYaHei-61" x="202.060547"/>
      <use xlink:href="#MicrosoftYaHei-67" x="257.333984"/>
      <use xlink:href="#MicrosoftYaHei-65" x="321.298828"/>
      <use xlink:href="#MicrosoftYaHei-5f" x="378.037109"/>
      <use xlink:href="#MicrosoftYaHei-61" x="422.861328"/>
      <use xlink:href="#MicrosoftYaHei-6c" x="478.134766"/>
      <use xlink:href="#MicrosoftYaHei-69" x="504.746094"/>
      <use xlink:href="#MicrosoftYaHei-76" x="531.357422"/>
      <use xlink:href="#MicrosoftYaHei-65" x="583.222656"/>
      <use xlink:href="#MicrosoftYaHei-5f" x="639.960938"/>
      <use xlink:href="#MicrosoftYaHei-74" x="684.785156"/>
      <use xlink:href="#MicrosoftYaHei-75" x="722.041016"/>
      <use xlink:href="#MicrosoftYaHei-72" x="783.662109"/>
      <use xlink:href="#MicrosoftYaHei-6e" x="821.595703"/>
      <use xlink:href="#MicrosoftYaHei-73" x="883.216797"/>
     </g>
    </g>
   </g>
  </g>
 </g>
 <defs>
  <clipPath id="p1545cd5611">
   <rect x="117" y="51.84" width="725.4" height="332.64"/>
  </clipPath>
 </defs>
</svg>
